<?xml version="1.0" encoding="utf-8"?>
<!-- Generator: Adobe Illustrator 21.0.0, SVG Export Plug-In . SVG Version: 6.00 Build 0)  -->
<svg version="1.1" id="Layer_1" xmlns="http://www.w3.org/2000/svg" xmlns:xlink="http://www.w3.org/1999/xlink" x="0px" y="0px"
	 viewBox="0 0 310.2 46.3" style="enable-background:new 0 0 310.2 46.3;" xml:space="preserve">
<style type="text/css">
	.st0{fill:#454956;}
	.st1{fill:#368EE0;}
</style>
<g>
	<g>
		<path class="st0" d="M169.9,44.7h-7.5l-10.8-31.3h6.8l7.8,23.7l7.8-23.7h6.8l7.8,23.7l7.8-23.7h6.8l-10.8,31.3h-7.5l-7.4-21.4
			L169.9,44.7z"/>
		<path class="st0" d="M229.6,44.7h-6v-4.2c-2.6,3.1-6.1,4.7-10.4,4.7c-3.3,0-6-0.9-8.1-2.8c-2.1-1.8-3.2-4.3-3.2-7.4
			s1.1-5.4,3.4-6.9c2.3-1.5,5.4-2.3,9.2-2.3h8.5v-1.2c0-4.2-2.3-6.2-6.9-6.2c-2.9,0-5.9,1.1-9.1,3.2l-2.9-4.1c3.8-3,8.1-4.5,13-4.5
			c3.7,0,6.7,0.9,9,2.8s3.5,4.8,3.5,8.8V44.7L229.6,44.7z M223,33.1v-2.6h-7.4c-4.7,0-7.1,1.5-7.1,4.5c0,1.5,0.6,2.7,1.8,3.5
			s2.8,1.2,4.9,1.2c2.1,0,3.9-0.6,5.5-1.8C222.2,36.7,223,35.1,223,33.1z"/>
		<path class="st0" d="M241,44.7h-6.6V1.1h6.6V44.7z"/>
		<path class="st0" d="M252.7,44.7h-6.6V1.1h6.6V44.7z"/>
		<path class="st0" d="M286.9,32h-24.5c0.2,2.3,1.2,4.1,3.1,5.5s4.1,2.1,6.6,2.1c3.9,0,6.9-1.2,8.9-3.7l3.8,4.1
			c-3.4,3.5-7.8,5.2-13.2,5.2c-4.4,0-8.1-1.5-11.2-4.4s-4.6-6.8-4.6-11.8s1.6-8.8,4.7-11.7s6.8-4.4,11.1-4.4c4.3,0,7.9,1.3,10.9,3.9
			s4.5,6.1,4.5,10.6L286.9,32L286.9,32z M262.4,26.8h18c0-2.6-0.8-4.7-2.5-6.1c-1.6-1.4-3.7-2.1-6.1-2.1s-4.6,0.7-6.5,2.2
			S262.4,24.3,262.4,26.8z"/>
		<path class="st0" d="M297.6,18.7v15.9c0,1.5,0.4,2.7,1.2,3.6c0.8,0.9,1.9,1.3,3.3,1.3s2.8-0.7,4.1-2.1l2.7,4.7
			c-2.3,2.1-4.9,3.1-7.7,3.1s-5.2-1-7.2-2.9s-3-4.6-3-7.9V18.7h-3.9v-5.3h3.9V3.6h6.6v9.8h8.2v5.3H297.6z"/>
	</g>
	<g>
		<g>
			<path class="st1" d="M17.1,45.2c-4.4,0-8.1-1.5-11.2-4.4c-3.1-3-4.7-6.8-4.7-11.6s1.6-8.7,4.9-11.7s7.3-4.5,12-4.5
				s8.7,1.6,12,4.9l-3.9,4.8c-2.7-2.4-5.4-3.5-8.2-3.5c-2.7,0-5.1,0.9-7.2,2.7c-2,1.8-3,4.2-3,7.1s1,5.3,3,7.3s4.5,3,7.4,3
				s5.7-1.3,8.3-4l3.9,4.2C26.5,43.3,22.1,45.2,17.1,45.2z"/>
			<path class="st1" d="M59.7,40.5c-3.1,3.2-7,4.7-11.7,4.7c-4.7,0-8.6-1.6-11.8-4.7c-3.2-3.1-4.7-6.9-4.7-11.5
				c0-4.5,1.6-8.3,4.7-11.4s7.1-4.7,11.8-4.7c4.7,0,8.6,1.6,11.8,4.7c3.1,3.1,4.7,6.9,4.7,11.4C64.4,33.6,62.9,37.4,59.7,40.5z
				 M40.9,36.5c1.9,1.9,4.2,2.9,7.1,2.9s5.2-1,7.1-2.9s2.8-4.4,2.8-7.4s-0.9-5.5-2.8-7.4c-1.9-1.9-4.2-2.9-7.1-2.9
				c-2.9,0-5.2,1-7.1,2.9c-1.9,1.9-2.8,4.4-2.8,7.4S39,34.6,40.9,36.5z"/>
			<path class="st1" d="M76.7,44.7L64.1,13.4H71l9.5,23.7L90,13.4h6.8L84.3,44.7H76.7z"/>
			<path class="st1" d="M128.3,32h-24.5c0.2,2.3,1.2,4.1,3.1,5.5s4.1,2.1,6.6,2.1c3.9,0,6.9-1.2,8.9-3.7l3.8,4.1
				c-3.4,3.5-7.8,5.2-13.2,5.2c-4.4,0-8.1-1.5-11.2-4.4S97.3,34,97.3,29c0-4.9,1.6-8.8,4.7-11.7s6.8-4.4,11.1-4.4
				c4.3,0,7.9,1.3,10.9,3.9s4.5,6.1,4.5,10.6V32H128.3z M103.8,26.8h18c0-2.6-0.8-4.7-2.5-6.1s-3.7-2.1-6.1-2.1s-4.6,0.7-6.5,2.2
				C104.7,22.3,103.8,24.3,103.8,26.8z"/>
			<path class="st1" d="M149,19.6c-3.3,0-5.7,1.1-7.4,3.2c-1.6,2.1-2.5,5-2.5,8.5v13.4h-6.6V13.4h6.6v6.3c1.1-2,2.5-3.6,4.3-4.8
				c1.8-1.3,3.8-1.9,5.8-1.9l0.1,6.7C149.3,19.6,149.1,19.6,149,19.6z"/>
		</g>
	</g>
</g>
</svg>
