<?xml version="1.0" standalone="no"?>
<!DOCTYPE svg PUBLIC "-//W3C//DTD SVG 1.1//EN" "http://www.w3.org/Graphics/SVG/1.1/DTD/svg11.dtd">
<svg xmlns="http://www.w3.org/2000/svg">
<metadata>Generated by Fontastic.me</metadata>
<defs>
<font id="coverwallet" horiz-adv-x="512">
<font-face font-family="coverwallet" units-per-em="512" ascent="480" descent="-32"/>
<missing-glyph horiz-adv-x="512" />

<glyph glyph-name="3rdparty" unicode="&#97;" d="M238 384l-123 0c-18-20-29-45-32-71l108 0c9 0 16-8 16-17 0-9-7-17-16-17l-106 0c2-11 5-22 11-33l95 0c9 0 16-7 16-16 0-9-7-17-16-17l-72 0c0 0 0 0 1 0 23-24 55-37 88-37 23 0 46 6 64 18l0 156c0 19-15 34-34 34z m255-299l-111 110c-1 2-1 4 0 5 17 30 26 65 26 99 0 54-21 104-59 142-38 38-88 58-141 58-54 0-104-20-141-58-38-38-59-88-59-142 0-53 21-103 58-141 38-38 88-58 142-58 39 0 78 11 110 33 1 0 2 1 3 1 1 0 2-1 3-2l108-108c8-8 19-13 30-13 12 0 23 5 31 13 17 17 17 44 0 61z m-170 99c-31-30-72-47-115-47-44 0-84 17-115 47-31 31-48 72-48 115 0 44 17 85 48 115 30 31 71 48 115 48 43 0 84-17 115-48 31-30 47-71 47-115 0-43-16-84-47-115z"/>
<glyph glyph-name="add" unicode="&#100;" d="M256 509c-141 0-255-113-255-253 0-139 114-252 255-252 140 0 254 113 254 252 0 140-114 253-254 253z m0-479c-126 0-228 102-228 226 0 125 102 226 228 226 125 0 227-101 227-226 0-124-102-226-227-226z m-17 319l0-76-76 0c-10 0-17-7-17-17 0-9 7-17 17-17l76 0 0-76c0-9 7-17 17-17 9 0 17 8 17 17l0 76 76 0c9 0 17 8 17 17 0 10-8 17-17 17l-76 0 0 76c0 10-8 17-17 17-10 0-17-7-17-17z"/>
<glyph glyph-name="admin" unicode="&#101;" d="M412 336l-35 0 0 51c0 67-55 121-121 121-67 0-121-54-121-121l0-51-36 0c-9 0-17-7-17-17l0-298c0-9 8-16 17-16l313 0c10 0 17 7 17 16l0 298c0 10-7 17-17 17z m-243 51c0 48 39 87 87 87 48 0 87-39 87-87l0-51-174 0z m226-349l-279 0 0 264 279 0z m-108 87l-14 43c6 5 10 12 10 21 0 15-12 27-27 27-15 0-28-12-28-27 0-9 4-16 10-21l-13-43z"/>
<glyph glyph-name="agent" unicode="&#102;" d="M334 241l-157 0c-8 0-15-7-15-16 0-9 7-16 15-16l157 0c9 0 16 7 16 16 0 9-7 16-16 16z m31 94l-219 0c-9 0-16-7-16-16 0-9 7-16 16-16l219 0c9 0 16 7 16 16 0 9-7 16-16 16z m-109 172c-139 0-251-98-251-219 0-70 37-131 94-171l0-111 110 66c15-2 31-4 47-4 138 0 250 98 250 220 0 121-112 219-250 219z m0-407c-19 0-36 2-53 5l-74-44 1 73c-56 34-94 90-94 154 0 103 99 188 220 188 121 0 219-85 219-188 0-104-98-188-219-188z"/>
<glyph glyph-name="cancel" unicode="&#103;" d="M256 509c-141 0-255-113-255-253 0-139 114-252 255-252 140 0 254 113 254 252 0 140-114 253-254 253z m0-479c-126 0-228 102-228 226 0 125 102 226 228 226 125 0 227-101 227-226 0-124-102-226-227-226z m53 304l-53-53-54 53c-6 7-17 7-24 0-7-7-7-18 0-24l53-54-53-53c-7-7-7-18 0-25 7-6 18-6 24 0l54 54 53-54c7-6 18-6 25 0 6 7 6 18 0 25l-54 53 54 54c6 6 6 17 0 24-7 7-18 7-25 0z"/>
<glyph glyph-name="cancel-filled" unicode="&#104;" d="M256 509c-141 0-255-113-255-253 0-139 114-252 255-252 140 0 254 113 254 252 0 140-114 253-254 253z m78-331c-7-6-18-6-25 0l-53 54-54-54c-6-6-17-6-24 0-7 7-7 18 0 25l53 53-53 54c-7 6-7 17 0 24 7 7 18 7 24 0l54-53 53 53c7 7 18 7 25 0 6-7 6-18 0-24l-54-54 54-53c6-7 6-18 0-25z"/>
<glyph glyph-name="chat" unicode="&#105;" d="M256 508c-140 0-253-113-253-253 0-74 32-144 89-192 0 0 0-1 0-1 0 0 1-1 2-1 0 0 0 0 0 0 46-39 102-59 162-59 58 0 115 20 161 57 1 1 6 5 6 5 55 49 86 119 86 191 0 140-114 253-253 253z m0-489c-17 0-33 1-49 5-1 0-2 0-3 0-1 1-1 1-2 1-26 6-51 16-73 31-66 42-110 116-110 199 0 131 106 237 237 237 131 0 237-106 237-237 0-130-106-236-237-236z m69 286l-138 0c-4 0-8-3-8-8 0-4 4-8 8-8l138 0c4 0 8 4 8 8 0 5-4 8-8 8z m0-68c4 0 8 3 8 8 0 4-4 8-8 8l-138 0c-4 0-8-4-8-8 0-5 4-8 8-8z m17 135l-173 0c-25 0-45-21-45-46l0-107c0-25 20-45 45-45l111 0 0-1 53-53c2-1 4-2 6-2 1 0 2 0 3 1 3 1 5 4 5 7l0 48 1 0c23 3 40 22 40 45l0 107c0 25-21 46-46 46z m30-153c0-16-13-29-30-29l-3 0c-4 0-8-4-8-8l0-37-2 3-40 39c-2 2-4 3-6 3l-114 0c-16 0-29 13-29 29l0 107c0 16 13 30 29 30l173 0c17 0 30-14 30-30z"/>
<glyph glyph-name="checklist" unicode="&#106;" d="M181 140l-93 92 37 36 56-56 123 121 37-36z m-41 372l-127-132 0-350 395 0 0 482z m-12-56l0-58-56 0z m249-223l0-172-333 0 0 307 115 0 0 114 218 0z"/>
<glyph glyph-name="checklist-shield" unicode="&#107;" d="M256 6c-3 0-5 1-8 3l-129 98c-49 38-79 98-79 160l0 170c0 6 4 11 9 12l204 57c2 1 4 1 6 0l204-57c5-1 8-6 8-12l0-170c0-62-29-122-79-160l-129-98c-2-2-5-3-7-3z m-192 422l0-161c0-55 26-108 70-141l122-93 122 93c43 33 69 86 69 141l0 161-191 54z m167-230c-3 0-6 2-8 4l-88 89c-5 4-5 12 0 17 4 4 12 4 17 0l79-80 129 129c5 5 12 5 17 0 5-5 5-12 0-17l-137-138c-2-2-6-4-9-4z"/>
<glyph glyph-name="contact" unicode="&#108;" d="M461 434l-411 0c-26 0-47-21-47-47l0-261c0-27 21-48 47-48l411 0c26 0 48 21 48 48l0 261c0 26-22 47-48 47z m-422-36l131-126-135-90 0 205c0 4 1 8 4 11z m41 5l352 0-157-151c-11-11-28-11-39 0z m392-5c3-3 5-7 5-11l0-206-136 90z m-11-288l-411 0c-8 0-15 7-15 16l0 18 158 105 21-20c12-11 27-17 42-17 15 0 30 6 41 17l21 20 159-106 0-17c0-9-7-16-16-16z"/>
<glyph glyph-name="current" unicode="&#109;" d="M376 35l-327 0 0 443 248 0 0-67c0-7 5-13 12-13l67 0 0-76 34 52 0 43c0 2-1 5-3 7l-86 84c-2 2-5 3-8 3l-268 0c-17 0-30-14-30-30l0-449c0-17 13-30 30-30l335 0c17 0 30 13 30 30l0 127-34-50 0-74z m72 239l-14 9c-2 2-5 1-7-1l-75-113-15 9 76 113c1 2 1 5-2 7l-14 9c-2 1-5 0-7-2l-113-168c0-1-1-2-1-3l-3-58c0-2 1-3 3-4 1-1 3-1 5-1l53 26c1 1 2 1 2 2l114 169c1 2 0 5-2 6z m47 69l-51 33c-3 1-6 1-7-2l-35-51c-1-2 0-5 2-6l51-33c2-1 5-1 7 2l34 51c2 2 1 5-1 6z m-397 62l97 0c7 0 13 5 13 12 0 7-6 12-13 12l-97 0c-7 0-12-5-12-12 0-7 5-12 12-12z m185-49c0 7-6 12-13 12l-172 0c-7 0-12-5-12-12 0-6 5-12 12-12l172 0c7 0 13 6 13 12z m-185-72l97 0c7 0 13 5 13 12 0 6-6 12-13 12l-97 0c-7 0-12-6-12-12 0-7 5-12 12-12z m0-61l97 0c7 0 13 5 13 12 0 7-6 12-13 12l-97 0c-7 0-12-5-12-12 0-7 5-12 12-12z m10-161c8 10 14 20 19 31 4-2 8-1 12 0 5 2 9 6 13 9 3 2 6 6 9 6 3 0 6-2 9-2 7-1 15 1 21 2 6 2 14 4 17 10 3 3-3 6-5 3-3-5-10-6-15-7-6-2-12-3-18-2-5 1-8 3-13 1-6-2-10-8-16-12-2-1-5-3-8-3-1 0-2 0-3 1 1 1 1 3 2 5 6 14 9 29 12 45 1 7 3 20-8 20-10 1-19-13-23-21-2-7-3-14-3-22 1-4 2-9 3-13-9-2-18-12-17-21 2-10 14-5 19-1 4 3 6 8 6 12 1-1 1-3 2-4-5-12-12-23-20-33-2-3 2-7 5-4z m6 39c-1-4-6-8-10-9-3 0-1 6-1 7 3 4 7 6 12 7 0-1 0-3-1-5z m6 11c-1 5-3 10-3 14-1 9 0 18 5 25 2 5 8 12 14 12 5 1 2-11 1-14-1-7-2-15-4-23-2-7-4-13-7-20-1 3-3 6-6 6z"/>
<glyph glyph-name="download" unicode="&#110;" d="M256 509c-141 0-255-113-255-253 0-139 114-252 255-252 140 0 254 113 254 252 0 140-114 253-254 253z m0-479c-126 0-228 102-228 226 0 125 102 226 228 226 125 0 227-101 227-226 0-124-102-226-227-226z m128 210c0 10-8 18-18 18l-13 0 0 91c0 10-8 18-19 18l-157 0c-10 0-19-8-19-18l0-91-13 0c-10 0-18-8-18-19 0-8 6-15 14-17l109-108c2-2 4-3 6-3 2 0 4 1 6 3l109 108c7 2 12 7 13 14l0 1c0 0 1 1 1 2z m-50-3l22 0-100-100-100 100 21 0 3 2 0 107 152 0 0-107z"/>
<glyph glyph-name="edit" unicode="&#111;" d="M256 509c-141 0-255-113-255-253 0-139 114-252 255-252 140 0 254 113 254 252 0 140-114 253-254 253z m0-479c-126 0-228 102-228 226 0 125 102 226 228 226 125 0 227-101 227-226 0-124-102-226-227-226z m88 305l-54 31c-2 2-5 3-9 3-6 0-12-4-16-10l-57-104-8-14 0-1c-3-4-6-10-6-16l-4-69 0-1 0 0c0-1 4-18 19-18l2 0 0 0c2 1 4 1 5 2l58 39c5 3 8 8 11 13l12 22 54 97c5 9 2 20-7 26z m-131-129c-1 3 1 16 6 25 5 8 15 27 15 27l16 27 9 18 49-28-10-19-31-54c-5-9-15-16-18-18l-29-24c-3-1-6-1-8 1-3 1-4 4-5 7l6 37z m118 111l-13-24-49 29 13 24z"/>
<glyph glyph-name="email" unicode="&#112;" d="M256 508c-140 0-253-113-253-253 0-74 32-144 89-192 0 0 0-1 0-1 0 0 1-1 2-1 0 0 0 0 0 0 46-39 102-59 162-59 58 0 115 20 161 57 1 1 6 5 6 5 55 49 86 119 86 191 0 140-114 253-253 253z m0-489c-17 0-33 1-49 5-1 0-2 0-3 0-1 1-1 1-2 1-26 6-51 16-73 31-66 42-110 116-110 199 0 131 106 237 237 237 131 0 237-106 237-237 0-130-106-236-237-236z m-2 231c0 0 0 0-1 0 1 0 1 0 1 0z m3 0c0 0 0 0 0 0 0 0 0 0 0 0z m-2 0c0 0 0 0 1 0-1 0-1 0-1 0z m-2 0c-3 0-6 2-8 4 2-2 5-4 8-4z m6 0c-1 0-1 0-1 0 0 0 0 0 1 0z m107 102l-221 0c-14 0-25-12-25-25l0-141c0-14 11-25 25-25l221 0c14 0 25 11 25 25l0 141c0 13-11 25-25 25z m-205-16l191 0-1-1-84-81c-3-3-7-5-11-5-4 0-8 2-11 5l-84 81-1 1z m-25-120l0 111c0 2 1 4 3 6l0 0 1 0 70-68 0 0 0-1-73-48-1-1 0 1z m239-21l0-9c0-5-4-9-9-9l-221 0c-5 0-9 4-9 9l0 10 1 0 85 57 0 0 1 0 11-11c6-6 14-9 22-9 8 0 16 3 22 9l11 11 0 0 0 0 86-57 0 0z m0 21l0-1-1 0-73 49 0 0 0 1 71 68 0 0 1 0c1-2 2-4 2-6l0-111z"/>
<glyph glyph-name="epli" unicode="&#113;" d="M191 45l129 0c7 0 13 6 13 13 0 7-6 13-13 13l-129 0c-7 0-13-6-13-13 0-7 6-13 13-13z m300 164l-5 0c5 3 8 9 6 15l-58 175 6 0c7 0 13 6 13 13 0 7-6 13-13 13l-172 0 0 36 33 0c10 0 17-8 17-17 0-8 6-13 13-13l24 0c7 0 12 5 12 13 0 7-5 12-12 12l-13 0c-6 18-22 31-41 31l-33 0 0 3c0 7-6 13-13 13-7 0-12-6-12-13l0-3-33 0c-19 0-36-13-41-31l-13 0c-7 0-13-5-13-12 0-8 6-13 13-13l24 0c7 0 12 5 12 13 0 9 8 17 18 17l33 0 0-36-172 0c-7 0-13-6-13-13 0-7 6-13 13-13l6 0-58-175c-2-6 1-12 6-15l-6 0c-7 0-12-6-12-13 0-7 5-13 12-13l4 0c14-26 42-44 72-44 30 0 57 18 71 44l4 0c7 0 12 6 12 13 0 7-5 13-12 13l-6 0c5 3 8 9 6 15l-58 175 131 0 0-288-44 0c-24 0-45-16-50-40l-1 0c-25 0-46-17-51-40l-36 0c-7 0-13-6-13-13 0-7 6-13 13-13l389 0c7 0 13 6 13 13 0 7-6 13-13 13l-36 0c-6 23-26 40-51 40l-1 0c-5 24-26 40-51 40l-43 0 0 288 131 0-58-175c-2-6 1-12 6-15l-6 0c-7 0-13-6-13-13 0-7 6-13 13-13l4 0c14-26 41-44 71-44 30 0 58 18 72 44l3 0c7 0 13 6 13 13 0 7-6 13-13 13z m-396-44c-16 0-31 7-41 18l81 0c-10-11-25-18-40-18z m-52 51l52 155 51-155c1-3 3-5 6-7l-115 0c3 2 5 4 6 7z m105-171l12 0c7 0 12 6 12 13 0 15 13 28 27 28l112 0c15 0 27-13 27-28 0-7 6-13 13-13l12 0c10 0 19-5 24-14l-263 0c4 9 13 14 24 14z m217 171l51 155 52-155c1-3 3-5 6-7l-115 0c3 2 5 4 6 7z m51-51c-15 0-30 7-40 18l81 0c-10-11-25-18-41-18z"/>
<glyph glyph-name="feedback" unicode="&#114;" d="M386 370l-260 0c-8 0-15-7-15-15 0-8 7-15 15-15l260 0c8 0 15 7 15 15 0 8-7 15-15 15z m0-129c8 0 15 7 15 15 0 9-7 15-15 15l-260 0c-8 0-15-6-15-15 0-8 7-15 15-15z m33 254l-327 0c-47 0-85-38-85-85l0-202c0-47 38-86 85-86l209 0 1 0 0-1 100-99c3-3 7-5 11-5 2 0 4 1 5 1 6 3 10 8 10 14l0 90 2 1c43 5 75 42 75 85l0 202c0 47-39 85-86 85z m56-287c0-31-25-56-56-56l-6 0c-9 0-15-7-15-15l0-69-5 5-75 75c-2 3-6 4-10 4l-216 0c-30 0-55 25-55 56l0 202c0 30 25 55 55 55l327 0c31 0 56-25 56-55z"/>
<glyph glyph-name="general-liability" unicode="&#115;" d="M504 75l-231 385c-4 8-12 13-20 13-9 0-16-5-21-13l-225-385c-4-8-5-17-1-24 5-7 12-11 22-11l456 0c9 0 17 4 21 11 5 7 4 16-1 24z m-39-5l-419 0c-4 0-5 3-3 6l206 353c2 4 6 4 8 0l212-353c2-3 0-6-4-6z m-225 107c1-9 9-17 18-17 9 0 17 8 17 17l6 144c0 10-7 18-17 18l-17 0c-9 0-17-8-16-18z m24-35l-16 0c-10 0-18-8-18-18l0-16c0-9 8-17 18-17l16 0c10 0 18 8 18 17l0 16c0 10-8 18-18 18z"/>
<glyph glyph-name="policy-type" unicode="&#116;" d="M322 256l-186 0c-7 0-13-6-13-13 0-7 6-13 13-13l186 0c8 0 14 6 14 13 0 7-6 13-14 13z m0 54l-186 0c-7 0-13-6-13-14 0-7 6-13 13-13l186 0c8 0 14 6 14 13 0 8-6 14-14 14z m0-107l-186 0c-7 0-13-6-13-13 0-7 6-13 13-13l186 0c8 0 14 6 14 13 0 7-6 13-14 13z m93 213l-26 0 0 26c0 15-12 27-27 27l-266 0c-14 0-26-12-26-27l0-319c0-14 12-26 26-26l27 0 0-27c0-14 12-26 27-26l265 0c15 0 27 12 27 26l0 319c0 15-12 27-27 27z m-319-293l0 319 266 0 0-319z m319-53l-265 0 0 27 212 0c15 0 27 12 27 26l0 266 26 0 0-319z m-93 319l-133 0c-7 0-13-6-13-13 0-7 6-13 13-13l133 0c8 0 14 6 14 13 0 7-6 13-14 13z"/>
<glyph glyph-name="past-claims" unicode="&#117;" d="M504 75l-231 385c-4 8-12 13-20 13-9 0-16-5-21-13l-225-385c-4-8-5-17-1-24 5-7 12-11 22-11l456 0c9 0 17 4 21 11 5 7 4 16-1 24z m-39-5l-419 0c-4 0-5 3-3 6l206 353c2 4 6 4 8 0l212-353c2-3 0-6-4-6z m-225 107c1-9 9-17 18-17 9 0 17 8 17 17l6 144c0 10-7 18-17 18l-17 0c-9 0-17-8-16-18z m24-35l-16 0c-10 0-18-8-18-18l0-16c0-9 8-17 18-17l16 0c10 0 18 8 18 17l0 16c0 10-8 18-18 18z"/>
<glyph glyph-name="yearly-revenues" unicode="&#118;" d="M408 342c3 6 5 12 5 18l0 26c0 43-70 78-157 78-82 0-149-31-155-72-33-14-53-35-53-58l0-26c0-24 22-46 56-60-2-6-4-12-4-18l0-26c0-9 3-18 9-26-6-8-9-17-9-26l0-26c0-40 58-72 134-78l45 0c75 6 134 38 134 78l0 26c0 9-4 18-10 26 0 0 0 0 0 0 4 6 8 13 9 20 29 12 48 30 52 50l0 42c-4 21-25 39-56 52z m-152 109c85 0 144-34 144-65 0-31-59-65-144-65-84 0-143 34-143 65 0 31 59 65 143 65z m-195-117c0 15 14 31 39 44l0-18c0-43 70-78 156-78 13 0 26 1 38 2-24-9-55-15-90-15-84 0-143 34-143 65z m247-156c13 0 26 1 38 2 0 0 0 0 0 0-24-9-54-15-90-15-84 0-143 34-143 65 0 4 2 9 4 13 13-4 27-7 42-10 19-32 79-55 149-55z m-52-91c-84 0-143 34-143 65 0 5 2 10 5 15 0 0 0 0 0 0 26-24 78-41 138-41 60 0 112 17 138 41 3-5 6-10 6-15 0-31-59-65-144-65z m52 130c-33 0-62 5-86 14 74 4 132 34 138 71 18 8 32 17 41 29 31-13 51-32 51-49 0-31-59-65-144-65z m-30 143c-5-1-12-2-21-2-20 0-32 4-35 13l-38-4c7-14 27-22 60-23l0-12 24 0 0 12c20 1 35 3 45 8 10 5 15 11 15 18 0 4-2 8-7 12-5 3-12 6-20 8-9 2-20 4-35 6-13 2-22 4-26 5-4 1-6 3-6 6 0 2 2 5 6 6 5 2 10 3 17 3 14 0 24-4 31-12l34 6c-8 11-26 18-54 19l0 9-24 0 0-9c-19-1-32-4-40-9-9-4-13-10-13-16 0-4 2-8 7-11 5-4 11-6 19-8 7-2 18-4 31-6 15-2 25-4 30-6 4-1 6-3 6-6 0-2-2-5-6-7z"/>
<glyph glyph-name="business-size" unicode="&#119;" d="M396 408c-3 3-6 4-10 4l-62 0 0-35c0-10-3-18-10-24-6-7-15-10-24-10l-68 0c-10 0-18 3-25 10-6 6-10 14-10 24l0 35-62 0c-3 0-6-1-9-4-2-2-4-5-4-9l0-339c0-4 2-7 4-9 3-3 6-4 9-4l88 0c-1 1-1 3-1 4l0 60c0 6 2 11 7 15 4 5 9 7 15 7l44 0c6 0 11-3 15-7 5-4 7-9 7-15l0-60c0-1 0-3-1-4l87 0c4 0 7 1 10 4 2 2 3 5 3 9l0 339c0 4-1 7-3 9z m-219-300c0-2-1-4-3-6-1-1-3-2-5-2l-16 0c-2 0-4 1-6 2-1 2-2 4-2 6l0 16c0 2 1 4 2 5 2 2 4 3 6 3l16 0c2 0 4-1 5-3 2-1 3-3 3-5z m0 63c0-2-1-4-3-5-1-2-3-3-5-3l-16 0c-2 0-4 1-6 3-1 1-2 3-2 5l0 16c0 2 1 4 2 6 2 1 4 2 6 2l16 0c2 0 4-1 5-2 2-2 3-4 3-6z m0 64c0-3-1-4-3-6-1-2-3-2-5-2l-16 0c-2 0-4 0-6 2-1 2-2 3-2 6l0 15c0 3 1 4 2 6 2 1 4 2 6 2l16 0c2 0 4-1 5-2 2-2 3-3 3-6z m0 63c0-2-1-4-3-6-1-1-3-2-5-2l-16 0c-2 0-4 1-6 2-1 2-2 4-2 6l0 16c0 2 1 4 2 5 2 2 4 3 6 3l16 0c2 0 4-1 5-3 2-1 3-3 3-5z m0 63c0-2-1-4-3-5-1-2-3-3-5-3l-16 0c-2 0-4 1-6 3-1 1-2 3-2 5l0 16c0 2 1 4 2 6 2 1 4 2 6 2l16 0c2 0 4-1 5-2 2-2 3-4 3-6z m63-190c0-2-1-4-2-5-2-2-4-3-6-3l-16 0c-2 0-4 1-5 3-2 1-3 3-3 5l0 16c0 2 1 4 3 6 1 1 3 2 5 2l16 0c2 0 4-1 6-2 1-2 2-4 2-6z m0 64c0-3-1-4-2-6-2-2-4-2-6-2l-16 0c-2 0-4 0-5 2-2 2-3 3-3 6l0 15c0 3 1 4 3 6 1 1 3 2 5 2l16 0c2 0 4-1 6-2 1-2 2-3 2-6z m0 63c0-2-1-4-2-6-2-1-4-2-6-2l-16 0c-2 0-4 1-5 2-2 2-3 4-3 6l0 16c0 2 1 4 3 5 1 2 3 3 5 3l16 0c2 0 4-1 6-3 1-1 2-3 2-5z m63-127c0-2 0-4-2-5-2-2-3-3-6-3l-15 0c-3 0-4 1-6 3-1 1-2 3-2 5l0 16c0 2 1 4 2 6 2 1 3 2 6 2l15 0c3 0 4-1 6-2 2-2 2-4 2-6z m0 64c0-3 0-4-2-6-2-2-3-2-6-2l-15 0c-3 0-4 0-6 2-1 2-2 3-2 6l0 15c0 3 1 4 2 6 2 1 3 2 6 2l15 0c3 0 4-1 6-2 2-2 2-3 2-6z m0 63c0-2 0-4-2-6-2-1-3-2-6-2l-15 0c-3 0-4 1-6 2-1 2-2 4-2 6l0 16c0 2 1 4 2 5 2 2 3 3 6 3l15 0c3 0 4-1 6-3 2-1 2-3 2-5z m64-190c0-2-1-4-3-6-1-1-3-2-5-2l-16 0c-2 0-4 1-6 2-1 2-2 4-2 6l0 16c0 2 1 4 2 5 2 2 4 3 6 3l16 0c2 0 4-1 5-3 2-1 3-3 3-5z m0 63c0-2-1-4-3-5-1-2-3-3-5-3l-16 0c-2 0-4 1-6 3-1 1-2 3-2 5l0 16c0 2 1 4 2 6 2 1 4 2 6 2l16 0c2 0 4-1 5-2 2-2 3-4 3-6z m0 64c0-3-1-4-3-6-1-2-3-2-5-2l-16 0c-2 0-4 0-6 2-1 2-2 3-2 6l0 15c0 3 1 4 2 6 2 1 4 2 6 2l16 0c2 0 4-1 5-2 2-2 3-3 3-6z m0 63c0-2-1-4-3-6-1-1-3-2-5-2l-16 0c-2 0-4 1-6 2-1 2-2 4-2 6l0 16c0 2 1 4 2 5 2 2 4 3 6 3l16 0c2 0 4-1 5-3 2-1 3-3 3-5z m0 63c0-2-1-4-3-5-1-2-3-3-5-3l-16 0c-2 0-4 1-6 3-1 1-2 3-2 5l0 16c0 2 1 4 2 6 2 1 4 2 6 2l16 0c2 0 4-1 5-2 2-2 3-4 3-6z m-159 0c4-3 8-5 14-5l68 0c5 0 10 2 13 5 1 0 1 1 2 1 4 4 6 9 6 15l0 68c0 6-2 11-6 15-4 4-9 6-15 6l-68 0c-6 0-11-2-15-6-4-4-6-9-6-15l0-68c0-6 2-11 6-15 0 0 1-1 1-1z m11 82c0 1 1 2 2 3 0 1 2 2 3 2l9 0c1 0 2-1 3-2 1-1 2-2 2-3l0-23 36 0 0 23c0 1 1 2 2 3 0 1 2 2 3 2l9 0c1 0 2-1 3-2 1-1 2-2 2-3l0-64c0-1-1-2-2-3-1-1-2-2-3-2l-9 0c-1 0-3 1-3 2-1 1-2 2-2 3l0 23-36 0 0-23c0-1-1-2-2-3-1-1-2-2-3-2l-9 0c-1 0-2 1-3 2-1 1-2 2-2 3l0 33 0 0 0 31z"/>
<glyph glyph-name="location" unicode="&#120;" d="M237 282l-133 0c-5 0-10-4-12-9l-25-88 179-20 14 68c-9 15-17 32-23 49z m167-134l53-6-16 56c-2-4-4-7-6-10-11-15-22-29-31-40z m-117 41l-6-28 29-3c-7 9-15 19-22 30-1 1-1 1-1 1z m-254-123c-2-4-1-8 1-11 3-3 6-5 10-5l178 0 16 80-181 20z m435 39l-194 21-16-76 210 0c6 0 12 6 12 12 0 2-1 3-1 4z m-112 28c1-2 3-2 5-2 2 0 4 0 5 2 11 11 33 35 54 66 27 38 60 94 60 145 0 65-53 119-119 119-65 0-118-54-118-119 0-51 32-107 59-145 22-31 43-55 54-66z m5 285c40 0 73-33 73-73 0-40-33-72-73-72-40 0-72 32-72 72 0 40 32 73 72 73z"/>
<glyph glyph-name="employees-number" unicode="&#121;" d="M110 386c23 0 42 19 42 42 0 24-19 43-42 43-24 0-43-19-43-43 0-23 19-42 43-42z m47-16l-94 0c-12 0-21-9-21-21l0-90c0-12 9-21 21-21l4 0 0-84c0-12 9-21 21-21l44 0c11 0 21 9 21 21l0 5c-4 7-7 15-7 24l0 110c0 21 13 40 32 48l0 8c0 12-10 21-21 21z m245 16c24 0 43 19 43 42 0 24-19 43-43 43-23 0-42-19-42-43 0-23 19-42 42-42z m47-15l-94 0c-12 0-21-10-21-21l0-9c18-8 31-26 31-48l0-109c0-9-2-17-6-25l0-5c0-11 9-21 21-21l44 0c12 0 21 10 21 21l0 84 4 0c12 0 21 10 21 21l0 91c0 11-9 21-21 21z m-136-57l-114 0c-12 0-21-10-21-21l0-110c0-11 10-21 21-21l8 0 0-99c0-11 10-21 21-21l56 0c12 0 21 10 21 21l0 99 8 0c12 0 21 10 21 21l0 110c0 11-9 21-21 21z m-57 17c27 0 49 22 49 49 0 27-22 49-49 49-27 0-48-22-48-49 0-27 21-49 48-49z"/>
<glyph glyph-name="industry" unicode="&#122;" d="M479 76l-339 0 0 205 4 0c7 0 12 5 12 12l0 7 178 108 0-118-30 0c-4 0-8-3-8-8l0-50c0-5 4-8 8-8l76 0c5 0 9 3 9 8l0 50c0 5-4 8-9 8l-30 0 0 131 24 17c2 1 3 4 3 6l0 20c0 3-2 6-4 7-3 2-6 2-8 1l-245-126-37 0c-6 0-12-6-12-12l0-41c0-7 6-12 12-12l8 0 0-205-58 0c-10 0-18-8-18-18 0-10 8-18 18-18l446 0c10 0 18 8 18 18 0 10-8 18-18 18z m-267 103c-6 0-11-5-11-11l0-66c0-6 5-11 11-11l101 0c6 0 11 5 11 11l0 66c0 6-5 11-11 11z m133-11l0-66c0-6 5-11 11-11l101 0c6 0 11 5 11 11l0 66c0 6-5 11-11 11l-101 0c-6 0-11-5-11-11z"/>
<glyph glyph-name="info" unicode="&#84;" d="M290 165l-22-10 28 143c2 8-1 16-8 20-6 5-15 6-22 2l-52-30c-10-5-13-18-8-28 6-10 18-13 28-7l14 7-27-137c-2-8 1-16 7-20 4-3 8-5 13-5 2 0 5 1 8 2l57 25c11 4 16 16 11 27-5 10-17 15-27 11z m-14 193c8 0 16 3 21 9 6 5 9 13 9 20 0 8-3 16-9 21-5 5-13 9-21 9-7 0-15-4-20-9-6-5-9-13-9-21 0-7 3-15 9-20 5-6 13-9 20-9z m-20 154c-141 0-256-115-256-256 0-141 115-256 256-256 141 0 256 115 256 256-1 141-115 256-256 256z m0-465c-115 0-209 94-209 209 0 115 94 209 209 209 115 0 209-94 209-209 0-115-94-209-209-209z"/>
<glyph glyph-name="logout" unicode="&#85;" d="M204 42l-130 0 0 428 130 0c12 0 21 9 21 20 0 12-9 21-21 21l-150 0c-11 0-20-9-20-21l0-468c0-11 9-20 20-20l150 0c12 0 21 9 21 20 0 11-9 20-21 20z m271 218c0 1 0 1 0 1 0 2-1 3-1 4 0 0-1 1-1 1 0 1-1 1-1 2 0 0-1 1-1 1l0 1-85 84c-4 4-9 6-14 6-6 0-11-2-15-6-3-4-6-9-6-14 0-5 3-11 6-14l49-49-268 0c-12 0-21-9-21-21 0-11 9-20 21-20l268 0-49-49c-8-8-8-21 0-29 4-4 9-6 15-6 5 0 11 3 14 6l84 84c1 1 1 2 2 3 0 0 0 0 1 1 0 0 0 1 1 2 0 0 0 1 0 1l1 2 0 1c1 2 1 3 1 4 0 1 0 3-1 4z"/>
<glyph glyph-name="newpolicy" unicode="&#86;" d="M44 61l0 307 115 0 0 113 218 0 0-247c3 0 7 0 11 0 6 0 13-1 19-1l0 278-267 0-126-131 0-349 276 0c-7 9-14 19-18 30z m85 395l0-58-56 0z m209-173l-257 0 0-33 257 0z m-14-66l-243 0 0-34 205 0c10 14 23 25 38 34z m-243-104l181 0c0 12 2 23 5 34l-186 0z m307 105c-61 0-110-48-110-108 0-60 49-108 110-108 60 0 110 48 110 108 0 60-50 108-110 108z m52-124l-36 0 0-36-33 0 0 36-36 0 0 32 36 0 0 36 33 0 0-36 36 0z"/>
<glyph glyph-name="notifications" unicode="&#87;" d="M256 2c26 0 48 23 48 51l-97 0c0-28 22-51 49-51z m157 153l0 139c0 79-51 143-121 160l0 18c0 21-17 38-36 38-20 0-37-17-37-38l0-18c-70-17-121-81-121-160l0-139-48-51 0-26 411 0 0 26z m-48-26l-218 0 0 165c0 64 48 115 109 115 60 0 109-51 109-115l0-165z"/>
<glyph glyph-name="other-docs" unicode="&#88;" d="M475 455l-118 0c-19 0-40-10-50-34 0 0-4-30-33-33l-235 0c-19 0-34-15-34-33l0-303c0-18 15-33 34-33l436 0c18 0 33 15 33 33l0 369c0 19-15 34-33 34z m0-100l0-303-436 0 0 302 235 0 3 0c31 3 51 25 60 48 8 22 24 19 24 19l114 0z m-134-135l-67 0 0 67c0 9-8 17-17 17-9 0-17-8-17-17l0-67-67 0c-9 0-17-8-17-17 0-9 8-16 17-16l67 0 0-68c0-9 8-16 17-16 9 0 17 7 17 16l0 68 67 0c9 0 16 7 16 16 0 9-7 17-16 17z"/>
<glyph glyph-name="phone" unicode="&#89;" d="M256 508c-140 0-253-113-253-253 0-74 32-144 89-192 0 0 0-1 0-1 0 0 1-1 2-1 0 0 0 0 0 0 46-39 102-59 162-59 58 0 115 20 161 57 1 1 6 5 6 5 55 49 86 119 86 191 0 140-114 253-253 253z m0-489c-17 0-33 1-49 5-1 0-2 0-3 0-1 1-1 1-2 1-26 6-51 16-73 31-66 42-110 116-110 199 0 131 106 237 237 237 131 0 237-106 237-237 0-130-106-236-237-236z m134 161l-42 42c-5 5-12 8-19 8-8 0-15-3-20-8l-18-19-1 1c-13 7-31 17-49 36-19 18-29 36-36 49l-1 1 19 18c10 11 11 28 0 39l-42 42c-5 5-12 7-19 7-7 0-14-3-20-8l-16-16 1-1c-3-4-5-9-7-14-3-7-4-13-5-19-6-48 16-91 74-150 69-69 128-74 144-74 3 0 5 0 6 0 6 1 12 2 19 5 5 2 10 4 14 8l1-1 16 15c11 11 11 29 1 39z m-211 105c1-2 3-5 4-8 8-14 19-34 40-55 21-21 41-32 55-40 3-1 6-3 8-4l9-5 31 31c1 1 2 1 3 1 0 0 1 0 1 0l42-42c1-1 1-3 0-4l-8-8c-3-2-8-6-15-9-5-2-9-3-13-4 0 0-1 0-2 0-10 0-64 4-127 68-62 61-72 96-68 129 1 4 2 8 4 13 3 7 7 12 9 15l8 8c0 0 1 1 2 1 1 0 1 0 2-1l42-42c1-1 1-3-1-4l-31-31z"/>
<glyph glyph-name="popularity-high" unicode="&#90;" d="M256 165c-25 0-46-20-46-45 0-25 21-46 46-46 25 0 45 21 45 46 0 25-20 45-45 45z m245 159c-61 73-151 114-245 114-95 0-184-41-245-114-8-9-7-24 3-32 4-3 9-5 14-5 7 0 13 3 18 8 52 62 129 98 210 98 81 0 157-36 210-98 4-5 11-8 17-8 5 0 11 2 15 5 10 8 11 23 3 32z m-245 23c-68 0-132-29-175-81-8-10-7-24 3-32 4-4 9-5 14-5 7 0 13 2 18 8 35 41 86 65 140 65 54 0 105-24 140-65 4-6 11-8 17-8 5 0 11 1 15 5 10 8 11 22 3 32-44 52-108 81-175 81z m0-91c-41 0-79-18-105-48-8-10-7-24 3-33 4-3 9-5 14-5 7 0 13 3 18 8 17 21 43 33 70 33 27 0 52-12 70-33 4-5 11-8 17-8 5 0 11 2 15 5 10 9 11 23 3 33-26 30-65 48-105 48z"/>
<glyph glyph-name="popularity-low" unicode="&#48;" d="M256 165c-25 0-46-20-46-45 0-25 21-46 46-46 25 0 45 21 45 46 0 25-20 45-45 45z m0 91c-41 0-79-18-105-48-8-10-7-24 3-33 4-3 9-5 14-5 7 0 13 3 18 8 17 21 43 33 70 33 27 0 52-12 70-33 4-5 11-8 17-8 5 0 11 2 15 5 10 9 11 23 3 33-26 30-65 48-105 48z"/>
<glyph glyph-name="popularity-med" unicode="&#49;" d="M256 165c-25 0-46-20-46-45 0-25 21-46 46-46 25 0 45 21 45 46 0 25-20 45-45 45z m0 182c-68 0-132-29-175-81-8-10-7-24 3-32 4-4 9-5 14-5 7 0 13 2 18 8 35 41 86 65 140 65 54 0 105-24 140-65 4-6 11-8 17-8 5 0 11 1 15 5 10 8 11 22 3 32-44 52-108 81-175 81z m0-91c-41 0-79-18-105-48-8-10-7-24 3-33 4-3 9-5 14-5 7 0 13 3 18 8 17 21 43 33 70 33 27 0 52-12 70-33 4-5 11-8 17-8 5 0 11 2 15 5 10 9 11 23 3 33-26 30-65 48-105 48z"/>
<glyph glyph-name="property" unicode="&#50;" d="M413 261c-8 0-13-6-13-14l0-184-96 0 0 75c0 7-6 13-13 13l-70 0c-7 0-14-6-14-13l0-75-95 0 0 178c0 7-6 13-14 13-7 0-13-6-13-13l0-192c0-7 6-13 13-13l123 0c7 0 13 6 13 13l0 75 43 0 0-75c0-7 6-13 14-13l122 0c7 0 13 6 13 13l0 198c0 8-6 14-13 14z m74-11l-107 107 0 73c0 8-6 14-14 14-7 0-13-6-13-14l0-46-88 88c-3 3-6 5-9 5-4 0-7-2-10-5l-221-220c-5-6-5-14 0-19 5-6 14-5 19 0l212 211 211-213c3-2 6-4 10-4 4 0 7 2 10 4 5 5 5 14 0 19z"/>
<glyph glyph-name="receipts" unicode="&#51;" d="M509 214l-223-91c0 0 2-89-68-79 0 0 0 0 0 0-34 5-52 34-83 117-36 95-73 197-89 246l251 65 104-268 37 13-110 282c-3 9-13 14-22 13l-289-71c-5-1-10-4-13-9-2-5-3-10-1-16 0-1 48-143 95-269 33-88 59-142 134-144 27-1 53 11 53 11l162 75c0 0 77 24 62 125z m-275 155c-3 11-14 17-24 14l-84-26c-11-3-17-14-14-25 2-8 10-14 19-14 1 0 3 0 5 0l84 27c11 3 17 14 14 24z m-69-135c2 0 4 0 7 1l84 30c10 4 15 15 12 25-3 10-14 16-25 13l-84-31c-10-3-16-14-12-25 3-8 10-13 18-13z m32-82c2 0 4 0 6 1l85 30c10 3 15 14 12 25-3 10-14 16-25 12l-84-30c-10-3-16-14-12-25 2-8 10-13 18-13z m82 211c12 0 21 10 21 22 0 11-9 21-21 21-12 0-22-10-22-21 0-12 10-22 22-22z m52-57c0 11-10 21-22 21-12 0-21-10-21-21 0-12 9-22 21-22 12 0 22 10 22 22z m11-103c12 0 22 9 22 21 0 12-10 21-22 21-12 0-22-9-22-21 0-12 10-21 22-21z"/>
<glyph glyph-name="restaurants" unicode="&#52;" d="M260 418c-92 0-167-73-167-162 0-89 75-161 167-161 92 0 166 72 166 161 0 89-74 162-166 162z m0-309c-84 0-152 66-152 147 0 82 68 148 152 148 83 0 152-66 152-148 0-81-69-147-152-147z m-89 111c-5 12-7 24-7 36 0 52 43 94 96 94 18 0 36-6 52-15 3-2 7-1 10 2 2 3 1 8-3 10-17 11-38 17-59 17-61 0-111-48-111-108 0-14 3-28 8-41 2-3 4-5 7-5 1 0 2 1 3 1 4 2 6 6 4 9z m27-36c-5 5-10 10-14 15-3 3-7 3-10 1-4-2-4-7-2-10 5-6 11-12 17-17 1-1 3-1 5-1 2 0 4 1 5 2 3 3 2 8-1 10z m139 140c-3-3-4-7-1-10 13-17 20-37 20-58 0-51-43-93-96-93-13 0-26 2-37 7-4 2-8 0-10-4-1-3 0-8 4-9 14-6 28-8 43-8 61 0 111 48 111 107 0 24-9 47-24 66-2 4-7 4-10 2z m162 78c-4 0-8-3-8-7l0-61c0-7-4-12-9-15l0 76c0 4-3 7-7 7-4 0-8-3-8-7l0-76c-5 3-9 8-9 15l0 61c0 4-3 7-7 7-4 0-8-3-8-7l0-61c0-15 11-27 24-30l0-187c0-4 4-7 8-7 4 0 7 3 7 7l0 187c14 3 24 15 24 30l0 61c0 4-3 7-7 7z m-454 0c-24 0-39-35-39-68 0-19 13-34 31-38l0-179c0-4 4-7 8-7 4 0 7 3 7 7l0 179c18 4 32 19 32 38 0 33-16 68-39 68z m0-92c-14 0-25 10-25 24 0 29 14 54 25 54 11 0 24-25 24-54 0-14-11-24-24-24z"/>
<glyph glyph-name="save" unicode="&#53;" d="M256 509c-141 0-255-113-255-253 0-139 114-252 255-252 140 0 254 113 254 252 0 140-114 253-254 253z m0-479c-126 0-228 102-228 226 0 125 102 226 228 226 125 0 227-101 227-226 0-124-102-226-227-226z m71 298l-104-105-39 38c-7 7-18 7-25 0-8-7-8-18 0-25l51-51c3-4 8-6 13-6 4 0 9 2 12 6l118 117c7 7 7 19 0 26-7 7-19 7-26 0z"/>
<glyph glyph-name="save-filled" unicode="&#54;" d="M256 509c-141 0-255-113-255-253 0-139 114-252 255-252 140 0 254 113 254 252 0 140-114 253-254 253z m97-207l-118-117c-3-4-8-6-12-6-5 0-10 2-13 6l-51 51c-8 7-8 18 0 25 7 7 18 7 25 0l39-38 104 105c7 7 19 7 26 0 7-7 7-19 0-26z"/>
<glyph glyph-name="schedule" unicode="&#55;" d="M351 503c-67 0-125-44-146-105-5 6-12 9-20 9-17 0-30-13-30-29l0-19-46 0 0 19c0 16-13 29-30 29-16 0-29-13-29-29l0-19-28 0c-9 0-16-4-16-10l0-44c0-1 0-1 0-1l0-269c0-14 11-26 26-26l294 0c14 0 25 12 25 26l0 161c85 0 155 69 155 153 0 85-70 154-155 154z m-181-125c0 8 7 14 15 14 8 0 15-6 15-14l0-2c-1-5-2-11-2-17l-28 0z m-106 0c0 8 7 14 15 14 9 0 15-6 15-14l0-19-30 0z m265-343c0-2-1-4-3-4l-294 0c-2 0-4 2-4 4l0 217 204 0c8-10 18-19 29-27l-7 0 0-42 41 0 0 23c11-4 22-7 34-9z m22 186c-71 0-129 57-129 128 0 71 58 129 129 129 72 0 129-58 129-129 0-71-57-128-129-128z m89 190c-5 6-13 6-18 2l-72-62-75 43c-6 3-14 1-17-5-4-6-2-14 4-17l83-47c2-1 4-1 6-1 3 0 6 1 9 3l78 67c6 4 6 12 2 17z m-374-186l42 0 0-42-42 0z m63 0l41 0 0-42-41 0z m62 0l42 0 0-42-42 0z m-125-62l42 0 0-42-42 0z m63 0l41 0 0-42-41 0z m62 0l42 0 0-42-42 0z m63 0l41 0 0-42-41 0z m-188-63l42 0 0-42-42 0z m63 0l41 0 0-42-41 0z m62 0l42 0 0-42-42 0z m63 0l41 0 0-42-41 0z"/>
<glyph glyph-name="settings-filled" unicode="&#57;" d="M441 321l-9 21c30 68 28 70 22 76l-38 38-4 3-4 0c-2 0-9 0-67-26l-21 9c-28 69-31 69-39 69l-53 0c-8 0-11 0-37-70l-21-8c-39 16-62 25-68 25l-5 0-41-41c-6-6-8-8 23-76l-9-21c-69-27-69-30-69-38l0-54c0-8 0-11 70-37l8-20c-29-69-27-71-22-77l38-38 4-3 5 0c2 0 9 0 66 27l22-9c27-69 30-69 38-69l54 0c8 0 11 0 36 69l22 9c38-17 61-25 67-25l6 0 41 41c6 6 8 8-24 75l9 21c70 28 70 30 70 39l0 53c0 9 0 12-70 37z m-185-132c-37 0-68 30-68 67 0 37 31 67 68 67 37 0 67-30 67-67 0-37-30-67-67-67z"/>
<glyph glyph-name="share" unicode="&#33;" d="M256 509c-141 0-255-113-255-253 0-139 114-252 255-252 140 0 254 113 254 252 0 140-114 253-254 253z m0-479c-126 0-228 102-228 226 0 125 102 226 228 226 125 0 227-101 227-226 0-124-102-226-227-226z m127 255l-114 76c-7 4-17 5-24 1-8-4-13-12-13-21l0-33c-63-2-114-54-114-118 0-11 1-26 10-40 1-1 2-2 4-2 0 0 0 0 0 0 2 0 3 1 4 3 18 44 54 71 96 73l0-34c0-8 5-16 13-20 7-4 17-4 24 1l114 76c7 4 11 11 11 19 0 8-4 15-11 19z m-127-34c-71 0-104-31-118-53 13 74 85 82 118 82 2 0 4 2 4 5l0 49c3 0 5-1 7-2l89-59c4-2 5-4 5-8 0-3-1-7-4-9l-90-55c-2-1-5-2-7-2l0 48c0 2-2 4-4 4z"/>
<glyph glyph-name="tellfriends" unicode="&#34;" d="M510 185c-1 30-16 57-40 73 13 13 19 31 19 50 0 39-28 70-62 70-34 0-62-31-62-70 0-19 7-37 19-50-17-11-30-29-36-50-7 7-15 13-23 18 23 22 35 53 35 87 0 64-47 116-104 116-58 0-105-52-105-116 0-34 13-65 36-87-9-5-16-11-23-18-7 21-19 39-36 50 12 13 19 31 19 50 0 39-28 70-63 70-34 0-62-31-62-70 0-19 7-37 19-50-23-16-38-43-40-73l0-5 19 0 0 4c2 27 17 50 39 61 16-8 35-8 51 0 20-10 35-31 38-55-19-26-31-57-33-90l0-5 27 0 0 4c3 48 31 90 70 108 14-7 29-11 44-11 15 0 30 4 43 11 40-18 67-60 71-108l0-4 27 0-1 5c-2 33-13 65-32 90 3 24 18 45 38 55 16-8 34-8 50 0 22-11 37-34 39-61l1-4 19 0z m-83 172c24 0 43-22 43-49 0-26-19-48-43-48-24 0-43 22-43 48 0 27 19 49 43 49z m-171 42c43 0 78-39 78-86 0-48-35-87-78-87-43 0-78 39-78 87 0 47 35 86 78 86z m-172-42c24 0 44-22 44-49 0-26-20-48-44-48-23 0-43 22-43 48 0 27 20 49 43 49z"/>
<glyph glyph-name="tyc" unicode="&#35;" d="M462 488c0 11-9 20-20 20l-372 0c-11 0-20-9-20-20l0-466c0-12 9-21 20-21l372 0c11 0 20 9 20 21l0 466z m-41-446l-331 0 0 425 331 0z m-256 307l182 0c11 0 20 9 20 20 0 12-9 21-20 21l-182 0c-12 0-21-9-21-21 0-11 9-20 21-20z m0-108l182 0c11 0 20 9 20 20 0 11-9 21-20 21l-182 0c-12 0-21-10-21-21 0-11 9-20 21-20z m0-115l182 0c11 0 20 9 20 21 0 11-9 20-20 20l-182 0c-12 0-21-9-21-20 0-12 9-21 21-21z"/>
<glyph glyph-name="us-map" unicode="&#36;" d="M495 352c0 0-1 1-1 1-5 4-11 6-24 6-7 0-16-1-16-1-5 0-9-3-11-7-5 0-19-1-36-1-24 0-37 1-43 2 0 1-1 2-2 2-4 4-10 5-17 5-3 0-5 0-5 0-1 0-3 0-4-1-6 11-19 19-19 19-6 4-11 6-16 6-1 0-2 0-4-1-5 1-21 6-33 11-2 0-4 1-5 1l-216 0c-5 0-10-4-13-9 0 0-1 0-1 0-7 0-13-4-15-10-3-6 0-13 1-15 1-2 2-4 3-6 1-2 2-4 2-6l0-71c0-11 7-16 10-18 1-1 1-2 2-2 1 0 1-1 2-1-1-15 13-27 21-34l1 0c1-1 3-3 3-3 1-1 3-3 5-6 1-1 2-2 3-3 7-8 13-15 22-15 1 0 2 1 3 1 1 0 1 0 2 0 2 0 3 1 4 1 11-11 41-14 41-15 1 0 2 0 2 0l6 0c0 0 1 0 2 1l0 0c3 0 9 1 15 1 3 0 4 0 5-1 2-2 3-5 5-8 5-8 12-14 13-14 2-2 5-4 9-4 1 0 1 0 2 0 3 1 6 2 8 4 1-2 2-5 3-8 4-7 10-13 18-19 7-5 13-7 14-7 2-1 3-1 5-1 3 0 6 1 8 2 4 3 6 7 6 12 0 0 0 2 0 6 0 4 1 9 1 13 0 0 0 0 0 0 4 3 11 6 16 7 2-1 7-2 10-3 10-4 16-6 22-6 8 0 13 5 15 11 0 0 1 1 2 1 0 0 1-1 1-1 4-4 8-8 15-8 1 0 3 0 5 0 0 0 0-1 0-2 0-3 0-4 0-4 0-4 1-9 5-15 2-5 13-20 24-20 4 0 8 1 11 4 2 2 6 6 7 22 0 5 0 12-1 18-1 5-3 10-6 13-1 1-2 4-2 9-1 3-1 7-1 9 4 3 11 9 18 14 6 6 12 11 16 15 7 7 14 15 12 25-1 3-2 6-5 8 0 1 0 2 0 3 0 1 1 2 1 3 5 2 12 7 14 19 0 0 1 0 1 0 3 3 10 5 15 6 5 1 14 3 16 13 1 4 0 7-2 10 1 1 1 1 2 2 2 1 5 3 8 5 11 9 18 15 19 23 0 4-1 8-4 12z m-24-23c-4-4-9-7-11-8-5-4-6-10-5-15 1-1 1-2 3-3 3-2-16-2-26-11-3-2-5-5-6-8-1-8-4-9-7-9-1 0-1 0-2 0-2 0-4 0-4-5-1 0-1-1-1-1 0-5-1-10-2-13 0-5 1-9 5-10 3-1-1-6-7-13-4-4-10-9-15-14-9-7-17-13-20-15-1-1-2-4-3-7 0-4 0-9 1-14 1-8 3-14 5-17 2-1 2-3 3-6 1-4 1-9 0-14 0-6-1-12-2-13 0 0 0 0-1 0-2 0-9 7-12 13-2 3-3 5-3 6 1 3 1 5 0 8-1 4-2 8-3 12 0 3-6 5-11 5-2 0-5-1-5-3 0 0 0 0 0 0-2 0-6 5-10 9-2 1-4 2-6 2-1 0-2 0-2 0-1-1-2-2-3-2-6-4-11-7-11-11 0 0 0-1-1-1-6 0-27 9-32 9 0 0 0 0-1 0-4 0-28-8-29-16 0-1 0-2 0-4-1-4-1-10-1-14 0-3 0-6 0-6 0 0-5 2-11 6-5 3-10 8-13 14-1 2-2 4-3 6-2 9-7 15-11 17-1 0-2 1-3 1-1 0-2-1-3-1 0-1 0-1 0-1-3-5-6-10-6-10 0 0-6 4-10 11-2 2-3 5-4 8-1 3-3 5-6 6-4 1-8 1-12 1-7 0-14-1-17-1l-6 0c-10 1-30 6-34 11-2 2-5 3-9 3-3 0-6-1-9-1 0 0 0 0 0 0-3 0-7 4-11 9-3 4-6 8-9 10-1 1-3 2-5 4-7 6-17 15-16 23 0 0 0 0 0 0 1 7-5 10-9 14-3 2-4 4-4 7 0 2 0 8 0 15 0 5 0 9 0 14 0 8 0 16 0 23 0 5 0 10 0 14 0 3 0 5 0 6 0 5-5 12-7 16-1 2-1 4-1 5 0 1 1 1 2 1 2 0 7-4 9-6 1 0 1 0 2 0 0 0 0 0 0 0 0 0 1 0 1 0 0 1 1 3 1 5 0 0 0 0 0 1 1 4 1 8 1 8l216 0c0 0 29-11 39-11 1 0 2 0 2 0 0 0 1 1 1 1 2 0 5-2 8-4 8-5 18-16 17-19 0-1-1-2-1-3 0-4 0-9 4-9 0 0 0 0 1 1 3 1 8 5 10 8 1 1 1 2 1 2 0 0 2 0 4 0 2 0 6 0 9-2 0-1 1-2 2-3 1-3 27-4 51-4 20 0 38 1 41 2 4 1 6 3 7 5 0 1 0 1 0 1 0 0 8 1 15 1 6 0 12-1 14-2 0 0 0 0 0 0 2-3-5-9-13-14z"/>
<glyph glyph-name="video" unicode="&#37;" d="M257 508c-140 0-253-113-253-253 0-74 32-144 89-193 0 0 0 0 0 0 1 0 1-1 2-1 0 0 0 0 1-1 45-38 101-58 162-58 58 0 115 20 161 57 0 0 5 4 5 5 55 49 86 119 86 191 0 140-113 253-253 253z m0-490c-16 0-33 2-49 6-1 0-2 0-3 0 0 0-1 0-1 1-27 6-51 16-74 31-66 42-109 116-109 199 0 131 106 237 236 237 131 0 237-106 237-237 0-130-106-237-237-237z m118 316l0-158-79 63 0-63-157 0 0 158 157 0 0-63 79 63m0 16c-4 0-8-1-11-3l-51-41 0 28c0 9-7 16-17 16l-157 0c-9 0-17-7-17-16l0-158c0-9 8-16 17-16l157 0c10 0 17 7 17 16l0 28 51-41c3-2 7-3 11-3 2 0 5 0 7 1 6 3 10 9 10 15l0 158c0 6-4 12-10 15-2 1-5 1-7 1z"/>
<glyph glyph-name="your-contracts" unicode="&#65;" d="M352 74l-262 0 0 365 199 0 0-55c0-6 4-11 10-11l53 0 0-62 28 42 0 36c0 2-1 4-3 5l-69 70c-2 1-4 2-6 2l-215 0c-13 0-24-11-24-24l0-371c0-14 11-25 24-25l268 0c14 0 25 11 25 25l0 105-28-41z m58 197l-11 8c-2 1-5 0-6-2l-60-92-12 7 61 93c1 2 0 4-2 6l-11 7c-2 1-4 1-5-1l-91-139c0-1-1-1-1-2l-2-48c0-2 1-3 2-4 1-1 2-1 4 0l43 21c1 1 1 1 1 2l91 139c1 2 1 4-1 5z m37 57l-41 27c-1 1-4 1-5-1l-28-42c-1-2 0-5 2-6l40-27c2-1 5 0 6 2l27 42c2 2 1 4-1 5z m-317 51l78 0c5 0 10 4 10 10 0 5-5 10-10 10l-78 0c-6 0-10-5-10-10 0-6 4-10 10-10z m147-40c0 5-4 10-10 10l-137 0c-6 0-10-5-10-10 0-6 4-10 10-10l137 0c6 0 10 4 10 10z m-147-60l78 0c5 0 10 4 10 10 0 5-5 10-10 10l-78 0c-6 0-10-5-10-10 0-6 4-10 10-10z m0-50l78 0c5 0 10 4 10 10 0 5-5 10-10 10l-78 0c-6 0-10-5-10-10 0-6 4-10 10-10z m7-133c7 8 12 17 16 26 3-2 6-1 9 0 4 1 8 5 11 7 2 2 4 5 7 5 2 0 5-1 7-2 6-1 12 1 17 2 5 2 11 3 14 8 2 3-3 5-4 3-3-4-8-5-12-6-5-1-10-2-15-2-3 1-6 3-10 2-5-3-9-7-13-10-2-2-4-3-6-3-1 0-2 0-3 1 1 1 1 2 2 3 5 12 7 25 9 38 1 6 3 16-6 17-8 0-15-11-18-18-2-5-3-12-3-18 1-3 2-7 3-11-8-1-15-9-14-17 2-8 11-4 15-1 3 3 5 6 5 10 0-1 1-2 2-4-5-9-10-18-16-26-2-3 1-6 3-4z m6 32c-1-3-5-7-9-7-2 0-1 5 0 6 2 3 6 5 9 6 0-2 0-3 0-5z m4 10c-1 4-2 8-3 11 0 7 1 15 5 21 2 3 6 9 11 10 4 0 1-10 1-12-1-6-2-12-3-19-2-5-4-11-6-17-1 3-3 5-5 6z"/>
<glyph glyph-name="about" unicode="&#98;" d="M464 354l-48-144-47 144-42 0-47-144-47 144-42 0 66-190 46 0 45 130 45-130 46 0 66 190z m-354-159c-18 0-33 6-45 18-12 12-18 27-18 45 0 17 6 31 18 42 12 12 27 17 44 17 16 0 33-7 49-21l24 29c-20 19-44 29-73 29-28 0-53-9-73-27-20-18-30-42-30-71 0-29 10-53 29-71 19-18 42-27 68-27 31 0 58 12 81 35l-24 26c-16-16-32-24-50-24z"/>
<glyph glyph-name="insurance-type-aircraft-liability" unicode="&#38;" d="M464 428c-1 10-5 18-12 25-4 4-10 8-16 10-14 4-30 3-46-3-9-4-17-9-23-16l-57-57-180 52c-8 2-17 2-24-1-4-2-8-5-12-8l-28-28c-4-4-7-9-9-15-2-5-2-10-1-16 0-5 2-10 5-15 3-5 8-8 13-11l124-70-42-41-59 11c-2 0-4 1-7 1-4 0-9-1-13-3-5-2-9-4-12-8l-8-8c-4-4-7-9-9-14-2-5-2-11-1-16 0-6 2-11 5-15 4-5 8-9 13-12l67-37 38-68c6-11 18-18 31-18 10 0 19 4 26 10l8 8c8 9 12 21 10 33l-12 59 42 41 69-124c7-11 19-18 32-18 9 0 18 4 25 10l28 29c10 9 13 23 10 35l-52 180 57 57c9 9 16 24 20 38 1 8 2 16 0 23z m-33-47l-63-63c-1-1-2-3-1-5l53-188c2-6 1-13-4-17l-28-28c-3-4-8-5-12-5-7 0-12 3-15 8l-78 140c-1 2-3 3-5 3-1 0-2 0-4-2l-59-59c-1-1-2-3-2-5l13-66c1-5-1-11-5-15l-8-8c-3-4-7-5-12-5-6 0-12 3-15 8l-39 71c-1 1-2 2-2 2l-71 40c-5 2-8 7-9 12 0 6 1 11 5 15l8 8c4 4 10 6 16 5l66-13c1 0 3 0 4 1l60 60c1 1 1 3 1 4 0 2-1 3-2 4l-140 78c-5 3-8 7-9 13 0 5 1 10 5 14l29 29c4 4 10 6 16 4l188-54c2 0 4 0 5 1l63 63c9 9 25 16 39 16 8 0 15-3 20-7 15-15 5-46-8-59z"/>
<glyph glyph-name="insurance-type-aviation-general-liability-coverage" unicode="&#39;" d="M500 220c-2 1-4 2-7 2l-172 0 0 2c0 2 0 4 0 6 0 12-2 24-6 35l-1 3 72 0c5 0 9 4 9 9 0 5-4 10-9 10l-82 0 0 0c-10 14-23 23-37 26l-2 0 0 45c0 5-4 9-9 9-5 0-10-4-10-9l0-45-1 0c-14-3-27-12-37-26l-1 0-81 0c-5 0-9-5-9-10 0-5 4-9 9-9l71 0-1-3c-4-11-6-23-6-35 0-2 0-4 0-6l0-2-172 0c-5 0-9-4-9-9 0-5 4-9 9-9l63 0-1-3c-1-3-2-6-2-10 0-17 14-31 31-31 17 0 31 14 31 31 0 4 0 7-1 10l-1 3 55 0 1-2c9-34 34-57 62-57 28 0 53 23 62 57l0 2 56 0-1-3c-1-3-2-6-2-10 0-17 14-31 31-31 17 0 31 14 31 31 0 4 0 7-1 10l-1 3 62 0c5 0 10 4 10 9 0 2-1 5-3 7z m-391-41c-7 0-12 5-12 12 0 7 5 13 12 13 7 0 13-6 13-13 0-7-6-12-13-12z m147-15c-26 0-47 29-47 66 0 36 21 65 47 65 26 0 47-29 47-65 0-37-21-66-47-66z m146 15c-6 0-12 5-12 12 0 7 6 13 12 13 7 0 13-6 13-13 0-7-6-12-13-12z m-127 86l-39 0c-5 0-10-4-10-9 0-6 5-10 10-10l39 0c5 0 9 4 9 10 0 5-4 9-9 9z"/>
<glyph glyph-name="insurance-type-bailees-customers" unicode="&#40;" d="M328 382c-3-8-7-15-13-21l-2-2-48 30 0 20c0 5-4 9-9 9-15 0-28 13-28 28 0 15 13 27 28 27 15 0 27-12 27-27 0-5 4-9 9-9 5 0 9 4 9 9 0 25-20 45-45 45-25 0-46-20-46-45 0-21 14-39 34-45l3 0 0-12-49-30-1 2c-6 6-10 13-13 21l-164-71 35-94 91 34-2-230 223 0-1 230 91-34 34 94z m-72-9l42-26-5-2c-19-8-36-9-37-9-1 0-19 1-37 9l-5 2z m190-133l-99 37 2-238-186 0 1 238-98-37-23 61 132 58 2-2c1-2 2-3 3-5 5-6 11-11 18-16 24-16 50-18 57-18l1 0c5 0 20 1 37 8 7 2 14 6 20 10 7 5 13 10 18 16 1 1 1 1 2 2 0 1 1 2 2 3l1 2 132-58z"/>
<glyph glyph-name="insurance-type-business-garage" unicode="&#41;" d="M465 341l-205 103c-3 1-6 1-8 0l-205-103c-4-1-6-4-6-8l0-34c0-4 2-7 5-8 3-2 6-2 9-1l12 6 0-210-8 0c-5 0-10-4-10-9 0-5 5-9 10-9l394 0c5 0 9 4 9 9 0 5-4 9-9 9l-8 0 0 210 12-6c2-1 6-1 9 1 2 1 4 4 4 8l0 34c0 4-2 7-5 8z m-108-240l0-15-203 0 0 15z m0 36l0-17-203 0 0 17z m0 33l0-15-203 0 0 15z m0 35l0-16-203 0 0 16z m9 18l-221 0c-5 0-9-4-9-9l0-128-51 0 0 220 171 85 170-85 0-220-50 0 0 128c0 5-4 9-10 9z m85 104l0-13-191 96c-1 0-3 1-4 1-2 0-3-1-4-1l-192-96 0 13 196 98z m-263-19l-43 0c-5 0-9-4-9-9l0-43c0-5 4-9 9-9l43 0c5 0 9 4 9 9l0 43c0 5-4 9-9 9z m-10-19l0-24-24 0 0 24z m198 10c0 5-4 9-10 9l-42 0c-5 0-10-4-10-9l0-43c0-5 5-9 10-9l42 0c6 0 10 4 10 9z m-19-10l0-24-24 0 0 24z m-67 19l-68 0c-6 0-10-4-10-9l0-43c0-5 4-9 10-9l68 0c5 0 9 4 9 9l0 43c0 5-4 9-9 9z m-9-19l0-24-50 0 0 24z"/>
<glyph glyph-name="insurance-type-commercial-auto" unicode="&#42;" d="M118 171c-5 0-9-4-9-9 0-5-4-8-8-8-4 0-8 3-8 8 0 4 4 7 8 7 5 0 9 4 9 9 0 5-4 10-9 10-14 0-26-12-26-26 0-15 12-26 26-26 14 0 26 11 26 26 0 5-4 9-9 9z m310 0c-5 0-9-4-9-9 0-5-4-8-8-8-4 0-8 3-8 8 0 4 4 7 8 7 5 0 9 4 9 9 0 5-4 10-9 10-14 0-26-12-26-26 0-15 12-26 26-26 14 0 26 11 26 26 0 5-4 9-9 9z m68 109l-33 56c-12 19-22 30-44 32-1 0-1 0-2 0l-66 0 0 17c0 10-8 18-17 18l-302 0c-10 0-17-8-17-18l0-215c0-10 7-18 17-18l18 0c4-25 26-43 51-43 25 0 47 18 51 43l208 0c4-25 26-43 51-43 25 0 47 18 51 43l26 0c5 0 9 4 9 10l0 114c0 1 0 3-1 4z m-111 11l0 34 63 0 25-42-78 0c0 0-1 0-2 0-4 0-8 4-8 8z m-9 52c-5 0-9-4-9-9l0-43c0-14 11-25 24-26 1-1 2-1 2-1l58 0c-4-4-6-11-6-17l0-17c0-5 4-9 9-9l25 0 0-50-17 0c-4 25-26 43-51 43-25 0-47-18-51-43l-9 0 0 179 61 0c10 0 17-2 23-7z m87-96c0 5 4 8 8 8l8 0 0-16-16 0z m-52-119c-19 0-34 15-34 34 0 18 15 33 34 33 19 0 34-15 34-33 0-19-15-34-34-34z m-78 257l0-214-181 0c-4 25-26 43-51 43-25 0-47-18-51-43l-17 0 0 214z m-232-257c-19 0-34 15-34 34 0 18 15 33 34 33 19 0 34-15 34-33 0-19-15-34-34-34z m-43 222l250 0c5 0 9 4 9 9 0 5-4 9-9 9l-250 0c-5 0-9-4-9-9 0-5 4-9 9-9z"/>
<glyph glyph-name="insurance-type-commercial-building-and-or-property" unicode="&#43;" d="M472 58l-26 0 0 225c16 4 27 18 27 34l0 17 0 0c0 0 0 0 0 0 0 2-1 4-2 6l-25 40 0 58c0 5-4 9-9 9l-26 0c-4 15-18 26-34 26l-242 0c-16 0-30-11-34-26l-27 0c-5 0-9-4-9-9l0-58-25-41c0-1-1-2-1-3 0 0 0 0 0 0 0 0 0 0 0-1 0 0 0 0 0 0 0 0 0 0 0 0l0-18c0-16 11-30 26-34l0-225-25 0c-5 0-9-4-9-9 0-5 4-9 9-9l432 0c5 0 9 4 9 9 0 5-4 9-9 9z m-78 180l0-180-87 0 0 180z m-303 87l0-8c0-9-8-17-17-17-9 0-17 8-17 17l0 8z m286 96l-242 0c-9 0-17 7-17 17 0 9 8 16 17 16l242 0c9 0 17-7 17-16 0-10-8-17-17-17z m-294-34l0 41 18 0c4-15 18-26 34-26l242 0c16 0 30 11 34 26l17 0 0-41-345 0z m371-62l0-8c0-9-7-17-17-17-9 0-16 8-16 17l0 8z m-36 19l-12 24 26 0 15-24z m-15-87l-105 0c-5 0-9-4-9-10l0-189-206 0 0 225c7 2 13 5 17 10 7-7 16-11 26-11 10 0 19 4 26 11 7-7 16-11 26-11 10 0 19 4 26 11 7-7 16-11 26-11 10 0 19 4 26 11 6-7 16-11 26-11 10 0 19 4 26 11 6-7 16-11 26-11 9 0 19 4 26 11 6-7 16-11 26-11 9 0 19 4 25 11 5-5 11-8 17-10l0-225-16 0 0 189c0 6-4 10-9 10z m-138 87l0 24 31 0 2-24z m-150 0l11 24 25 0-6-24z m254-27l0 8 33 0 0-8c0-9-7-17-16-17-10 0-17 8-17 17z m-2 27l-6 24 25 0 11-24z m-52 24l27 0 6-24-31 0z m35-51c0-9-7-17-16-17-10 0-17 8-17 17l0 8 33 0z m-52 0c0-9-7-17-16-17-10 0-17 8-17 17l0 8 33 0z m-51 0c0-9-8-17-17-17-9 0-17 8-17 17l0 8 34 0z m-33 27l2 24 31 0 0-24z m-19-27c0-9-8-17-17-17-9 0-17 8-17 17l0 8 34 0z m-31 27l6 24 27 0-1-24z m-38-44c-9 0-17 8-17 17l0 8 34 0 0-8c0-9-8-17-17-17z m-61 44l14 24 27 0-12-24z m199-87l-155 0c-5 0-9-4-9-10l0-138c0-5 4-9 9-9l155 0c5 0 9 4 9 9l0 138c0 6-4 10-9 10z m-9-19l0-120-137 0 0 120z m70-95c2 0 5 1 7 3 1 2 2 4 2 6 0 3-1 5-2 7-2 2-5 3-7 3-2 0-5-1-6-3-2-2-3-4-3-7 0-2 1-4 3-6 1-2 4-3 6-3z"/>
<glyph glyph-name="insurance-type-epli" unicode="&#44;" d="M306 113l-100 0c-5 0-10-4-10-9 0-5 5-9 10-9l100 0c5 0 9 4 9 9 0 5-4 9-9 9z m133 108l-7 0 2 1c4 2 6 7 5 11l-46 137 6 0c5 0 9 4 9 9 0 5-4 9-9 9l-134 0 0 30 26 0c8 0 14-7 14-14 0-6 5-10 10-10l18 0c5 0 9 4 9 10 0 5-4 9-9 9l-11 0 0 0c-4 14-17 23-31 23l-26 0 0 4c0 5-4 9-9 9-5 0-9-4-9-9l0-4-27 0c-14 0-27-9-31-23l0 0-10 0c-5 0-10-4-10-9 0-6 5-10 10-10l18 0c5 0 9 4 9 10 0 7 6 14 14 14l27 0 0-30-135 0c-5 0-9-4-9-9 0-5 4-9 9-9l6 0-45-137c-2-4 0-9 4-11l3-1-8 0c-5 0-9-5-9-10 0-5 4-9 9-9l4 0 0 0c10-21 32-34 55-34 22 0 44 13 55 34l0 0 3 0c5 0 9 4 9 9 0 5-4 10-9 10l-7 0 2 1c4 2 6 7 5 11l-46 137 104 0 0-225-35 0c-18 0-34-13-39-31l0-1-1 0c-18 0-34-12-39-30l0-1-28 0c-5 0-10-4-10-9 0-5 5-9 10-9l302 0c5 0 9 4 9 9 0 5-4 9-9 9l-28 0-1 1c-4 18-20 30-38 30l-2 0 0 1c-4 18-20 31-39 31l-34 0 0 225 103 0-45-137c-2-4 0-9 4-11l3-1-8 0c-5 0-9-5-9-10 0-5 4-9 9-9l4 0 0 0c10-21 32-34 55-34 23 0 44 13 55 34l0 0 3 0c5 0 9 4 9 9 0 5-4 10-9 10z m-276-20c-8-9-20-15-32-15-12 0-24 6-32 15l-2 1 67 0z m8 26c1-2 3-4 5-5l2-1-95 0 3 1c2 1 3 3 4 5l41 123z m128-101c12 0 22-10 22-22 0-5 4-9 9-9l10 0c8 0 15-5 19-12l0-1-207 0 1 1c4 7 11 12 19 12l9 0c5 0 10 4 10 9 0 12 9 22 21 22z m114 75c-8-9-20-15-32-15-12 0-24 6-32 15l-2 1 67 0z m-80 20l3 1c2 1 3 3 4 5l41 123 40-123c1-2 3-4 5-5l2-1z"/>
<glyph glyph-name="insurance-type-exhibitions" unicode="&#45;" d="M472 192c-54 0-99 34-99 76 0 5-4 9-9 9-5 0-9-4-9-9 0-42-45-76-99-76-55 0-99 34-99 76 0 5-4 9-10 9-5 0-9-4-9-9 0-42-44-76-99-76-5 0-9-4-9-9 0-5 4-9 9-9 40 0 78 16 99 43l0-144-18 0c-5 0-9-4-9-9 0-6 4-10 9-10l55 0c5 0 9 4 9 10 0 5-4 9-9 9l-18 0 0 144c21-27 59-43 99-43 40 0 77 16 99 43l0-144-18 0c-5 0-9-4-9-9 0-6 4-10 9-10l54 0c5 0 10 4 10 10 0 5-5 9-10 9l-18 0 0 144c22-27 60-43 99-43 6 0 10 4 10 9 0 5-4 9-10 9z m-276 92l120 0c5 0 9 4 9 9l0 156c0 5-4 9-9 9l-120 0c-5 0-9-4-9-9l0-156c0-5 4-9 9-9z m9 18l0 138 101 0 0-138-101 0z"/>
<glyph glyph-name="insurance-type-farmowners-multi-peril" unicode="&#46;" d="M316 366c-5 0-9-5-9-10l0-2c0-5 4-9 9-9 5 0 9 4 9 9l0 2c0 5-4 10-9 10z m-247-239c0 0-1 0-2 0-5 0-9-4-9-9 0-5 4-9 9-9l1 0c0 0 1 0 1 0 29 0 53-24 54-53 0-5 4-9 9-9l0 0c5 0 9 5 9 10 0 19-8 36-21 50-14 13-32 20-51 20z m-2 149l270 0c3 0 6 2 8 4 3 5 9 8 16 8 6 0 12-3 15-8 2-2 5-4 8-4l66 0c5 0 9 5 9 10 0 5-4 9-9 9l-62 0c-5 5-11 8-18 10l0 14c4 1 9 3 13 6 6-4 14-7 22-7 21 0 38 17 38 38 0 13-7 25-18 32 0 2 0 4 0 6 0 17-11 32-27 36-1 20-18 35-37 35-20 0-37-15-38-35-16-4-27-19-27-36 0-2 0-4 1-6-12-7-19-19-19-32 0-21 17-38 38-38 8 0 16 3 22 7 4-3 9-5 13-6l0-14c-7-2-13-5-18-10l-266 0c-5 0-9-4-9-9 0-5 4-10 9-10z m249 61c-11 0-19 8-19 19 0 8 5 16 13 18 3 1 5 3 6 5 1 3 1 5 0 8-1 2-2 5-2 7 0 11 9 19 19 19 2 1 5 2 7 4 1 2 2 5 1 7 0 1 0 2 0 3 0 11 9 20 20 20 10 0 19-9 19-20 0-1 0-2 0-3-1-2 0-5 1-7 2-2 5-3 7-4 10 0 19-8 19-19 0-2-1-5-2-7-1-3-1-5 0-8 1-2 3-4 6-5 8-2 13-10 13-18 0-11-8-19-19-19-6 0-11 2-15 7-2 2-4 3-7 3-3 0-6-1-7-3-2-2-4-4-6-5l0 22c0 5-4 10-9 10-6 0-10-5-10-10l0-22c-2 1-4 3-6 5-1 2-4 3-7 3-2 0-5-1-7-3-4-5-9-7-15-7z m-69-3c6 0 10 4 10 9 0 5-4 9-10 9l-186 0c-5 0-9-4-9-9 0-5 4-9 9-9z m-186 57l200 0c5 0 9 4 9 9 0 5-4 10-9 10l-200 0c-5 0-9-5-9-10 0-5 4-9 9-9z m326-9c5 0 9 4 9 10l0 1c0 6-4 10-9 10-5 0-10-4-10-10l0-1c0-6 5-10 10-10z m63-259l-154 0c-5 0-9-4-9-9 0-5 4-9 9-9l154 0c5 0 9 4 9 9 0 5-4 9-9 9z m0 57l-179 0c-5 0-9-4-9-9 0-5 4-9 9-9l179 0c5 0 9 4 9 9 0 5-4 9-9 9z m0 58l-227 0c-5 0-10-5-10-10 0-5 5-9 10-9l227 0c5 0 9 4 9 9 0 5-4 10-9 10z m0-172l-144 0c-6 0-10-4-10-10 0-5 4-9 10-9l144 0c5 0 9 4 9 9 0 6-4 10-9 10z m-377 172c-2 0-4 0-6 0-2 0-5-2-6-3-2-2-3-4-3-7 0-5 4-9 10-9l0 0c2 0 3 0 5 0 90 0 165-73 167-163 0-5 4-9 9-9l0 0c5 0 9 5 9 10-1 48-21 94-55 128-35 34-81 53-130 53z m-2-55c-1 0-3 0-4 0-5 0-9-4-9-9 0-5 4-9 9-9l1 0c1 0 2 0 3 0 60 0 110-49 111-109 0-5 4-9 9-9l1 0c5 0 9 5 9 10-1 34-15 65-39 89-25 24-57 37-91 37z"/>
<glyph glyph-name="insurance-type-fiduciary-bond" unicode="&#47;" d="M206 236l79 25 1-3c1-5 6-8 11-6l12 4 2-6c1-4 6-7 11-6l6 2 2-8c-3-2-6-4-8-8-2-4-2-9-1-13l6-17c4-14 16-23 30-23 3 0 7 1 10 2l90 28c8 3 14 9 18 16 4 8 5 16 2 25l-5 17c-2 7-9 12-17 12-1 0-2 0-3 0l-2 8 5 2c3 1 4 2 6 4 1 2 1 5 0 7l-21 68c-1 2-3 4-5 5-2 2-5 2-7 1l-6-2-2 8c3 2 6 5 8 8 2 4 2 9 1 14l-5 17c-5 13-17 22-31 22-3 0-7 0-10-1l-89-29c-17-5-27-23-21-40l5-17c3-8 9-13 17-13 1 0 2 0 3 0l3-8-6-1c-2-1-4-3-5-5-2-2-2-5-1-7l2-5-12-4c-2-1-4-2-5-5-2-2-2-4-1-6l1-4-79-25 0 0c0 2-2 4-4 6-2 1-5 1-7 0l-171-54c-5-2-7-7-6-12l11-33c1-4 4-6 8-6 1 0 2 0 3 0l171 55c2 0 4 2 5 4 1 2 2 5 1 7z m-20 3l-154-49-5 16 154 49z m123 76l116 37 16-51-116-36-14 44z m39-71l-3 8 87 27 3-7z m9-48c-6 0-11 3-13 9l-5 17 116 37 5-17c1-3 1-7-1-10-2-4-4-6-8-7l-90-29c-1 0-2 0-4 0z m46 177l2-8-87-28-3 8z m-10 48c6 0 11-4 13-10l5-16-115-37-6 16c-2 8 2 15 9 18l90 28c1 1 3 1 4 1z m103-280l-203 0c-5 0-9-4-9-9l0-49c0-5 4-10 9-10l203 0c5 0 9 5 9 10l0 49c0 5-4 9-9 9z m-10-19l0-30-184 0 0 30z"/>
<glyph glyph-name="insurance-type-financial-institutions-bond" unicode="&#58;" d="M458 358l-197 124c-2 1-4 2-5 2-2 0-4-1-5-2l-198-124c-3-2-5-6-4-10 2-4 5-7 9-7l395 0c5 0 9 4 9 9 0 4-1 7-4 8z m-367 2l165 103 0 0 165-103z m392-270c0 5-4 9-9 9l-12 0 0 32c0 5-4 9-9 9l-11 0 0 160 11 0c5 0 9 4 9 9 0 5-4 9-9 9l-395 0c-5 0-9-4-9-9 0-5 4-9 9-9l12 0 0-160-12 0c-5 0-9-4-9-9l0-32-11 0c-5 0-10-4-10-9l0-52c0-5 5-9 10-9l436 0c5 0 9 4 9 9z m-83 210l23 0 0-160-23 0z m-61 0l43 0 0-160-43 0z m-41 0l23 0 0-160-23 0z m-66 0l47 0 0-160-47 0z m-41 0l23 0 0-160-23 0z m-61 0l42 0 0-160-42 0z m-42 0l23 0 0-160-23 0z m377-253l-418 0 0 34 84 0c5 0 10 4 10 9 0 5-5 9-10 9l-63 0 0 23 376 0 0-23-277 0c-6 0-10-4-10-9 0-5 4-9 10-9l298 0 0-34z"/>
<glyph glyph-name="insurance-type-forgery-or-alteration" unicode="&#59;" d="M456 348l27 62-88 39-68-154-311 0 0-232 393 0 0 179 39 88 21-10-30-70 18-8 39 89z m-67-265l-353 0 0 192 282 0-21-47-201 0 0-20 194 0 12-88 87 60z m-27 102l-44-30-8 53 68 153 51-23z m75 171l-51 23 19 44 52-23z m-340-218l151 0 0-20-151 0z m0 46l151 0 0-20-151 0z"/>
<glyph glyph-name="insurance-type-money-orders-and-counterfeit-money" unicode="&#60;" d="M402 299c2 0 3 1 5 2l79 50c3 1 4 4 4 8 0 3-2 6-5 8l-172 98c-3 1-7 1-10 0l-277-175c-3-2-5-5-5-8 0-3 2-6 5-8l173-98c3-2 7-2 9 0l79 50c2 1 4 3 4 5 1 3 1 5-1 8-1 2-4 4-8 4-1 0-3-1-5-2l-74-46-1 0-153 87 93 59 1 0 162-93 0-122c0-4 2-7 5-8 3-2 7-2 9 0l56 35c3 1 4 4 4 8l0 128c0 0 0 0 0 1 0 0 0 0 0 1l0 0 0 0c0 1 0 1-1 1 0 1 0 1 0 1l0 0c0 1-1 1-1 1 0 1 0 1-1 1 0 1 0 1 0 1-1 0-1 1-2 1l-159 90 93 59 1-1 154-87-66-41c-4-3-6-9-3-13 2-3 5-5 8-5z m-50-11l-15-9c-3-2-4-4-5-6 0-3 0-5 2-7 1-3 4-5 8-5 1 0 3 1 4 2l15 9 0-106-37-23 0 111c0 3-2 6-5 8l-159 90 37 24 1 0z m137 33c-2 3-5 4-8 4-2 0-4 0-5-1l-79-50c-4-3-6-9-3-13 2-3 5-4 8-4 2 0 3 0 5 1l79 50c4 3 5 8 3 13z m-198-132c1 2 1 5-1 7-1 3-4 4-8 4-1 0-3 0-5-1l-74-47-1 0-167 95c-1 1-3 2-4 2-4 0-7-2-8-5-2-2-2-5-1-7 0-3 2-5 4-6l173-98c3-2 7-2 9 0l79 50c2 1 4 3 4 6z m198 89c-2 3-5 4-8 4-2 0-4 0-5-1l-79-50c-4-2-6-8-3-13 2-2 5-4 8-4 2 0 3 1 5 2l79 49c4 3 5 9 3 13z m-198-132c1 3 1 5-1 7-1 3-4 5-8 5-1 0-3-1-5-2l-74-47-1 1-167 95c-1 1-3 1-4 1-4 0-7-2-8-5-2-2-2-4-1-7 0-2 2-4 4-5l173-99c3-1 7-1 9 1l79 49c2 2 4 4 4 6z m198 89c-2 3-5 5-8 5-2 0-4-1-5-2l-79-49c-4-3-6-9-3-13 2-3 5-5 8-5 2 0 3 1 5 2l79 50c4 2 5 8 3 12z m-198-132c1 3 1 5-1 8-1 2-4 4-8 4-1 0-3-1-5-2l-74-46-1 0-167 95c-1 1-3 1-4 1-4 0-7-1-8-4-2-3-2-5-1-7 0-3 2-5 4-6l173-98c3-2 7-2 9 0l79 50c2 1 4 3 4 5z"/>
<glyph glyph-name="insurance-type-motor-carriers-liability-and-physical-damage" unicode="&#61;" d="M132 182c-5 0-9-4-9-9 0-5-4-9-9-9-5 0-9 4-9 9 0 5 4 9 9 9 5 0 9 4 9 9 0 5-4 9-9 9-15 0-27-12-27-27 0-15 12-28 27-28 15 0 28 13 28 28 0 5-5 9-10 9z m283 0c-5 0-9-4-9-9 0-5-4-9-9-9-5 0-9 4-9 9 0 5 4 9 9 9 5 0 9 4 9 9 0 5-4 9-9 9-15 0-27-12-27-27 0-15 12-28 27-28 15 0 28 13 28 28 0 5-5 9-10 9z m75 45c0 2-1 3-1 5-3 14-12 26-25 34-13 9-31 14-49 14l-64 0-26 49c-7 12-18 20-31 23l0 13c0 17-14 31-31 31l-58 0c-17 0-31-14-31-31l0-13-7 0c-15 0-30-8-38-20l-31-38c-4-1-8-2-12-2l-1 0c-18-3-32-5-43-9-5-2-20-8-20-27l0-58c0-21 17-38 37-38 6-25 29-44 55-44 26 0 49 19 55 44l173 0c6-25 29-44 55-44 26 0 49 19 55 44l29 0c5 0 9 4 9 9l0 51c0 2 0 3 0 5 0 1 0 2 0 2z m-285 151l58 0c7 0 13-6 13-13l0-13-84 0 0 13c0 7 6 13 13 13z m192-243c-21 0-38 17-38 38 0 21 17 38 38 38 21 0 38-17 38-38 0-21-17-38-38-38z m-283 0c-21 0-38 17-38 38 0 21 17 38 38 38 21 0 38-17 38-38 0-21-17-38-38-38z m-52 114c0 7-3 14-9 18 8 2 19 4 35 7 5 0 11 1 17 2 2 1 4 2 6 4l33 41c0 0 0 0 0 1 5 7 14 12 23 12l118 0c5 0 9-1 13-3l-125 0c-8 0-15-4-19-11l-12-20c-5-8-6-18-1-26 4-8 13-12 22-12l180 0c0 0 1 0 1 0 1 0 1 0 2 0l69 0c9 0 18-2 26-5-4-4-6-9-6-15 0-13 11-24 24-24l12 0 0-40-18 0c-3 29-27 51-56 51-29 0-53-22-56-51l-171 0c-2 29-27 51-56 51-29 0-53-22-56-51-10 1-18 10-18 20l0 27c12 1 22 12 22 24z m101 31c-3 0-5 1-6 3-1 3-1 5 0 7l12 20c1 2 3 2 4 2l140 0 17-32-167 0z m-123-36l0 10c2-1 3-3 3-5 0-2-1-4-3-5z m419-8c-3 0-5 3-5 6 0 3 2 5 5 5 0 0 0 0 0 0 4-3 7-7 9-11z m-248 121c2 0 4 0 6 2 1 1 2 3 2 6 0 2-1 4-2 5-3 3-9 3-12 0-1-1-2-3-2-5 0-3 1-5 2-6 2-2 4-2 6-2z m23 0c2 0 4 0 5 2 2 1 3 3 3 6 0 2-1 4-3 5-3 3-8 3-11 0-1-1-2-3-2-5 0-3 1-5 2-6 2-2 4-2 6-2z m22 0c2 0 4 0 6 2 1 1 2 3 2 6 0 2-1 4-2 5-3 3-8 3-11 0-2-1-3-3-3-5 0-3 1-5 3-6 1-2 3-2 5-2z"/>
<glyph glyph-name="insurance-type-ocean-marine" unicode="&#62;" d="M506 265c-2 3-5 4-8 4l-40 0 0 19c0 5-4 9-9 9l-28 0 0 37c0 5-5 9-10 9l-36 0 0 37c0 6-4 10-9 10l-92 0c-5 0-9-4-9-10l0-37-37 0c-5 0-9-4-9-9l0-37-28 0c-5 0-9-4-9-9l0-36-38 0 0 100c0 6-4 10-9 10l-111 0c-5 0-9-4-9-10l0-100-1 0c-4 0-7-2-8-5-2-3-2-7 0-9l56-95c7-11 22-20 36-20l305 0c13 0 29 9 36 20l67 112c1 3 1 7 0 10z m-67 4l-64 0 0 10 64 0z m-83 10l0-10c-15-1-26-11-31-17l-42 0 0 27 73 0 0 0z m46 18l-74 0 0 28 74 0z m-119 74l73 0 0-28-73 0z m-46-46l73 0 0-28-73 0z m-37-46l65 0 0-27-65 0z m-166 64l92 0 0-18-19 0c-5 0-9-4-9-9 0-5 4-9 9-9l19 0 0-19-19 0c-5 0-9-4-9-9 0-5 4-9 9-9l19 0 0-18-92 0z m389-190c-4-6-13-12-20-12l-305 0c-7 0-17 6-20 12l-48 80 299 0c3 0 6 2 8 4 0 0 9 14 22 14l88 0c1 0 1 0 2 0 0 0 1 0 1 0l32 0z m-343 172c-3 0-5-1-7-2-2-2-2-4-2-7 0-2 0-5 2-6 2-2 4-3 7-3 2 0 5 1 6 3 2 1 3 4 3 6 0 3-1 5-3 7-1 1-4 2-6 2z m-28 0c-2 0-4-1-6-2-2-2-3-4-3-7 0-2 1-5 3-6 2-2 4-3 6-3 3 0 5 1 7 3 2 1 3 4 3 6 0 3-1 5-3 7-2 1-4 2-7 2z m28-37c-3 0-5-1-7-2-2-2-2-5-2-7 0-2 0-5 2-6 2-2 4-3 7-3 2 0 5 1 6 3 2 1 3 4 3 6 0 2-1 5-3 7-1 1-4 2-6 2z m-28 0c-2 0-4-1-6-2-2-2-3-5-3-7 0-2 1-5 3-6 2-2 4-3 6-3 3 0 5 1 7 3 2 1 3 4 3 6 0 2-1 5-3 7-2 1-4 2-7 2z m93-74c-3 0-5-1-7-2-2-2-3-4-3-7 0-2 1-5 3-6 2-2 4-3 7-3 2 0 4 1 6 3 2 1 3 4 3 6 0 3-1 5-3 7-2 1-4 2-6 2z m36 0c-2 0-4-1-6-2-2-2-3-4-3-7 0-2 1-5 3-6 2-2 4-3 6-3 3 0 5 1 7 3 2 1 3 4 3 6 0 3-1 5-3 7-2 1-4 2-7 2z m37 0c-2 0-4-1-6-2-2-2-3-4-3-7 0-2 1-5 3-6 2-2 4-3 6-3 3 0 5 1 7 3 2 1 3 4 3 6 0 3-1 5-3 7-2 1-4 2-7 2z m37 0c-2 0-4-1-6-2-2-2-3-4-3-7 0-2 1-5 3-6 2-2 4-3 6-3 3 0 5 1 7 3 2 1 3 4 3 6 0 3-1 5-3 7-2 1-4 2-7 2z m37 0c-2 0-4-1-6-2-2-2-3-4-3-7 0-2 1-5 3-6 2-2 4-3 6-3 3 0 5 1 7 3 2 1 3 4 3 6 0 3-1 5-3 7-2 1-4 2-7 2z m37 0c-2 0-4-1-6-2-2-2-3-4-3-7 0-2 1-5 3-6 2-2 4-3 6-3 3 0 5 1 7 3 2 1 3 4 3 6 0 3-1 5-3 7-2 1-4 2-7 2z"/>
<glyph glyph-name="insurance-type-product-recall" unicode="&#63;" d="M456 382l-82 75-1 1c0 0-1 1-2 1l0 0c0 0 0 0-1 0 0 0-1 1-2 1l-1 0-315 0 0-315 0-1c0-1 1-2 1-3l0 0c0-1 1-2 2-3l0 0 76-82c1-1 1-2 2-2l2-1 0 0 324 0 0 326c-1 1-2 3-3 3z m-92 59l18-16-282 0-16 16z m-229-362l-64 69 0 280 21-21 0-117 22-18 0 113 21-21z m-11 322l284 0 26-24-286 0z m317-330l-288 0 0 288 288 0z m-118 188l16 0c27 0 49-22 49-49 0-25-19-46-43-48l2 1c4 2 5 8 3 12-2 4-8 6-12 3l-32-18c-2-1-4-4-4-7 0-4 2-7 4-8l32-18c1-1 3-1 4-1 3 0 6 1 8 4 1 2 1 5 1 7-1 2-2 4-4 5l-3 2c35 2 62 31 62 66 0 37-30 67-67 67l-16 0c-5 0-9-4-9-9 0-5 4-9 9-9z m-61-115l16 0c5 0 9 4 9 9 0 4-4 8-9 8l-16 0c-27 0-49 22-49 49 0 26 19 46 44 49l-2-1c-2-1-4-3-4-5-1-3-1-5 1-7 2-4 8-6 12-4l31 19c3 1 4 4 4 7 0 3-1 6-4 8l-31 18c-4 2-10 1-12-3-3-4-1-10 3-12l3-2c-35-2-63-31-63-67 0-36 30-66 67-66z"/>
<glyph glyph-name="insurance-type-public-officials-liability" unicode="&#91;" d="M256 456c-21 0-38-17-38-38 0-21 17-38 38-38 21 0 38 17 38 38 0 21-17 38-38 38z m0-57c-11 0-20 9-20 19 0 11 9 20 20 20 10 0 19-9 19-20 0-10-9-19-19-19z m0-2c-37 0-67-30-67-67 0-5 4-9 9-9 6 0 10 4 10 9 0 27 21 48 48 48 26 0 48-21 48-48 0-5 4-9 9-9 5 0 10 4 10 9 0 37-30 67-67 67z m124-86l-115 0 0 38c0 6-4 10-9 10-5 0-10-4-10-10l0-38-115 0c-5 0-9-4-9-9 0-5 4-10 9-10l30 0 0 0 13-170c1-5 5-9 10-9 0 0 0 0 0 0 3 0 5 1 7 3 1 2 2 5 2 7l-13 169 152 0 0 0-13-169c-1-2 0-5 2-7 1-2 4-3 6-3 0 0 1 0 1 0 5 0 9 4 9 9l14 170 29 0c5 0 9 5 9 10 0 5-4 9-9 9z m-124-120c-21 0-38-17-38-38 0-21 17-38 38-38 21 0 38 17 38 38 0 21-17 38-38 38z m0-57c-11 0-20 9-20 19 0 11 9 20 20 20 10 0 19-9 19-20 0-10-9-19-19-19z m0-2c-37 0-67-30-67-66 0-6 4-10 9-10 6 0 10 4 10 10 0 26 21 48 48 48 26 0 48-22 48-48 0-6 4-10 9-10 5 0 10 4 10 10 0 36-30 66-67 66z m144 59c-21 0-38-17-38-38 0-21 17-38 38-38 21 0 38 17 38 38 0 21-17 38-38 38z m0-57c-10 0-19 9-19 19 0 11 9 20 19 20 11 0 20-9 20-20 0-10-9-19-20-19z m0-2c-37 0-67-30-67-66 0-6 5-10 10-10 5 0 9 4 9 10 0 26 22 48 48 48 27 0 48-22 48-48 0-6 4-10 10-10 5 0 9 4 9 10 0 36-30 66-67 66z m-289 59c-21 0-38-17-38-38 0-21 17-38 38-38 21 0 38 17 38 38 0 21-17 38-38 38z m0-57c-10 0-19 9-19 19 0 11 9 20 19 20 11 0 20-9 20-20 0-10-9-19-20-19z m0-2c-36 0-66-30-66-66 0-6 4-10 9-10 5 0 9 4 9 10 0 26 22 48 48 48 27 0 48-22 48-48 0-6 5-10 10-10 5 0 9 4 9 10 0 36-30 66-67 66z"/>
<glyph glyph-name="insurance-type-crime" unicode="&#93;" d="M183 345c-5 0-8-4-8-9 0-5 3-8 8-8 5 0 9 3 9 8 0 5-4 9-9 9z m-27-20c-5 0-9-3-9-8 0-5 4-9 9-9 4 0 8 4 8 9 0 5-4 8-8 8z m-3 21c0 4-4 8-8 8-5 0-9-4-9-8 0-5 4-9 9-9 4 0 8 4 8 9z m316-47c-7 7-14 11-21 15-16 9-34 20-64 63l-4 5-34-9c-24 24-56 37-90 37-34 0-66-13-91-37l-34 9-3-5c-31-43-48-54-64-63-7-4-14-8-22-15-42-37-51-99-21-146 18-27 45-45 76-50 1 0 4 0 4 0 3 0 6-1 9-1 33 0 63 14 85 38 35 41 38 99 6 141l21 77-35 10c19 15 44 24 69 24 25 0 49-9 69-24l-36-10 22-77c-32-42-30-100 6-141 21-24 52-38 85-38 3 0 7 1 10 1 1 0 4 1 5 1 30 5 56 23 73 49 31 47 22 109-21 146z m-65-175c-1 2-2 4-2 6 1 4 3 7 7 7 19 3 37 13 49 29 13 15 18 35 16 56-2 20-12 38-28 50-3 3-25 21-63 21-17 0-35-4-53-11-2 7-12 43-18 63l60 16c31-42 50-53 66-63 7-4 13-7 19-13 35-31 43-83 18-122-15-22-37-37-64-41-2-1-5 0-7 2z m-19-1c-21 3-40 14-54 30-28 31-32 74-11 109 3-1 7-1 10 0 4 2 7 3 10 4-12-14-19-32-19-50 0-38 27-70 64-77-1-3-1-5-1-8 0-3 0-6 1-8z m3 151c29-1 45-15 46-16l0 0c12-10 20-23 22-39 1-15-3-30-13-42-7-10-18-17-30-20-6-1-13-1-13-1-33 0-60 27-60 60 0 28 20 53 48 58z m-320-97c-20 25-16 61 9 81l1 0c0 0 4 4 13 8 7 3 18 7 33 8 27-6 48-30 48-58 0-33-27-60-60-60-2 0-8 0-14 1-12 3-22 10-30 20z m61 116c-39 0-61-18-63-21-33-26-39-74-13-106 13-16 30-26 50-29 3 0 6-3 6-7 0-2 0-4-2-6-2-2-4-3-7-2-26 4-49 19-63 41-25 39-18 91 17 122 7 5 13 9 19 13 17 10 36 21 66 63l60-16c-5-20-15-56-17-63-18 7-36 11-53 11z m-2-171c1 3 1 6 1 9 0 3-1 5-2 8 37 7 64 39 64 77 0 18-6 36-18 50 3-1 6-2 9-4 3-1 7-1 10 0 21-35 17-78-10-109-14-16-33-27-54-31z m201 223c-4 0-8-4-8-9 0-5 4-8 8-8 5 0 9 3 9 8 0 5-4 9-9 9z m28-20c-5 0-9-3-9-8 0-5 4-9 9-9 4 0 8 4 8 9 0 5-4 8-8 8z m11 29c-5 0-9-4-9-8 0-5 4-9 9-9 5 0 8 4 8 9 0 4-3 8-8 8z"/>
<glyph glyph-name="insurance-type-cyber-liability-and-data-breach" unicode="&#94;" d="M256 128c5 0 9 5 9 10l0 28 4 3c9 5 14 14 14 23 0 16-12 28-27 28-15 0-27-12-27-28 0-9 5-18 13-23l5-3 0-28c0-5 4-10 9-10z m135 137c0 16-12 28-27 28l-9 0 0 64c0 55-45 100-99 100-55 0-99-45-99-100l0-64-9 0c-15 0-27-12-27-28l0-182c0-15 12-28 27-28l216 0c15 0 27 13 27 28z m-216 92c0 45 36 81 81 81 44 0 81-36 81-81l0-64-162 0z m198-283l-234 0 0 200 234 0z"/>
<glyph glyph-name="insurance-type-employee-benefits-liability" unicode="&#123;" d="M19 210c-9 0-17 8-17 17 0 9 8 17 17 17 9 0 17-8 17-17 0-9-8-17-17-17z m0 29c-6 0-12-5-12-12 0-6 6-12 12-12 7 0 12 6 12 12 0 7-5 12-12 12z m12-12c0-6-5-12-12-12-6 0-12 6-12 12 0 7 6 12 12 12 7 0 12-5 12-12z m335 92c-2 1-4 2-7 2-2 0-5-1-6-2l-35-35c-2-2-3-5-3-7 0-2 1-5 3-7 3-3 9-3 13 0l35 36c3 3 3 9 0 13z m61 5c-3 0-5-1-7-3l-70-70c-3-4-3-10 0-13 4-4 10-4 13 0l70 70c2 2 3 4 3 7 0 2-1 4-3 6-1 2-4 3-6 3z m82-23c0 2-1 5-3 6l-119 120c-3 3-9 3-13 0l-43-43-144 0c-32 0-63-15-83-40l-1-1-25 0 0 20c0 5-5 9-10 9l-52 0c-5 0-9-4-9-9 0-5 4-9 9-9l43 0 0-167-43 0c-5 0-9-4-9-9 0-5 4-9 9-9l52 0c5 0 10 4 10 9l0 31 25 0 1-1c20-24 51-39 83-39l15 0 83-83c3-4 9-4 13 0l208 208c2 2 3 4 3 7z m-332-113c-25 3-47 16-62 36-1 2-4 4-7 4l-30 0 0 97 30 0c3 0 6 1 7 4 17 22 44 36 72 36l126 0-74-74-2 1c-10 8-18 17-26 27-3 4-9 4-13 2-2-2-3-4-3-6-1-3 0-5 1-7 22-30 54-49 90-55 8-1 14-9 13-18-2-8-9-14-18-12-32 5-62 19-86 41-4 3-10 3-13-1-4-4-3-9 0-13 2-2 5-3 7-5l2-2-25-25c-2-2-3-4-3-6 0-3 1-5 3-7l17-18z m308 111l-194-194-106 107 21 20 1-1c22-14 46-23 71-27 2 0 4 0 5 0 17 0 31 12 34 29 1 8-1 17-6 25-6 7-13 12-22 13-11 2-21 5-31 9l-3 2 126 125 106-106z"/>
<glyph glyph-name="insurance-type-employee-dishonesty" unicode="&#124;" d="M350 314l0 100c0 19-15 34-34 34l-215 0c-18 0-34-15-34-34l0-309c0-19 16-35 34-35l171 0c-1 3-1 6-1 9l0 10-170 0c-8 0-15 7-15 16l0 309c0 8 7 15 15 15l215 0c9 0 16-7 16-15l0-108c6 3 12 6 18 8z m-110 58l-90 0c-5 0-9-4-9-9 0-5 4-10 9-10l90 0c5 0 9 5 9 10 0 5-4 9-9 9z m27-69l-117 0c-5 0-9-4-9-9 0-5 4-10 9-10l117 0c6 0 10 5 10 10 0 5-4 9-10 9z m0-69l-117 0c-5 0-9-4-9-9 0-5 4-10 9-10l117 0c6 0 10 5 10 10 0 5-4 9-10 9z m-117-88l117 0c2 0 3 1 4 1l0 17c-1 1-2 1-4 1l-117 0c-5 0-9-4-9-9 0-6 4-10 9-10z m294 38c0 7-5 12-11 14l-4 0 0 30c0 30-24 54-54 54-30 0-54-24-54-54l0-30-3 0c-7-2-12-7-12-14l0-105c0-8 6-14 14-14l110 0c8 0 14 6 14 14l0 105z m-51-65c0-10-8-18-18-18-10 0-18 8-18 18l0 24c0 10 8 18 18 18 10 0 18-8 18-18z m14 79l-64 0 0 30c0 18 14 32 32 32 18 0 32-14 32-32z"/>
<glyph glyph-name="insurance-type-environmental-impairment" unicode="&#125;" d="M258 72c0 5-4 9-9 9 0 0 0 0 0 0-4 0-7 0-10 0-42 0-83 14-115 40-32 26-55 63-63 105 0 0-1 1-1 2 0 1-1 2-2 3-1 1-2 1-4 2-1 0-2 0-2 0l-1 0c-1 0-2 0-3 0-1-1-2-2-3-3-1-1-2-2-2-3-1-1-1-1-1-2l-8-58c-1-5 3-10 8-10 5-1 10 3 11 8l2 17 1-2c13-30 35-57 61-77 35-26 78-41 122-41 4 0 7 0 11 0 5 1 9 5 8 10z m176-8c4 11 8 23 12 35 4 10 8 22 13 36 14 42 22 67 17 94-1 11-6 23-13 37-3 5-12 8-16 9-2 0-4 0-6-2l-1 0 0 1c-1 6-4 13-9 23-6 14-14 23-24 26-4 2-9 2-13 1l-1 0 0 1c0 4-1 6-1 9 0 3-2 7-5 8 0 0-1 0-1 0-17 7-32 3-44-10-12-12-13-34-14-56-1-17-8-45-14-65-2-8-7-12-10-12l0 0c-1 0-2 1-3 3-1 2-2 3-3 5-1 2-1 5-2 8-2 4-3 10-6 15-6 12-13 20-20 25-6 4-13 6-20 6-1 0-1 0-1 0-7 0-13-3-17-8-6-6-10-17-9-29 0-6 4-19 6-24 5-11 8-20 11-28 8-20 14-38 28-58 2-3 5-6 7-9 6-7 13-14 14-32l0-1c0-13 10-23 22-23l103 0c0 0 1 0 1 0 9 1 16 6 19 15z m-18 6c0-2-1-2-2-2-1 0-1 0-1 0l-102 0c-2 0-3 1-3 4l0 0c0 0 0 1 0 1-1 25-12 37-19 44-2 3-4 5-6 7-12 19-18 34-25 54-3 8-7 18-12 29-1 4-4 15-4 18-1 7 1 13 4 16 1 1 2 1 3 1 0 0 1 0 1 0 4 0 7-1 9-2 5-3 10-10 15-19 1-3 3-8 4-12l0 0c1-3 2-6 3-9 1-3 2-5 3-7 5-8 12-12 20-12 1 0 1 0 2 0 11 1 21 11 26 24 3 10 14 46 15 70 0 18 1 37 8 44 6 7 12 9 19 8l0 0 0-1c0-4 1-9 2-15l0 0c2-18 4-40 1-54-5-24-10-45-14-57-1-5 1-11 6-12 1 0 2 0 3 0 4 0 8 2 9 6 4 14 9 34 14 59 3 15 2 35 0 52l0 1 0 0c2 0 3 0 4 0 1 0 2 0 2 0 5-2 9-7 13-16 9-21 9-22 8-34-1-2-1-4-1-6-2-7-3-14-4-20l0 0c-3-15-5-28-9-40-1-5 1-10 6-12 1 0 2 0 3 0 4 0 8 3 9 6 4 13 6 28 9 43 1 6 3 12 4 19 0 3 1 5 1 8 0 1 1 2 1 3l0 1 0 0c1-1 2-1 4-2 0 0 1 0 2-1l0 0 0 0c6-11 10-20 11-29 3-23-4-46-17-85-4-14-8-25-12-36-4-12-8-23-13-35z m-30 330l-1 1c-38 40-91 63-146 63-14 0-27-2-41-5-83-17-146-84-158-168-1-5 3-10 8-11 0 0 1 0 1 0 5 0 9 4 10 8 10 76 68 138 143 153 12 3 25 4 37 4 58 0 113-28 148-75l0-1c1-1 2-2 3-2 1-1 2-1 3-1 2 0 3 0 4 0l0 0 1 0c0 1 1 1 2 2 1 0 2 1 2 3 1 1 1 2 1 3l1 1 2 58c0 3 0 5-2 7-2 2-4 3-7 3 0 0 0 0 0 0-5 0-9-4-9-9z m-149-275l0 0 0 1c-15 15-42 70-42 135 0 10 0 20 1 29l0 0 1 0c28-2 57-2 86 0l0 1 0-1c1-6 1-11 1-17 0-5 4-9 9-9l1 0c5 1 9 5 9 10-1 36-8 70-18 95-3 8-6 14-10 19l-1 2 2-1c21-6 40-17 56-32 1-1 4-2 6-2 3 0 5 1 7 3 3 3 3 9 0 13-29 27-66 42-105 42-84 0-152-68-152-152 0-80 62-146 142-151 0 0 0 0 0 0 0 0 0 0 1 0 1 0 2 0 3 0 1 1 2 2 3 3 1 0 2 1 2 2l0 1 0 0c1 1 1 1 1 2 0 0 0 0 0 1l0 0c0 1 0 2-1 4 0 1-1 2-2 2z m3 269c17 0 34-35 41-84l0-1-1 0c-13-1-27-2-41-2-13 0-27 1-40 2l-1 0 0 1c8 55 27 84 42 84z m-117-69c17 31 46 55 80 64l2 1-1-2c-11-17-20-44-24-76l0-1-1 0c-19 3-38 8-56 13l0 0z m-14-90l0 1c-2 8-2 17-2 25 0 16 2 31 8 46l0 0 0 0c20-6 41-11 62-14l1 0 0-1c-1-10-2-20-2-31 0-13 1-27 4-41l0-1-1 0c-24 4-47 9-69 16z m100-103c-43 10-77 40-93 81l-1 1 2 0c21-7 43-11 66-14l1 0 0-1c5-24 14-48 25-66l1-1z"/>
<glyph glyph-name="insurance-type-general-liability" unicode="&#126;" d="M248 103l16 0c6 0 12 5 12 12l0 15c0 7-6 12-12 12l-16 0c-7 0-12-5-12-12l0-15c0-7 5-12 12-12z m6 321c0 0 0 0 0 0 0 0 0 0 0 0z m1 0c0 0 0 0 0-1 0 1 0 1 0 1z m-1 0c-1 0-1 0-1 0 0 0 0 0 0 0 0 0 0 0 1 0z m9-94l-15 0c-3 0-6-1-8-3-2-2-3-5-3-8l9-138c0-7 6-12 12-12 6 0 11 5 11 12l6 138c0 3-1 6-3 8-2 2-5 3-9 3z m-13 93c0 0 0 0 0 0 0 0 0 0 0 0z m239-343l-221 369c-3 6-9 9-15 9-6 0-12-3-16-10l-215-368c-3-6-4-12-1-18 3-5 9-8 17-8l436 0c7 0 13 3 16 9 3 5 3 11-1 17z m-25-3c-1-3-4-4-8-4l-401 0c-3 0-6 1-8 4-2 3-1 6 0 9l198 338c2 4 5 5 8 5 3 0 6-1 8-5l203-338c2-3 2-6 0-9z m-213 347c0 0 0 0 0 0 0 0 0 0 0 0z m1 0c0 0 0 0 0 0 0 0 0 0 0 0z"/>
<glyph glyph-name="insurance-type-golf-carts" unicode="&#92;" d="M133 163c0 0-1 0-1 0-9 0-16-6-16-14-1-5 0-9 3-12 3-4 7-6 11-6 1 0 1 0 2 0 8 0 15 6 16 14 0 5-1 9-4 12-2 4-6 6-11 6z m271 0c0 0-1 0-1 0-9 0-16-6-17-14 0-5 1-9 4-12 3-4 7-6 11-6 1 0 1 0 2 0 8 0 15 6 16 14 0 5-1 9-4 12-2 4-6 6-11 6z m77 105l-7 0 0 30c0 5-4 8-8 8l-23 0 0 100 23 0c5 0 9 4 9 8l0 2c0 5-4 9-9 9l-382 0c-15 0-14-9-14-9-1-2 0-5 2-7 1-2 3-3 6-3l54 0 0-116c-52-4-94-48-94-102l0-21-7 0c-5 0-9-4-9-9l0-23c0-4 4-8 9-8l45 0c8-21 26-36 49-39 3 0 5 0 7 0 25 0 47 16 55 39l160 0c7-21 26-36 49-39 2 0 5 0 7 0 25 0 47 16 55 39l23 0c4 0 8 4 8 8l0 125c0 4-4 8-8 8z m-24 0l-46 0 0 22 46 0z m-31 138l0-100-23 0c-5 0-9-3-9-8l0-30-74 0c-5 0-9-4-9-8l0-54-65 0-54 44c6 4 9 10 9 18 0 12-10 22-22 22l-30 0 0 116z m-371-218c0 47 38 85 85 85l39 0c3 0 6-2 6-5 0-3-3-6-6-6l-6 0c-5 0-9-4-9-8 0-3 2-6 5-8l69-56 0 0c1-1 3-1 5-1l77 0c4 0 8 4 8 8l0 54 144 0 0-84-13 0c-8 20-27 36-50 39-2 0-4 0-6 0-26 0-48-16-56-39l-159 0c-8 20-27 36-50 39-2 0-4 0-6 0-26 0-48-16-56-39l-21 0 0 21z m119-46c-2-21-20-37-42-37-2 0-3 0-5 0-23 2-40 23-37 47 2 21 20 37 42 37 1 0 3 0 4 0 24-2 40-23 38-47z m271 0c-2-21-21-37-42-37-2 0-3 0-5 0-23 2-40 23-37 47 2 21 20 37 42 37 1 0 3 0 4 0 24-2 40-23 38-47z"/>
<glyph glyph-name="insurance-type-guests-property" unicode="&#57344;" d="M428 437c0 5-4 9-9 9l-326 0c-6 0-10-4-10-9l0-360c0 0 0 0 0 0 0-1 0-1 0-1 0-5 4-10 10-10l326 0c5 0 9 5 9 10z m-18-352l-308 0 0 233 308 0 0-233z m0 252l-308 0 0 91 308 0 0-91z m-238 31c0 0 1 0 2 0l12-7-2 14c-1 1 0 3 1 3l10 10-14 2c-1 0-3 1-3 2l-6 13-7-13c0-1-1-2-3-2l-13-2 10-10c0 0 1-2 1-3l-3-14 13 7c0 0 1 0 2 0z m84 0c0 0 1 0 2 0l12-7-2 14c-1 1 0 3 1 3l10 10-14 2c-1 0-2 1-3 2l-6 13-6-13c-1-1-2-2-4-2l-13-2 10-10c1-1 1-2 1-3l-3-14 13 7c0 0 1 0 2 0z m84 0c1 0 1 0 2 0l12-7-2 14c0 1 0 3 1 3l10 10-14 2c-1 0-2 1-3 2l-6 13-6-13c-1-1-2-2-3-2l-14-2 10-10c1-1 1-2 1-3l-2-14 12 7c1 0 1 0 2 0z m-15-101c0 5-4 9-10 9-5 0-9-4-9-9l0-57-101 0 0 57c0 5-4 9-9 9-5 0-9-4-9-9l0-135c0-5 4-9 9-9 5 0 9 4 9 9l0 59 101 0 0-59c0-5 4-9 9-9 6 0 10 4 10 9z"/>
<glyph glyph-name="insurance-type-hangarkeepers-legal-liability" unicode="&#57345;" d="M493 365l-198 0 0 6c0 5-4 9-9 9-5 0-9-4-9-9l0-6-197 0c-5 0-9-4-9-9 0-5 4-9 9-9l197 0 0-20-29 0c-13 0-24-11-24-23l-30 0c-9 0-16-8-16-17l0-6-59 0c-5 26-28 46-55 46-30 0-55-25-55-55 0-31 25-55 55-55 27 0 50 19 55 45l59 0 0-6c0-26 21-47 47-47l9 0c2 0 3-1 4-2l16-16c14-13 31-20 50-20l12 0 0-21-76 0c-5 0-9-4-9-9 0-5 4-9 9-9l215 0c13 0 24 11 24 25 0 5-4 9-9 9-5 0-9-4-9-9 0-4-3-7-6-7l-37 0 0 21 37 0c18 0 32 14 32 32l0 7c0 16-11 29-26 32l-12 23c-12 24-36 39-63 39l-37 0c-1 12-11 23-24 23l-30 0 0 20 198 0c5 0 9 4 9 9 0 5-4 9-9 9z m-93-194l0-21-66 0 0 21z m-22 71c-7 0-14 7-14 14l0 29 22 0c20 0 38-11 47-28l7-15z m0-18l77 0c7 0 14-6 14-14l0-7c0-8-7-14-14-14l-151 0c-14 0-27 5-37 15l-16 16c-4 5-10 7-17 7l-9 0c-16 0-29 13-29 29l0 29 150 0 0-29c0-17 15-32 32-32z m-136 80c1 2 3 4 6 4l77 0c3 0 5-2 6-4z m-187-32c0-5 4-10 9-10l36 0c-4-16-19-27-36-27-20 0-37 16-37 37 0 20 17 36 37 36 17 0 32-11 36-27l-36 0c-5 0-9-4-9-9z"/>
<glyph glyph-name="insurance-type-inland-marine" unicode="&#57346;" d="M117 171c-5 0-9-4-9-9 0-4-4-8-9-8-4 0-8 4-8 8 0 5 4 9 8 9 6 0 10 4 10 9 0 5-4 9-10 9-14 0-26-12-26-27 0-15 12-27 26-27 15 0 27 12 27 27 0 5-4 9-9 9z m90 0c-5 0-10-4-10-9 0-4-3-8-8-8-5 0-8 4-8 8 0 5 3 9 8 9 5 0 9 4 9 9 0 5-4 9-9 9-15 0-27-12-27-27 0-15 12-27 27-27 15 0 27 12 27 27 0 5-4 9-9 9z m215 0c-5 0-9-4-9-9 0-4-4-8-9-8-4 0-8 4-8 8 0 5 4 9 8 9 5 0 9 4 9 9 0 5-4 9-9 9-15 0-27-12-27-27 0-15 12-27 27-27 15 0 27 12 27 27 0 5-4 9-9 9z m80 73l-21 100c-4 19-22 34-41 34l-62 0 0 8 26 0c5 0 9 4 9 9 0 5-4 9-9 9l-36 0c-5 0-9-4-9-9l0-17-341 0c-2 0-5-2-7-4-1-2-2-4-2-7l16-143c0-1 0-1 0-1 3-15 9-31 24-42-2-6-4-13-4-19 0-30 25-54 54-54 18 0 35 9 45 24 10-15 27-24 45-24 30 0 54 24 54 54 0 3 0 6-1 9l109 0c-1-3-1-6-1-9 0-30 24-54 54-54 30 0 54 24 54 54 0 3 0 6 0 9l35 0c5 0 9 4 9 9l0 62c0 1 0 2 0 2z m-73-107c-6-7-15-10-25-10-19 0-35 16-35 35 0 20 16 36 35 36 20 0 36-16 36-36 0-9-4-18-11-25z m37 88c0-5 4-10 10-10l8 0 0-26-33 0c-10 17-27 27-47 27-9 0-18-2-26-7l0 150 62 0c10 0 20-8 22-17l-67 0c-5 0-9-4-9-9l0-63c0-14 11-26 25-27 1 0 2 0 2 0l71 0 0-1 0-8-8 0c-6 0-10-4-10-9z m-51 36c0 0-1 0-2 0-5 0-9 4-9 9l0 53 62 0 14-62z m-316-134c-19 0-35 16-35 35 0 20 16 36 35 36 20 0 36-16 36-36 0-19-16-35-36-35z m260 232l0-167c0-1-1-2-2-3l-121 0c-10 17-28 27-47 27-18 0-35-9-45-24-10 15-27 24-45 24-16 0-31-7-41-19-7 6-11 15-15 29l-14 133z m-170-232c-20 0-35 16-35 35 0 20 15 36 35 36 20 0 36-16 36-36 0-19-16-35-36-35z m117 97c5 0 9 4 9 9l0 100c0 5-4 9-9 9-5 0-10-4-10-9l0-100c0-5 5-9 10-9z m-54 0c5 0 9 4 9 9l0 100c0 5-4 9-9 9-5 0-9-4-9-9l0-100c0-5 4-9 9-9z m-54 0c5 0 9 4 9 9l0 100c0 5-4 9-9 9-5 0-9-4-9-9l0-100c0-5 4-9 9-9z m-54 0c6 0 10 4 10 9l0 100c0 5-4 9-10 9-5 0-9-4-9-9l0-100c0-5 4-9 9-9z m-53 0c5 0 9 4 9 9l0 100c0 5-4 9-9 9-5 0-10-4-10-9l0-100c0-5 5-9 10-9z"/>
<glyph glyph-name="insurance-type-liquor-liability" unicode="&#57347;" d="M191 218c0 6-4 10-9 10-5 0-9-4-9-10l0-96c0-5 4-9 9-9 5 0 9 4 9 9z m93 0c0 6-4 10-9 10-5 0-9-4-9-10l0-96c0-5 4-9 9-9 5 0 9 4 9 9z m144 56c0 12-5 24-14 33-8 8-20 13-32 13l-18 0 0 18 1 1c5 9 8 19 8 29 0 29-21 53-50 57l-2 0 0 2c-6 26-29 46-56 46-16 0-31-7-42-19l-1-1-2 1c-5 1-11 2-17 2-21 0-40-11-50-30l-1-2-2 0c-3 1-6 1-9 1-32 0-57-26-57-57 0-10 2-20 8-29l0-1 0-227c0-39 32-71 71-71l131 0c35 0 65 27 70 62l0 3 18 0c25 0 46 20 46 46l0 123z m-82-163c0-29-24-53-52-53l-131 0c-29 0-52 24-52 53l0 208 4-2c8-4 17-6 26-6l12 0 0-36c0-18 15-33 34-33 19 0 34 15 34 33l0 36 95 0c9 0 18 2 25 6l5 2 0-208z m-30 219l-104 0c-5 0-10-4-10-10l0-45c0-8-6-15-15-15-8 0-15 7-15 15l0 45c0 6-4 10-10 10l-21 0c-22 0-39 17-39 38 0 21 17 38 39 38 4 0 9 0 13-2 3-1 5-1 8 0 2 1 4 4 4 6 5 16 20 28 37 28 6 0 12-2 18-5 4-2 9 0 12 4 7 11 19 17 32 17 21 0 38-17 38-38 0-3 1-5 3-7 2-2 5-3 7-3 1 0 2 0 3 0 21 0 39-17 39-38 0-21-18-38-39-38z m93-179c0-16-12-28-27-28l-18 0 0 179 18 0c15 0 27-13 27-28l0-123z"/>
<glyph glyph-name="insurance-type-medical-malpractice" unicode="&#57348;" d="M420 135l-1 0 0 1c0 1 0 1 0 1 0 1 1 1 1 1l0 53c0 42-32 77-72 77-39 0-71-35-71-77l0-46c0-32-24-58-53-58-29 0-53 26-53 58l0 108 1 0c50 4 90 47 90 97l0 91c0 5-4 9-9 9l-33 0c-5 0-9-4-9-9 0-6 4-10 9-10l24 0 0-81c0-43-36-79-80-79-43 0-79 36-79 79l0 81 25 0c5 0 9 5 9 10 0 5-4 9-9 9l-34 0c-5 0-10-4-10-9l0-91c0-48 37-90 86-96l0 0 0-109c0-42 32-76 72-76 39 0 71 34 71 76l0 46c0 32 24 58 53 58 29 0 53-26 53-58l0-53c0 0 0 0 0 0l1-1-2 0c-17-4-30-19-30-37 0-21 17-37 38-37 20 0 37 16 37 37 0 16-10 30-25 35z m-12-54c-11 0-19 9-19 19 0 10 8 19 19 19 10 0 19-9 19-19 0-10-9-19-19-19z"/>
<glyph glyph-name="insurance-type-surety-bond" unicode="&#57349;" d="M445 315l0 0 0 0c0 0 0 0 0 0l44 45c2 1 3 4 3 6 0 3-1 5-3 7l-105 105c-2 2-4 3-7 3-2 0-4-1-6-3l-21-21-1 0c-8 5-18 7-28 7-16 0-32-7-44-18l-46-47-1 0c-6 1-13 1-19 1l-1 0-70 69c-3 4-9 4-12 0l-106-106c-4-3-4-9 0-12l53-54 0 0-6-64c-6-14-3-30 8-41 7-7 17-11 27-11 0 0 1 0 1 0l1 0 0-1c0-1 0-1 0-2 0-10 4-19 11-27 8-7 17-11 27-11 1 0 1 0 2 0l1 0 0 0c-1-11 3-21 11-29 7-7 17-11 27-11 0 0 1 0 1 0l1 0 0-1c0-10 4-21 11-28 7-7 17-11 27-11 7 0 14 2 20 5l1 1 0-1c0 0 1 0 1 0l22-22c7-7 17-11 27-11 10 0 20 4 28 11 7 7 11 17 11 27 0 1 0 2 0 2l0 1 1 0c0 0 1 0 2 0 10 0 20 4 27 11 7 8 11 18 11 28 0 1 0 1 0 2l0 1 1 0c11-1 22 3 30 11 7 7 11 17 11 28 0 0 0 1 0 2l0 0 1 0c1 0 1 0 2 0 10 0 20 4 27 12 8 7 12 17 12 27 0 10-4 20-12 28l-24 24 1 0c13 20 20 43 20 68z m-68 143l93-92-27-27-1 1c-5 24-16 45-33 62l-44 44z m-243-8l25-24-94-93-24 24z m-30-251c-5 0-10 2-14 6-7 8-7 20 0 27l16 16c3 3 8 5 13 5 5 0 10-2 14-5 3-4 5-9 5-14 0-5-2-10-5-14l-16-15c-3-4-8-6-13-6z m40-40c-5 0-10 2-13 6-4 3-6 8-6 13 0 5 2 10 6 14l0 0 0 0 29 29c4 4 8 6 14 6 5 0 9-2 13-6 8-7 8-20 0-27l-29-29c-4-4-9-6-14-6z m41-40c-5 0-10 2-14 5-4 4-6 9-6 14 0 5 2 10 6 13l42 42c3 4 8 6 13 6 5 0 10-2 14-6 3-4 5-8 5-14 0-5-2-9-5-13l-42-42c-3-3-8-5-13-5z m54-35c-4-4-9-6-14-6-5 0-10 2-14 6-3 4-5 8-5 14 0 5 2 9 5 13l30 29c3 4 8 6 13 6 5 0 10-2 14-6 7-7 7-19 0-27z m196 125c4-4 6-9 6-14 0-5-2-10-6-14-4-4-9-6-14-6-5 0-10 2-14 6l-6 6c-2 1-4 2-7 2-2 0-5-1-6-2-2-2-3-4-3-7 0-2 1-5 3-7l5-5c4-4 6-9 6-15 0-5-2-10-6-14-3-3-8-6-14-6-5 0-10 3-14 6l-6 6c-1 2-4 3-6 3-3 0-5-1-7-3-2-2-3-4-3-7 0-2 1-4 3-6l6-6c4-4 6-9 6-14 0-5-2-10-6-14-4-4-9-6-14-6-6 0-11 2-14 6l0 0 0 0-1 0 0 0-5 6c-2 1-4 2-7 2-2 0-5-1-7-2-1-2-2-5-2-7 0-3 1-5 2-7l6-6c4-3 6-8 6-14 0-5-2-10-6-14-4-4-9-6-14-6-5 0-10 2-14 6l-22 22 21 22c7 7 11 17 11 27 0 10-4 19-11 27-5 5-12 8-19 10l-1 0 0 1c2 5 3 9 3 14 0 11-4 20-11 27-7 7-17 11-27 11-5 0-10-1-14-2l-1-1 0 1c-2 7-5 14-11 19-7 8-16 11-26 11-6 0-12-1-17-3l-1-1 0 1c-1 7-5 14-10 19-7 7-17 11-27 11-10 0-19-4-27-11l-2-2 4 41c1 3 0 5-2 7l-13 13 92 92 29-29c2-2 4-3 7-3l0 0c0 0 1 1 1 1 7 0 14 0 21-1l1 0-6-65c-1-11 2-21 9-29 7-9 16-14 27-15 1 0 3 0 4 0 21 0 38 15 40 36l3 30z m-24 52l0-1-99 99c-1 1-2 1-2 2l-1 0 2 20c0 3 0 5-2 7-2 2-4 3-6 4-5 0-10-4-10-9l-8-74c-1-12-11-20-23-19-6 0-11 3-15 7-3 5-5 10-5 16l8 79 40 40c9 9 20 13 31 13 12 0 23-4 31-13l44-43c34-34 40-87 15-128z"/>
<glyph glyph-name="insurance-type-umbrella-liability" unicode="&#57350;" d="M462 251c0 115-93 209-206 209-114 0-206-94-206-209 0-1 0-1 0-2 0-1 0-2 0-4 0-5 4-9 9-9 5 0 9 4 9 9 0 23 18 42 40 42 22 0 40-19 40-42 0-5 4-9 9-9 5 0 9 4 9 9 0 23 18 42 40 42 21 0 38-17 40-37l0-162c0 0 0 0 0 0 0-20 16-35 35-35l1 0c19 0 35 15 35 35 0 5-4 9-9 9-5 0-9-4-9-9 0-9-8-17-17-17l-1 0c-9 0-17 8-17 17 0 0 0 0 0 0l0 155c1 1 1 1 1 2l0 2c0 23 18 42 40 42 22 0 40-19 40-42l0-2c0-5 4-9 9-9 5 0 9 4 9 9 0 23 18 42 40 42 22 0 40-19 40-42 0-5 4-9 9-9 5 0 9 4 9 9 0 1 0 2 0 3 1 1 1 2 1 3z m-59 54c-20 0-38-11-48-27-11 17-29 29-50 29-21 0-40-12-50-29-11 16-28 27-49 27-20 0-38-11-49-28-10 17-28 28-49 28-13 0-26-5-35-13 18 86 93 149 183 149 89 0 164-64 183-149-10 8-22 13-36 13z"/>
<glyph glyph-name="insurance-type-warehouse-operators-legal-liability" unicode="&#57351;" d="M86 144c-5 0-9-4-9-10 0-3-3-5-6-5-3 0-5 2-5 5 0 4 2 6 5 6 5 0 9 4 9 9 0 5-4 9-9 9-13 0-24-10-24-24 0-13 11-23 24-23 13 0 24 10 24 23 0 6-4 10-9 10z m229 7c-5 0-9-4-9-9 0-7-6-13-13-13-8 0-13 6-13 13 0 7 5 13 13 13 5 0 9 4 9 9 0 5-4 9-9 9-18 0-32-14-32-31 0-17 14-31 32-31 17 0 31 14 31 31 0 5-4 9-9 9z m169-22l-108 0 0 124c0 9-8 16-17 16l-13 0 0 146c0 9-7 16-16 16l-45 0c-5 0-9-4-9-9 0-5 4-9 9-9l13 0 0-188c-4 0-7 0-11 0l0 34c0 7-2 14-5 20l-54 94c-7 13-20 22-35 22l-107 0c-13 0-24-11-24-24l0-124-5 0c-18 0-32-14-32-31l0-52c0-1 0-1 0-2-4-8-7-18-7-27 0-30 24-54 53-54 23 0 44 15 51 37l115 0c9-22 31-37 56-37 33 0 60 27 60 61 0 10-2 20-7 29 0 0 0 0 0 0l0 29c0 1 0 1 0 1l0 50 11 0 0-124c0-9 8-16 17-16l110 0c6 0 10 4 10 9 0 5-4 9-10 9z m-354 129l139 0 0-37c-9-2-17-6-24-11l-21 21c-11 10-24 16-38 16l-106 0 0 124c0 3 3 5 6 5l13 0 0-87c0-17 14-31 31-31z m80-122l-85 0c-1 29-25 52-54 52-10 0-19-3-27-8l0 36c0 7 5 13 13 13l129 0c9 0 18-4 25-11l20-20c-14-16-21-35-21-56 0-2 0-4 0-6z m-139-37c-19 0-35 16-35 35 0 20 16 36 35 36 20 0 35-16 35-36 0-19-15-35-35-35z m246 122l0 30 11 0 0-34c-4 2-8 3-11 4z m-85-85l-4 0c0 2 0 4 0 6 0 36 29 65 65 65 12 0 24-4 35-11l0-5c-10 8-23 12-35 12-34 0-61-28-61-61 0-2 0-4 0-6z m61-37c-24 0-43 19-43 43 0 23 19 42 43 42 23 0 42-19 42-42 0-24-19-43-42-43z m24 170l0 144 11 0 0-144z m-155 7l0 80c0 5-5 9-10 9-5 0-9-4-9-9l0-80-13 0c-7 0-13 6-13 13l0 87 76 0c8 0 15-4 18-11 0-1 0-1 1-1l50-88z"/>
<glyph glyph-name="delete" unicode="&#57353;" d="M256 509c-141 0-255-113-255-253 0-139 114-252 255-252 140 0 254 113 254 252 0 140-114 253-254 253z m0-479c-126 0-228 102-228 226 0 125 102 226 228 226 125 0 227-101 227-226 0-124-102-226-227-226z m69 321l-34 0c-3 17-18 29-35 29-18 0-32-12-36-29l-33 0c-18 0-32-14-32-31l0-2c0-12 7-22 17-28l0-126c0-17 14-31 32-31l104 0c17 0 31 14 31 31l0 126c11 6 17 16 17 28l0 2c0 17-14 31-31 31z m-69 7c5 0 10-3 13-7l-26 0c3 4 7 7 13 7z m-79-38c0 5 4 10 10 10l138 0c5 0 10-5 10-10l0-2c0-5-5-10-10-10l-138 0c-6 0-10 5-10 10z m141-156c0-5-5-10-10-10l-104 0c-6 0-10 5-10 10l0 123 124 0z m-97-2c6 0 11 5 11 11l0 73c0 6-5 10-11 10-6 0-11-4-11-10l0-73c0-6 5-11 11-11z m35 0c6 0 10 5 10 11l0 73c0 6-4 10-10 10-6 0-11-4-11-10l0-73c0-6 5-11 11-11z m34 0c6 0 11 5 11 11l0 73c0 6-5 10-11 10-6 0-10-4-10-10l0-73c0-6 4-11 10-11z"/>
<glyph glyph-name="insurance-type-disability-insurance" unicode="&#96;" d="M202 283c-47 0-86-38-86-86 0-47 39-86 86-86 48 0 86 39 86 86 0 48-38 86-86 86z m0-151c-36 0-65 29-65 65 0 36 29 66 65 66 36 0 66-30 66-66 0-36-30-65-66-65z m207-63l55 0c5 0 10 5 10 10 0 3-1 6-3 8-2 2-5 3-7 3l-45 0 0 151c0 6-4 10-10 10l-54 0-2 6c-3 7-7 15-11 22l-1 2 0 122c0 6-5 10-11 10l-194 0 0 51c0 6-4 10-10 10l-54 0c-6 0-10-4-10-10 0-5 4-10 10-10l44 0 0-120-4-3c-44-30-71-80-71-134 0-89 72-161 161-161 89 0 162 72 162 161 0 8-1 16-2 24l-1 10 38 0 0-152c0-5 5-10 10-10z m-89 324l0-84-14 12c-29 24-66 38-104 38-18 0-37-3-54-10l-12-4 0 48z m-118-337c-78 0-141 63-141 141 0 78 63 142 141 142 78 0 142-64 142-142 0-78-64-141-142-141z"/>
<glyph glyph-name="insurance-type-professional-liability-e-and-o" unicode="&#57354;" d="M256 54c-2 0-4 1-6 2l-105 80c-40 30-64 79-64 129l0 137c0 5 3 9 7 10l165 46c2 0 4 0 5 0l166-46c4-1 7-5 7-10l0-137c0-50-24-99-64-129l-105-80c-2-1-4-2-6-2z m-156 341l0-130c0-44 21-87 57-114l99-75 99 75c35 27 56 70 56 114l0 130-155 43z m136-185c-3 0-5 1-7 2l-72 72c-3 4-3 10 0 14 4 4 10 4 14 0l65-65 104 105c4 3 10 3 14 0 4-4 4-10 0-14l-111-112c-2-1-5-2-7-2z"/>
<glyph glyph-name="insurance-type-employee-dishonesty-1" unicode="&#57355;" d="M187 276c1-37 31-67 69-67 37 0 67 30 68 67l28 0-10-18-12-24 26-4c20-3 34-20 34-40l0-108-268 0 0 108c0 20 14 37 33 40l26 4-12 24-10 18 28 0m84 174l-30 0c-31 0-56-25-56-56l0-32-1-22 0-45-38 0c-4 0-7-2-10-5-2-4-2-8 0-11l16-30c-28-5-50-29-50-59l0-116c0-6 5-11 11-11l285 0c6 0 11 5 11 11l0 116c0 30-21 54-50 59l16 30c2 3 2 7 0 11-2 3-6 5-10 5l-37 0 0 45-1 22 0 32c0 31-25 56-56 56z m9-141c-5 0-10 4-11 9-1 6 2 12 8 13l7 2c1 0 2 0 3 0 5 0 9-3 10-9 2-6-2-12-8-13l-7-1c0-1-1-1-2-1z m-48 0c-1 0-2 0-3 1l-6 1c-6 1-10 7-9 13 1 6 6 9 11 9 1 0 2 0 2 0l7-2c6-1 10-7 8-13-1-5-5-9-10-9z m24-81c-28 0-50 22-50 50l0 13 99 0 0-13c0-28-22-50-49-50z"/>
<glyph glyph-name="phone-nav" unicode="&#57357;" d="M256 16c-137 0-249 108-249 240 0 133 112 240 249 240 137 0 248-107 248-240 0-132-111-240-248-240z m101 193l-27 26c-6 6-17 6-23 0l-10-9c-1-1-2-2-3-2-9-6-22-6-30 2l-39 39c-8 7-9 20-2 28 0 2 0 3 1 3l10 10c6 6 6 16 0 22l-27 26c-7 6-17 6-23 0l-20-19c-24-23-24-61 0-85l86-82c24-24 63-24 88 0l19 19c7 6 7 16 0 22z"/>
<glyph glyph-name="insurance-type-workers-compensation" unicode="&#57352;" d="M411 251c-7 75-92 76-93 76 0 0-1 0-1 0l-12 0c15 13 24 32 24 54 0 39-32 72-71 72-39 0-71-33-71-72 0-22 10-41 25-54l-19 0c-32 0-54-13-55-13-35-21-37-49-37-55l0-104c0-3 0-15 8-24 6-7 14-10 24-10l34 0 0-53c0-3 2-5 4-5l182 0c1 0 2 1 3 1 0 1 0 1 1 1 5-3 12-5 19-5 19 0 35 16 35 36z m-206 130c0 29 24 54 53 54 29 0 53-25 53-54 0-30-24-54-53-54-29 0-53 24-53 54z m-73-242c-4 0-7 1-9 3-4 5-4 12-4 13l0 103c0 2 3 18 16 31z m18 0l0 0 3 161c7 3 21 6 40 8l35-133c0 0 0 0 1 0 6-16 10-31 9-36l-88 0z m243-44c0-9-8-17-17-17-10 0-18 8-18 18l0 168c0 3-2 5-4 5l-10 0c-2 0-3-1-4-1 0-1-1-2-1-4l0-183-154 0 0 40 75 0c18 0 33 15 33 33 0 18-15 33-33 33l-16 0-32 122 105 0c8 0 71-2 76-59l0-155z m-118 59c0-8-7-15-15-15l-4 0c0 9-3 20-6 30l10 0 0 0c8 0 15-7 15-15z"/>
<glyph glyph-name="insurance-type-bop" unicode="&#57356;" d="M473 198l-114 0 0 140c0 13-10 23-23 23l-52 0c17 10 29 29 29 50 0 33-26 59-59 59-32 0-58-26-58-59 0-21 11-40 28-50l-52 0c-12 0-23-10-23-23l0-140-108 0c-5 0-10-4-10-9l0-138c0-6 5-10 10-10l432 0c5 0 10 4 10 10l0 138c0 5-5 9-10 9z m-259 213c0 22 18 40 40 40 22 0 40-18 40-40 0-22-18-39-40-39-22 0-40 17-40 39z m-46-69l4 0 59 0 13-16-13-80c-1-3 0-6 2-8l14-16c4-4 11-4 14 0l14 16c2 2 3 5 3 8l-14 80 13 16 63 0 0-4 0-140-172 0 0 144z m295-282l-412 0 0 119 412 0z"/>
<glyph glyph-name="insurance-type-directors-and-officers-insurance" unicode="&#95;" d="M474 192l-73 0 15 140c0 0 0 0 0 1 0 18-7 35-20 48-10 10-22 17-36 19l-3 1 0 12c0 15-12 28-28 28l-19 0-1 1c-12 19-32 30-53 30-22 0-42-11-53-30l-1-1-20 0c-15 0-28-13-28-28l0-12-2-1c-14-2-27-9-36-19-13-13-20-30-20-48 0-1 0-1 0-1l14-140-72 0c-5 0-9-5-9-10l0-132c0-5 4-9 9-9l436 0c5 0 9 4 9 9l0 132c0 5-4 10-9 10z m-155 217c0 3-1 6-1 10l-1 4 12 0c5 0 10-5 10-10l0-21c0-5 4-9 9-9 27-1 49-23 49-50l-14-141-14 0 0 146c0 13-11 24-24 24l-47 0c13 12 21 28 21 47z m-73-84l-15-88c0-2 1-5 2-7l16-18c3-4 10-4 14 0l15 18c2 2 3 5 2 7l-14 88 14 19 65 0c3 0 5-3 5-6l0-141c0-1 0-3-1-4-1-1-2-1-3-1l0 0-181 0c-2 0-4 2-4 5l0 141c0 3 3 6 6 6l64 0z m10 128c24 0 44-20 44-44 0-25-20-45-44-45-25 0-45 20-45 45 0 24 20 44 45 44z m-92-70c5 0 9 4 9 9l0 21c0 5 4 10 9 10l12 0 0-4c-1-4-1-7-1-10 0-19 8-35 20-47l-46 0c-14 0-24-11-24-24l0-146-14 0-15 141c1 27 23 49 50 50z m300-324l-417 0 0 114 417 0z"/>
<glyph glyph-name="insurance-type-more" unicode="&#57358;" d="M259 452c-108 0-195-87-195-193 0-107 87-194 195-194 107 0 195 87 195 194 0 106-88 193-195 193z m0-369c-98 0-177 79-177 176 0 97 79 176 177 176 97 0 177-79 177-176 0-97-80-176-177-176z m11 104l0 60 60 0c3 0 6 1 9 3 2 3 3 6 3 9 0 6-5 12-12 12l-60 0 0 59c0 4-1 7-3 9-2 2-5 3-8 3-4 0-7-1-9-3-2-2-3-5-3-9l0-59-60 0c-3 0-6-2-8-4-3-2-4-5-4-8 0-7 5-12 12-12l60 0 0-60c0-3 1-6 3-8 2-3 5-4 9-4l0-1 0 1c6 0 11 6 11 12z"/>
<glyph glyph-name="quotes-close" unicode="&#64;" d="M383 209c-61 0-111 49-111 111 0 61 50 111 111 111 61 0 111-50 111-111l1-16c0-123-100-222-222-222l0 63c42 0 82 17 112 47 6 6 11 12 16 18-6-1-12-1-18-1z m-255 0c-61 0-111 49-111 111 0 61 50 111 111 111 61 0 111-50 111-111l0-16c0-123-99-222-222-222l0 63c43 0 82 17 112 47 6 6 11 12 16 18-6-1-11-1-17-1z"/>
<glyph glyph-name="quotes-open" unicode="&#57359;" d="M128 304c62 0 111-50 111-111 0-61-49-111-111-111-61 0-111 50-111 111l0 16c0 122 99 222 222 222l0-64c-43 0-82-16-112-46-6-6-11-12-16-19 6 1 11 2 17 2z m256 0c61 0 111-50 111-111 0-61-50-111-111-111-62 0-111 50-111 111l-1 16c0 122 100 222 222 222l0-64c-42 0-82-16-112-46-6-6-11-12-16-19 6 1 12 2 18 2z"/>
<glyph glyph-name="insurance-type-health" unicode="&#57360;" d="M485 278l1 1c4 12 6 25 6 39 0 45-25 87-65 109-18 10-38 15-59 15-33 0-64-12-87-33l-3-4-4 4c-23 21-54 33-87 33-21 0-41-5-59-15-40-22-65-64-65-109 0-13 2-26 6-38l0 0c2-6 4-13 7-20l3-8-50 0c-5 0-9-4-9-8 0-5 4-9 9-9l168 0c3 0 6 2 8 5l22 50 23-98c1-3 4-6 7-6l0 0c1 0 1 0 2 0 3 0 5 1 7 4l43 71 47 0c5 0 9 4 9 9 0 5-4 9-9 9l-52 0c-3 0-6-2-8-5l-34-56-24 103c-1 3-4 6-8 6-1 0-1 0-1 0-4 0-7-2-8-5l-30-70-91 0-2 3c-6 12-10 21-12 30-3 11-5 21-5 33 0 39 21 75 55 93 16 9 33 13 51 13 32 0 64-14 84-38 1-2 4-3 6-3 3 0 6 1 7 3 20 24 51 38 84 38 18 0 35-4 50-13 35-18 56-54 56-94 0-11-2-22-6-34-14-63-124-150-187-191l-3-2-3 2c-24 16-59 40-93 69-1 2-3 2-6 2-2 0-5-1-7-3-3-4-2-9 2-12 46-40 93-70 101-76l1 0c1-1 3-1 4-1 2 0 4 0 5 1 8 5 184 117 203 206"/>
<glyph glyph-name="onlyclick-0-10" unicode="&#57361;" d="M256 509c-139 0-253-113-253-253 0-139 114-252 253-252 139 0 252 113 252 252 0 140-113 253-252 253z m0-458c-114 0-206 92-206 205 0 113 91 204 203 206l0-206 147 147c38-37 61-89 61-147 0-113-92-205-205-205z"/>
<glyph glyph-name="onlyclick-minus" unicode="&#57362;" d="M256 509c-139 0-253-113-253-253 0-139 114-252 253-252 139 0 252 113 252 252 0 140-113 253-252 253z m0-458c-114 0-206 92-206 205 0 114 92 206 206 206 113 0 205-92 205-206 0-113-92-205-205-205z m116 227l-232 0c-12 0-22-10-22-22 0-12 10-21 22-21l232 0c12 0 21 9 21 21 0 12-9 22-21 22z"/>
<glyph glyph-name="onlyclick-location-rent-lease" unicode="&#57363;" d="M495 38l-32 0 0 356c0 7-6 13-13 13l-167 0c-8 0-14-6-14-13l0-356-29 0 0 450c0 7-5 13-13 13l-167 0c-7 0-14-6-14-13l0-450-30 0c-7 0-13-6-13-13 0-8 6-14 13-14l479 0c8 0 14 6 14 14 0 7-6 13-14 13z m-115 124l-29 0 0 56 29 0z m27 56l29 0 0-56-29 0z m29 27l-29 0 0 54 29 0z m-56 0l-29 0 0 54 29 0z m-56 0l-28 0 0 54 28 0z m-28-27l28 0 0-56-28 0z m55-83l29 0 0-97-29 0z m56 0l29 0 0-97-29 0z m29 191l-29 0 0 54 29 0z m-56 0l-29 0 0 54 29 0z m-56 0l-28 0 0 54 28 0z m-28-191l28 0 0-97-28 0z m-139 110l-28 0 0 54 28 0z m27 54l29 0 0-54-29 0z m29 27l-29 0 0 54 29 0z m-56 0l-28 0 0 54 28 0z m-55 0l-29 0 0 54 29 0z m-29-27l29 0 0-54-29 0z m84-81l0-56-28 0 0 56z m27 0l29 0 0-56-29 0z m-111 0l29 0 0-56-29 0z m56-83l28 0 0-97-28 0z m55 0l29 0 0-97-29 0z m29 272l-29 0 0 68 29 0z m-56 0l-28 0 0 68 28 0z m-55 0l-29 0 0 68 29 0z m-29-272l29 0 0-97-29 0z"/>
<glyph glyph-name="onlyclick-location-own" unicode="&#57364;" d="M383 38l-29 0 0 450c0 8-5 13-13 13l-167 0c-7 0-14-5-14-13l0-450-30 0c-7 0-13-6-13-13 0-8 6-14 13-14l251 0c8 0 14 6 14 14 0 7-6 13-14 13l-33 0m-82 0l-29 0m84 0l-28 0m-83 0l-29 0m91 207l-29 0 0 54 29 0z m27 54l28 0 0-54-28 0z m28 27l-28 0 0 55 28 0z m-55 0l-29 0 0 55 29 0z m-56 0l-29 0 0 55 29 0z m-29-27l29 0 0-54-29 0z m85-81l0-56-29 0 0 56z m27 0l28 0 0-56-28 0z m-112 0l29 0 0-56-29 0z m56-83l29 0 0-97-29 0z m56 0l28 0 0-97-28 0z m28 272l-28 0 0 68 28 0z m-55 0l-29 0 0 68 29 0z m-56 0l-29 0 0 68 29 0z m-29-272l29 0 0-97-29 0z"/>
<glyph glyph-name="onlyclick-location-joint-masonery" unicode="&#57366;" d="M4 461l0-410 504 0 0 410z m378-31l0-63-252 0 0 63z m-347 0l63 0 0-63-63 0z m0-95l205 0 0-63-205 0z m347-158l-252 0 0 63 252 0z m-347 63l63 0 0-63-63 0z m0-157l0 63 205 0 0-63z m441 0l-204 0 0 63 204 0z m0 94l-63 0 0 63 63 0z m0 95l-204 0 0 63 204 0z m0 95l-63 0 0 63 63 0z"/>
<glyph glyph-name="onlyclick-location-homeoffice" unicode="&#57367;" d="M505 280l-123 168c-3 4-7 6-11 6l-228 0c0 0 0 0 0 0-1 0-1 0-2 0 0 0 0 0 0 0 0 0-1-1-1-1 0 0 0 0 0 0-1 0-1 0-2 0 0 0 0 0 0 0 0 0-1 0-1-1 0 0 0 0-1 0 0 0 0 0 0 0-1 0-1-1-1-1 0 0 0 0 0 0-1 0-1 0-1 0 0 0 0 0 0-1 0 0-1 0-1 0 0 0 0-1 0-1-1 0-1 0-1-1 0 0 0 0 0 0l0 0c0 0 0 0 0 0l-126-168c-3-4-4-10-2-15 3-4 7-7 13-7l14 0 0-186c0-7 6-13 14-13l423 0c8 0 13 6 13 13l0 186 14 0c0 0 0 0 0 0 7 0 14 6 14 14 0 3-2 6-4 8z m-335-194l-56 0 0 89 56 0 0-89z m56 0l-29 0 0 102c0 8-5 14-13 14l-83 0c-8 0-14-6-14-14l0-102-29 0 0 172 168 0 0-172z m-182 199l99 132 99-132z m410-199l-201 0 0 172 201 0z m-178 199l-106 141 194 0 104-141z m35-155l84 0c7 0 13 6 13 14l0 56c0 8-6 14-13 14l-84 0c-7 0-13-6-13-14l0-56c0-8 6-14 13-14z m14 56l56 0 0-28-56 0z"/>
<glyph glyph-name="onlyclick-location-frame" unicode="&#57368;" d="M490 391c-1 8-5 15-12 18l-215 97c-5 3-11 3-16 0l-214-97c0 0-1 0-1 0-4-3-8-6-9-11-1 0-1-1-1-2-1-2-1-4-1-6l0-213c0-6 3-13 8-16l215-153c0 0 0 0 0 0 1-1 3-2 5-2 0-1 1-1 1-1 2 0 3-1 5-1 2 0 4 1 5 1 1 0 1 0 1 0 2 1 3 1 4 2 0 0 0 0 1 0l214 130c6 3 10 10 10 17l0 216c0 4 0 17 0 21z m-235 74l169-76-169-92-168 92z m-194-109l174-95 0-197-174 124 0 168z m389-190l-175-105 0 200 175 95z"/>
<glyph glyph-name="onlyclick-lease" unicode="&#57370;" d="M256 509c-139 0-253-113-253-253 0-139 114-252 253-252 139 0 252 113 252 252 0 140-113 253-252 253z m0-458c-114 0-206 92-206 205 0 114 92 206 206 206 113 0 205-92 205-206 0-113-92-205-205-205z m-163 258l-21 0 0-106 63 0 0 19-42 0z m52-106l59 0 0 19-37 0 0 27 34 0 0 18-34 0 0 24 37 0 0 18-59 0z m96 106l-36-106 24 0 7 26 37 0 8-26 23 0-36 106z m0-62c8 25 12 40 14 46 0-2 1-4 1-7 1-3 5-16 12-39z m199 44l0 18-59 0 0-106 59 0 0 19-37 0 0 27 34 0 0 18-34 0 0 24z m-95-27c-7 4-12 6-14 8-2 1-3 3-4 4-1 2-1 3-1 5 0 3 1 6 3 8 2 2 5 3 9 3 4 0 7-1 11-1 3-1 8-3 13-5l7 17c-5 2-10 4-15 6-5 1-10 2-15 2-11 0-19-3-25-8-6-6-10-13-10-22 0-5 1-10 3-14 2-3 5-6 8-9 3-3 7-6 14-9 6-3 11-6 13-7 2-2 4-3 5-5 1-1 2-3 2-5 0-4-2-7-4-9-3-2-6-3-11-3-4 0-9 1-13 2-5 2-11 4-18 7l0-21c9-4 18-6 29-6 12 0 21 3 28 8 6 6 10 13 10 23 0 7-2 12-6 17-3 5-10 10-19 14z"/>
<glyph glyph-name="onlyclick-dollar" unicode="&#57371;" d="M256 509c-139 0-253-114-253-253 0-139 114-252 253-252 139 0 252 113 252 252 0 139-113 253-252 253z m0-458c-114 0-206 92-206 205 0 114 92 206 206 206 113 0 205-92 205-206 0-113-92-205-205-205z m55 201c-5 5-11 10-18 14-7 4-14 7-21 10l0 62c7-1 14-2 20-4 5-2 10-3 14-5l12 36c-6 3-13 5-20 7-8 2-16 4-26 4l0 29-34 0 0-30c-17-3-31-10-41-20-10-11-15-26-15-45 0-10 1-18 5-26 3-7 7-14 12-19 6-5 12-10 18-13 7-4 14-8 21-11l0-67c-10 1-19 3-26 5-7 2-13 4-17 7l-12-38c5-3 12-5 22-8 9-2 20-3 33-4l0-28 34 0 0 30c18 4 32 11 42 22 10 12 16 27 16 48 0 10-2 18-6 25-3 7-7 14-13 19z m-59 33c-8 4-14 8-19 13-6 4-8 10-8 16 0 7 2 13 6 18 3 4 11 7 21 7z m28-102c-5-5-12-8-22-9l0 58c8-3 15-7 20-12 6-4 9-10 9-17 0-8-3-15-7-20z"/>
<glyph glyph-name="onlyclick-backspace" unicode="&#57372;" d="M466 436l-315 0c-15 0-26-6-34-18l-113-162 113-162c8-10 19-18 34-18l315 0c23 0 42 18 42 40l0 280c0 22-19 40-42 40z m-63-252l-30-28-75 72-76-72-29 28 75 72-75 72 29 28 76-72 75 72 30-28-76-72z"/>
<glyph glyph-name="onlyclick-50plus" unicode="&#57373;" d="M256 509c-139 0-253-113-253-253 0-139 114-252 253-252 139 0 252 113 252 252 0 140-113 253-252 253z"/>
<glyph glyph-name="onlyclick-no" unicode="&#57375;" d="M256 509c-139 0-253-113-253-253 0-139 114-252 253-252 139 0 252 113 252 252 0 140-113 253-252 253z m0-458c-114 0-206 92-206 205 0 114 92 206 206 206 113 0 205-92 205-206 0-113-92-205-205-205z m30 205l67 67c8 8 8 22 0 30-8 9-22 9-30 0l-67-66-67 66c-8 9-22 9-30 0-9-8-9-22 0-30l66-67-66-67c-9-8-9-21 0-30 8-8 22-8 30 0l67 67 67-67c8-8 22-8 30 0 8 8 8 22 0 30z"/>
<glyph glyph-name="onlyclick-notsure" unicode="&#57376;" d="M256 509c-139 0-253-113-253-253 0-139 114-252 253-252 139 0 252 113 252 252 0 140-113 253-252 253z m0-458c-114 0-206 92-206 205 0 114 92 206 206 206 113 0 205-92 205-206 0-113-92-205-205-205z m-22 112l40 0 0 39-40 0z m71 169c-5 5-12 9-20 13-8 3-18 5-30 5-9 0-18-2-25-5-8-3-15-8-20-13-5-6-9-12-12-20-3-8-5-16-5-25l37 0c0 4 1 8 2 12 1 4 3 8 5 11 2 3 5 5 8 7 3 2 7 3 12 3 7 0 12-2 16-6 4-4 5-9 5-17 1-5 0-9-2-12-2-3-4-6-7-8-3-3-6-5-9-8-4-2-7-5-10-9-3-3-6-8-8-13-2-5-4-11-4-18l0-11 34 0 0 9c1 5 2 10 5 13 3 3 6 6 9 9 4 3 7 5 11 8 4 3 7 6 11 10 3 3 5 8 7 13 3 5 4 12 4 20 0 5-1 11-4 16-2 6-5 11-10 16z"/>
<glyph glyph-name="onlyclick-plus" unicode="&#57378;" d="M256 509c-139 0-253-113-253-253 0-139 114-252 253-252 139 0 252 113 252 252 0 140-113 253-252 253z m0-458c-114 0-206 92-206 205 0 114 92 206 206 206 113 0 205-92 205-206 0-113-92-205-205-205z m116 227l-95 0 0 94c0 12-9 22-21 22-12 0-22-10-22-22l0-94-94 0c-12 0-22-10-22-22 0-12 10-21 22-21l94 0 0-95c0-12 10-21 22-21 12 0 21 9 21 21l0 95 95 0c12 0 21 9 21 21 0 12-9 22-21 22z"/>
<glyph glyph-name="onlyclick-yes" unicode="&#57379;" d="M256 509c-139 0-253-113-253-253 0-139 114-252 253-252 139 0 252 113 252 252 0 140-113 253-252 253z m0-458c-114 0-206 92-206 205 0 114 92 206 206 206 113 0 205-92 205-206 0-113-92-205-205-205z m109 286c-8 8-21 8-29 0l-118-118-43 43c-8 8-20 8-28 0-8-8-8-21 0-29l57-57c4-4 9-6 14-6 6 0 11 2 15 6l132 132c8 8 8 21 0 29z"/>
<glyph glyph-name="onlyclick-10-50" unicode="&#57374;" d="M500 319c-28 109-127 190-244 190 0 0 0 0 0 0 0 0 0 0 0 0-118 0-217-81-245-190-5-20-8-41-8-63 0-22 3-43 8-63 28-109 127-189 245-189 0 0 0 0 0 0 0 0 0 0 0 0 117 0 216 80 244 189 6 20 8 41 8 63 0 22-2 43-8 63z m-244-56l-146 146c37 37 89 60 146 60 57 0 108-23 146-60z"/>
<glyph glyph-name="onlyclick-own" unicode="&#57377;" d="M131 292c-9 0-15-3-19-9-5-6-7-15-7-27 0-12 2-20 7-26 4-6 10-9 19-9 17 0 26 12 26 35 0 24-9 36-26 36z m125 217c-139 0-253-113-253-253 0-139 114-252 253-252 139 0 252 113 252 252 0 140-113 253-252 253z m-89-293c-8-9-20-14-36-14-16 0-28 5-36 14-8 9-13 23-13 40 0 18 5 31 13 41 8 9 20 14 36 14 16 0 28-5 36-14 8-10 12-23 12-41 0-17-4-31-12-40z m133-13l-25 0-14 56c0 2-1 6-2 12-1 6-2 10-2 13-1-3-1-7-2-13-1-6-2-10-3-12l-14-56-24 0-26 106 21 0 13-58c2-10 4-20 5-27 0 2 1 7 2 12 1 6 2 11 3 14l15 59 20 0 15-59c1-3 1-7 2-12 1-6 2-10 3-14 0 3 1 8 2 14 1 5 2 10 3 13l13 58 21 0z m129 0l-27 0-45 80 0 0c1-14 1-24 1-30l0-50-19 0 0 106 27 0 44-79 1 0c-1 14-1 23-1 29l0 50 19 0z"/>
<glyph glyph-name="industries-agriculture" unicode="&#66;" d="M146 224c-20 0-37-16-37-37 0-20 17-37 37-37 20 0 37 17 37 37 0 21-17 37-37 37z m0-55c-10 0-19 8-19 18 0 11 9 19 19 19 10 0 19-8 19-19 0-10-9-18-19-18z m77-102c5 0 9 4 9 9 0 5-4 9-9 9l-13 0c34 21 57 59 57 102 0 1 0 1 0 1l27 0c5 0 9 4 9 9 0 5-4 9-9 9l-29 0c0 6-2 11-3 16l49 0c5 0 9 4 9 9 0 5-4 9-9 9l-56 0c-20 41-61 68-109 68-29 0-56-10-77-28l0 130 32 18 21 0 61-104c2-3 5-4 8-4l95 0c5 0 9 3 9 8l1 18 98 0c15 0 25-10 34-36l9-26-16 0c-5 0-9-4-9-9 0-5 4-9 9-9l23 0 0-2 0-20c-11 6-24 8-37 8-51 0-93-41-93-93 0-30 15-57 38-74l-62 0c-5 0-9-4-9-9 0-5 4-9 9-9l168 0c5 0 9 4 9 9 0 4-2 7-6 8 23 17 39 45 39 75 0 31-15 58-38 75l0 32c0 1 0 2 0 3l-17 47c-8 23-21 48-51 48l-45 0 0 42 21 0c5 0 9 4 9 9 0 5-4 9-9 9l-30 0c0 0 0 0 0 0l-30 0c-5 0-9-4-9-9 0-5 4-9 9-9l21 0 0-42-43 0c-5 0-9-4-9-8l-1-18-82 0-61 103c-1 3-4 5-8 5l-28 0c-2 0-3 0-4-1l-40-21c-3-2-4-5-4-8l0-154c-16-21-26-47-26-75 0-43 23-81 57-102l-61 0c-5 0-9-4-9-9 0-5 4-9 9-9l202 0z m184 167c41 0 75-33 75-75 0-41-34-74-75-74l-1 0c-41 0-74 33-74 74 0 42 34 75 75 75z m-262-149c-56 0-102 46-102 102 0 57 46 103 103 103 57 0 103-46 103-103 0-56-46-102-102-102z m262 37c20 0 37 17 37 37 0 21-17 37-37 37-21 0-37-16-37-37 0-20 16-37 37-37z m0 56c10 0 19-8 19-19 0-10-9-18-19-18-11 0-19 8-19 18 0 11 8 19 19 19z m-270-59c0 5 4 9 9 9 33 0 59 27 59 59 0 5 4 9 9 9 5 0 9-4 9-9 0-42-34-77-77-77-5 0-9 4-9 9z m-59 59c-5 0-9 4-9 9 0 43 34 78 77 78 5 0 9-4 9-9 0-5-4-9-9-9-33 0-59-27-59-60 0-5-4-9-9-9z"/>
<glyph glyph-name="industries-education" unicode="&#68;" d="M446 171l-26 67 0 106c0 3-1 6-3 7l-169 121 0 0c-3 2-7 2-11 0l-168-121c-2-1-4-4-4-7 0-3 2-6 4-7l85-65 0-4c-7-13-22-51-15-126 0-5 4-9 9-9l44 0 0 0c-24-6-99-27-112-83-1-3 0-6 1-8 2-2 5-3 8-3l308 0c3 0 5 1 7 3 2 2 2 5 2 8-14 56-89 77-112 83l0 0 43 0c5 0 9 4 10 9 6 75-8 113-15 126l0 4 70 54 0-88-25-67c-1-3-1-5 0-7 1-3 3-4 5-5 1-1 2-1 3-1 4 0 7 3 9 6l8 22 0-19c0-5 4-9 9-9 5 0 9 4 9 9l0 19 9-22c1-3 4-6 8-6 1 0 2 0 3 1 3 1 4 2 6 5 1 2 1 4 0 7z m-188-106l-7-8-15 0-7 8z m126-8l-34 0 17 21c8-6 13-13 17-21z m-31 33l-27-33-51 0 40 50c14-5 27-11 38-17z m-182 18l41-51-51 0-27 33c11 7 23 13 37 18z m72 252c-23 0-45-6-62-16-18-11-27-26-27-42l0-7-64 49 153 110 153-110-64-49 0 7c0 32-39 58-89 58z m0-205c-37 0-68 38-71 86 9 0 21 3 30 12 5 5 8 10 10 17 12-9 34-20 73-20 9 0 18 1 29 2l0-4c0-51-32-93-71-93z m-24 134c8 1 16 2 24 2 26 0 51-8 64-21-8-1-15-2-22-2-28 0-45 6-54 12-5 2-9 5-12 9z m-23-8c-1-6-3-11-7-15-5-5-12-7-17-7l0 1c3 8 12 15 24 21z m-24 21c0 21 32 40 71 40 38 0 71-19 71-40l0-14c-18 13-44 21-71 21-27 0-54-8-71-21z m-14-87c5-24 17-44 34-58l0-5-35 0c-2 23-2 44 1 63z m45-98c4 0 7 4 7 9l0 18c10-5 21-7 33-7 11 0 22 2 32 7l0-18c0-5 4-9 8-9 0 0 5-1 13-4l-23-29-59 0-24 30c8 2 12 3 13 3z m91 40c16 14 28 34 34 58 2-19 3-40 1-63l-35 0z m-175-78l18-22-35 0c4 8 9 15 17 22z"/>
<glyph glyph-name="industries-finance" unicode="&#69;" d="M191 387l0 0c4 2 8 4 11 7 2 3 3 6 3 11 0 4-2 8-6 11-4 3-9 4-16 4-5 0-9-1-13-2-3-1-7-2-11-5l8-12c5 3 9 4 13 4 3 0 4 0 6-1 1-1 2-2 2-4 0-4-5-7-14-7l-4 0 0-13 4 0c3 0 6-1 8-1 2-1 4-1 5-2 1-1 1-3 1-5 0-2-1-4-3-5-1-1-4-2-8-2-3 0-6 1-9 1-3 1-6 2-9 4l0-15c4-2 7-3 10-3 3-1 7-1 10-1 9 0 16 2 21 6 5 3 7 8 7 14 0 9-5 15-16 16z m53 10c-6 0-10-3-13-8l0 0c0 6 2 10 5 13 2 3 7 4 13 4 4 0 7 0 10-1l0 14c-4 1-7 1-10 1-7 0-14-1-19-4-5-3-9-7-12-13-2-6-4-13-4-23 0-9 3-16 7-21 5-5 11-8 19-8 7 0 13 2 17 7 4 4 6 10 6 17 0 7-1 12-5 16-3 4-8 6-14 6z m0-29c-1-2-3-2-5-2-2 0-4 0-5 2-1 2-2 5-2 8 0 2 1 3 2 5 2 1 3 2 5 2 5 0 7-3 7-8 0-4-1-6-2-7z m61 19c4 2 7 5 8 7 2 3 3 6 3 10 0 5-2 9-6 12-4 3-9 4-16 4-7 0-13-1-17-4-4-3-6-7-6-12 0-4 1-7 3-9 1-3 4-6 7-8-4-2-7-5-9-7-2-3-3-6-3-10 0-6 2-11 7-14 4-3 10-5 18-5 7 0 13 2 18 5 4 3 6 8 6 14 0 3-1 6-3 9-2 3-5 6-10 8z m-15 19c1 1 2 1 4 1 1 0 2 0 4-1 1-1 1-2 1-4 0-1 0-2-1-3-1-1-2-3-4-4-4 2-6 4-6 7 0 2 1 3 2 4z m3-42c-2 0-4 1-5 2-1 1-2 3-2 4 0 2 0 4 2 5 1 2 3 3 5 4 3-1 6-3 7-4 1-2 2-3 2-5 0-4-3-6-9-6z m63 90l-201 0c-25 0-45-21-45-46l0-304c0-25 20-45 45-45l201 0c25 0 45 20 45 45l0 304c0 25-20 46-45 46z m28-350c0-7-3-14-8-20-5-5-12-8-20-8l-201 0c-15 0-28 13-28 28l0 215 257 0 0-215z m0 233l-257 0 0 71c0 16 13 28 28 28l201 0c16 0 28-12 28-28z m-208-219l52 0c5 0 9 4 9 9l0 52c0 5-4 9-9 9l-52 0c-5 0-9-4-9-9l0-52c0-5 4-9 9-9z m8 53l35 0 0-35-35 0z m99-53l53 0c4 0 8 4 8 9l0 52c0 5-4 9-8 9l-53 0c-4 0-8-4-8-9l0-52c0-5 4-9 8-9z m9 53l35 0 0-35-35 0z m-116 49l52 0c5 0 9 4 9 9l0 52c0 5-4 8-9 8l-52 0c-5 0-9-3-9-8l0-52c0-5 4-9 9-9z m8 52l35 0 0-35-35 0z m99-52l53 0c4 0 8 4 8 9l0 52c0 5-4 8-8 8l-53 0c-4 0-8-3-8-8l0-52c0-5 4-9 8-9z m9 52l35 0 0-35-35 0z"/>
<glyph glyph-name="industries-food" unicode="&#70;" d="M263 434c-101 0-183-80-183-178 0-98 82-177 183-177 101 0 183 79 183 177 0 98-82 178-183 178z m0-340c-92 0-167 73-167 162 0 90 75 162 167 162 92 0 167-72 167-162 0-89-75-162-167-162z m-97 123c-6 12-8 26-8 39 0 57 47 103 105 103 21 0 40-6 57-16 4-3 9-2 11 2 3 4 2 8-2 11-20 12-42 18-66 18-67 0-121-53-121-118 0-15 3-31 9-45 1-3 4-5 7-5 1 0 2 0 3 1 5 1 6 6 5 10z m30-40c-6 5-11 10-16 16-3 4-8 4-11 1-4-2-4-7-2-11 6-6 12-12 19-18 1-1 3-1 5-1 2 0 4 0 6 2 3 4 2 9-1 11z m152 153c-4-2-4-7-1-11 14-18 22-40 22-63 0-56-47-102-106-102-14 0-27 2-40 8-4 1-9-1-11-5-2-4 0-8 4-10 15-6 31-9 47-9 67 0 122 53 122 118 0 27-9 52-26 73-2 3-8 4-11 1z m149 87c-5 0-8-4-8-8l0-68c0-7-4-13-10-16l0 84c0 4-4 8-8 8-5 0-9-4-9-8l0-84c-5 3-10 9-10 16l0 68c0 4-3 8-8 8-4 0-8-4-8-8l0-68c0-16 11-29 26-32l0-206c0-4 4-7 9-7 4 0 8 3 8 7l0 206c15 3 26 16 26 32l0 68c0 4-4 8-8 8z m-447 0c-26 0-43-39-43-76 0-20 15-37 35-41l0-197c0-4 3-7 8-7 4 0 8 3 8 7l0 197c20 4 35 21 35 41 0 37-18 76-43 76z m0-102c-15 0-27 12-27 26 0 32 15 60 27 60 12 0 27-28 27-60 0-14-12-26-27-26z"/>
<glyph glyph-name="industries-health" unicode="&#71;" d="M238 128l36 0c11 0 20 9 20 20l0 31 31 0c11 0 20 9 20 20l0 37c0 11-9 20-20 20l-31 0 0 31c0 11-9 20-20 20l-36 0c-11 0-20-9-20-20l0-31-32 0c-11 0-20-9-20-20l0-37c0-11 9-20 20-20l32 0 0-31c0-11 9-20 20-20z m-52 69c-1 0-2 1-2 2l0 37c0 1 1 2 2 2l41 0c5 0 9 4 9 9l0 40c0 1 1 2 2 2l36 0c1 0 2-1 2-2l0-40c0-5 4-9 9-9l40 0c1 0 2-1 2-2l0-37c0-1-1-2-2-2l-40 0c-5 0-9-4-9-9l0-40c0-1-1-2-2-2l-36 0c-1 0-2 1-2 2l0 40c0 5-4 9-9 9z m272 111c0 35-29 63-64 63l-30 0 0 30c0 26-22 48-48 48l-121 0c-26 0-47-22-47-48l0-30-31 0c-35 0-63-28-63-63l0-181c0-35 28-63 63-63l277 0c35 0 64 28 64 63l0 181z m-292 93c0 16 13 30 29 30l121 0c17 0 30-14 30-30l0-30-180 0z m274-274c0-25-21-45-46-45l-277 0c-25 0-45 20-45 45l0 181c0 25 20 45 45 45l277 0c25 0 46-20 46-45z"/>
<glyph glyph-name="industries-manufacturing" unicode="&#73;" d="M491 81l0 102c3 0 5 1 7 3 2 3 2 6 1 8l-16 43c-2 3-5 5-8 5l-121 0 0 172c0 4-4 8-9 8l-111 0c-5 0-8-4-8-8l0-86-43 0 0 112c0 5-3 9-8 9l-34 0c-5 0-9-4-9-9l0-112-17 0 0 112c0 5-4 9-9 9l-34 0c-5 0-8-4-8-9l0-112-27 0c-3 0-7-2-8-5l-16-43c-1-3-1-6 1-8 1-2 4-3 6-4l0-187c-4 0-8-4-8-9 0-5 4-9 8-9l471 0c5 0 9 4 9 9 0 5-4 8-9 9z m-342 316l17 0 0-68-17 0z m17 35l0-17-17 0 0 17z m-85-35l17 0 0-68-17 0z m17 35l0-17-17 0 0 17z m371-207l9-25-124 0 0 25z m-226 180l94 0 0-324-94 0z m-86-136l0-51-51 0 0 51z m69 0l0-51-51 0 0 51z m0-120l-51 0 0 52 51 0z m-137 69l-51 0 0 50c0 0 0 1 1 1l50 0z m-51-17l51 0 0-52-51 0z m68 0l51 0 0-52-51 0z m51-69l0-51-51 0 0 51z m18 0l51 0 0-51-51 0z m-132 179l183 0 0-25-58 0c-1 0-1 0-2 0-1 0-1 0-2 0l-65 0c-1 0-1 0-2 0 0 0-1 0-1 0l-63 0z m-5-179l51 0 0-51-51 0z m402-51l-52 0 0 42 52 0z m17 0l0 51c0 4-4 8-9 8l-68 0c-5 0-9-4-9-8l0-51-16 0 0 102 119 0 0-102z m-179 264c4 0 8 4 8 9l0 17c0 5-4 8-8 8-5 0-9-3-9-8l0-17c0-5 4-9 9-9z m25 0c5 0 8 4 8 9l0 17c0 5-3 8-8 8-5 0-9-3-9-8l0-17c0-5 4-9 9-9z m-25-60c4 0 8 4 8 8l0 17c0 5-4 9-8 9-5 0-9-4-9-9l0-17c0-4 4-8 9-8z m25 0c5 0 8 4 8 8l0 17c0 5-3 9-8 9-5 0-9-4-9-9l0-17c0-4 4-8 9-8z m-25-60c4 0 8 4 8 9l0 17c0 4-4 8-8 8-5 0-9-4-9-8l0-17c0-5 4-9 9-9z m25 0c5 0 8 4 8 9l0 17c0 4-3 8-8 8-5 0-9-4-9-8l0-17c0-5 4-9 9-9z m-25-60c4 0 8 4 8 8l0 17c0 5-4 9-8 9-5 0-9-4-9-9l0-17c0-4 4-8 9-8z m25 0c5 0 8 4 8 8l0 17c0 5-3 9-8 9-5 0-9-4-9-9l0-17c0-4 4-8 9-8z m-25-60c4 0 8 4 8 9l0 17c0 4-4 8-8 8-5 0-9-4-9-8l0-17c0-5 4-9 9-9z m25 0c5 0 8 4 8 9l0 17c0 4-3 8-8 8-5 0-9-4-9-8l0-17c0-5 4-9 9-9z"/>
<glyph glyph-name="industries-nonprofit" unicode="&#74;" d="M229 196l-80 69c-5 5-13 8-21 8-4 0-8-1-12-2l0 79c0 3 0 7-2 10 7 0 13-5 13-10l0-61c0-4 4-8 9-8 5 0 9 4 9 8l0 61c0 15-13 26-30 26-5 0-10-1-15-3-4 2-9 3-14 3-17 0-30-11-30-26l0-116c0-5 2-13 5-18l84-118c1-2 3-7 3-10l0-23c0-4 4-8 9-8 5 0 9 4 9 8l0 23c0 6-2 14-5 19l-84 117c-1 3-3 8-3 10l0 116c0 5 5 10 12 10 6 0 12-5 12-10l0-104c0 0 0 0 0 0 0-7 3-14 9-19l64-56c4-3 10-3 13 0 2 2 3 4 3 6 0 2-1 5-3 6l-64 56c-3 2-4 5-4 7 0 3 1 5 4 7 4 4 12 4 16 0l80-69c9-7 16-22 16-33l0-86c0-4 4-8 9-8 5 0 10 4 10 8l0 86c0 15-10 35-22 45z m197 180c-5 0-10-1-15-3-4 2-9 3-14 3-17 0-31-11-31-26l0-61c0-4 4-8 10-8 5 0 9 4 9 8l0 61c0 5 6 10 12 10-1-3-2-7-2-10l0-79c-4 1-8 2-12 2-8 0-15-3-21-8l-80-69c-12-10-21-30-21-45l0-86c0-4 4-8 9-8 5 0 10 4 10 8l0 86c0 11 7 26 15 33l80 69c4 4 12 4 17 0 2-2 3-4 3-7 0-2-1-5-3-7l-65-56c-2-1-3-4-3-6 0-2 1-4 3-6 4-3 9-3 13 0l65 56c5 5 9 12 9 19 0 0 0 0 0 0l0 104c0 5 5 10 12 10 6 0 11-5 11-10l0-116c0-2-1-7-3-9l-83-118c-3-5-6-13-6-19l0-23c0-4 4-8 9-8 6 0 10 4 10 8l0 23c0 3 1 8 3 10l83 118c4 5 6 13 6 18l0 116c0 15-14 26-30 26z m-68-13c9 10 13 22 13 35 0 32-29 57-66 57-19 0-37-7-49-19-13 12-31 19-50 19-36 0-66-25-66-57 0-13 5-25 14-35l94-109c2-2 5-3 8-3 3 0 5 1 7 3z m-152 76c26 0 47-18 47-41 0-4 4-8 9-8 6 0 10 4 10 8 0 8-2 16-6 23 9 11 24 18 39 18 26 0 48-19 48-41 0-9-4-18-10-25l-87-100-88 100c-6 7-9 16-9 25 0 22 21 41 47 41z"/>
<glyph glyph-name="industries-professional" unicode="&#75;" d="M441 131c5 0 9 4 9 8l0 302c0 4-2 7-6 9-3 1-7 0-9-3l-308-370c-2-3-3-7-1-10 1-3 4-5 8-5l307 0c5 0 9 4 9 9 0 5-4 9-9 9l-288 0 280 337 0-278c0-4 4-8 8-8z m-67 150l-113-136c-2-3-3-6-1-9 1-3 4-5 8-5l112 0c5 0 9 4 9 8l0 136c0 4-2 7-6 8-3 2-7 1-9-2z m-3-133l-85 0 85 103 0-103z m-236 14l21 27 114 143c0 0 0 0 0 0 0 0 0 0 0 0 1 1 1 1 1 1 0 0 0 0 0 0 0 1 0 1 1 1 0 1 0 1 0 1l33 94c2 4 0 8-3 10-2 3-7 3-10 1l-85-54c0 0 0 0 0 0 0 0 0-1 0-1 0 0 0 0-1 0 0 0 0 0 0 0 0 0 0 0 0 0 0-1 0-1 0-1-1 0-1 0-1 0 0 0 0 0 0 0l-87-110c-3-3-2-9 1-12 4-3 10-3 13 1l81 103 38-30-103-129-44 35c-4 3-10 3-13-1l-21-27c-7-8-10-19-9-30 2-11 7-21 16-28l0 0c8-6 17-9 26-9 13 0 24 6 32 15z m92 215l13 9 9-7c2-2 4-2 5-2 3 0 6 1 7 3 3 4 3 9-1 12l-4 4 24 15-21-59z m-124-212c-5 0-11 1-15 5l0 0c-5 4-8 10-9 16-1 6 1 12 5 17l16 20 37-30-16-20c-4-5-11-8-18-8z m50 78c3 0 5 1 7 3l58 73c3 4 2 9-2 12-3 3-9 3-12-1l-58-73c-3-4-2-9 2-12 1-2 3-2 5-2z"/>
<glyph glyph-name="industries-realstate" unicode="&#76;" d="M236 259c-4 4-9 6-15 6-5 0-11-2-14-6-5-4-7-11-6-18l0-2-61-61-2 0c-2 0-3 0-4 0-5 0-11-2-14-6-4-4-6-9-6-14 0-6 2-11 6-15 3-4 9-6 14-6 6 0 11 2 15 6 4 5 6 12 5 18l0 2 62 62 1 0c2-1 4-1 6-1l2 1 25-25-1-2c0-6 2-12 6-16 4-4 9-6 15-6 5 0 10 2 14 6 5 4 7 10 6 16l0 2 63 63 1 0c7-2 15 0 20 5 8 8 8 21 0 29-4 4-9 6-15 6-5 0-10-2-14-6-5-5-7-11-6-17l0-2-62-62-2 0c-4 1-7 1-10 0l-2 0-23 22 1 2c2 7 0 14-5 19z m235-171l-32 0 0 201 24-17c3-2 7-2 11 0 3 1 5 5 5 9l0 2c0 3-2 6-4 8l-213 151c-4 3-9 3-12 0l-213-151c-3-2-5-5-5-8l0-2c0-4 3-8 6-9 3-2 7-2 10 0l24 17 0-201-31 0c-6 0-10-4-10-10 0-5 4-10 10-10l430 0c5 0 10 5 10 10 0 6-5 10-10 10z m-52 210l0-210-327 0 0 210c0 1 0 5 0 5l164 116 163-116c0 0 0-4 0-5z"/>
</font>
</defs>
</svg>
