<?xml version="1.0" standalone="no"?>
<!DOCTYPE svg PUBLIC "-//W3C//DTD SVG 1.1//EN" "http://www.w3.org/Graphics/SVG/1.1/DTD/svg11.dtd" >
<svg xmlns="http://www.w3.org/2000/svg">
<metadata>Generated by IcoMoon</metadata>
<defs>
<font id="coverwallet" horiz-adv-x="1024">
<font-face units-per-em="1024" ascent="960" descent="-64" />
<missing-glyph horiz-adv-x="1024" />
<glyph unicode="&#x20;" horiz-adv-x="0" d="" />
<glyph unicode="&#xe900;" glyph-name="certificates" horiz-adv-x="925" d="M307.99 922.967l-270.433-260.45v-691.931h843.761v952.381h-573.327zM284.084 813.442v-115.407h-119.737l119.737 115.407zM816.105 372.274v-342.214l-713.238 0.006v608.445h246.479v224.927h466.759v-491.163zM770.243 616.134c0-97.002-78.277-175.637-174.836-175.637s-174.836 78.635-174.836 175.637c0 97.002 78.277 175.637 174.836 175.637s174.836-78.635 174.836-175.637zM511.782 492.957h176.564l-19.151-392.192-66.115 144.421-68.531-144.421z" />
<glyph unicode="&#xe901;" glyph-name="group" horiz-adv-x="1364" d="M1083.792-27.429h46.265c-12.519 151.034-102.872 287.186-237.858 357.742l-13.063 6.615 11.43 9.371c77.29 62.288 120.834 154.342 120.834 252.459 0 179.147-145.328 324.669-323.857 324.669-178.53 0.551-323.857-145.522-323.857-324.669 0-98.668 44.088-190.171 120.834-252.459l11.43-9.371-13.063-6.615c-134.442-70.556-225.339-206.708-237.858-357.742h46.265c13.607 148.278 111.037 278.366 249.833 333.488l3.81 1.654 3.81-1.654c44.088-20.946 90.898-31.971 138.796-31.971s94.708 11.024 138.796 31.971l3.81 1.654 3.81-1.654c138.796-55.122 236.225-185.21 249.833-333.488zM687.543 320.943c-152.948 0-277.592 124.576-277.592 278.366 0 153.239 124.644 278.366 277.592 278.366s277.592-124.576 277.592-278.366c0-153.791-124.1-278.366-277.592-278.366zM1307.317 221.257h31.198c-4.914 59.252-40.384 112.665-93.374 140.345l-5.128 2.595 4.487 3.676c30.341 24.436 47.435 60.549 47.435 99.042 0 70.281-57.050 127.37-127.134 127.37-70.084 0.216-127.134-57.089-127.134-127.37 0-38.708 17.307-74.606 47.435-99.042l4.487-3.676-5.128-2.595c-52.777-27.68-88.46-81.093-93.374-140.345l33.531 2.763c5.342 58.171 48.342 100.721 102.828 122.346l-18.627 6.37 1.496-0.649c17.307-8.217 35.683-12.542 54.486-12.542s27.287 1.485 41.265 6.821c5.32-2.111 9.216-4.088 14.255-6.821 5.623-3.050 10.868-6.198 15.010-10.746 20.891-22.942 67.667-60.503 71.987-107.541zM1166.438 370.358c-54.595 0-99.088 43.305-99.088 96.766 0 53.269 44.492 96.766 99.088 96.766s99.088-43.305 99.088-96.766c0-53.461-44.298-96.766-99.088-96.766zM352.802 221.257h31.198c-4.914 59.252-40.384 112.665-93.374 140.345l-5.128 2.595 4.487 3.676c30.341 24.436 47.435 60.549 47.435 99.042 0 70.281-57.050 127.37-127.134 127.37-70.084 0.216-127.134-57.089-127.134-127.37 0-38.708 17.307-74.606 47.435-99.042l4.487-3.676-5.128-2.595c-52.777-27.68-88.46-81.093-93.374-140.345l33.531 2.763c5.342 58.171 48.342 100.721 102.828 122.346l-18.627 6.37 1.496-0.649c17.307-8.217 35.683-12.542 54.486-12.542s27.287 1.485 41.265 6.821c5.32-2.111 9.216-4.088 14.255-6.821 5.623-3.050 10.868-6.198 15.010-10.746 20.891-22.942 67.667-60.503 71.987-107.541zM211.924 370.358c-54.595 0-99.088 43.305-99.088 96.766 0 53.269 44.492 96.766 99.088 96.766s99.088-43.305 99.088-96.766c0-53.461-44.298-96.766-99.088-96.766z" />
<glyph unicode="&#xe902;" glyph-name="individual" horiz-adv-x="947" d="M864.937-27.429h45.692c-12.364 151.034-101.597 287.186-234.91 357.742l-12.901 6.615 11.289 9.371c76.332 62.288 119.336 154.342 119.336 252.459 0 179.147-143.526 324.669-319.843 324.669-176.317 0.551-319.843-145.522-319.843-324.669 0-98.668 43.542-190.171 119.336-252.459l11.289-9.371-12.901-6.615c-132.775-70.556-222.546-206.708-234.91-357.742h45.692c13.439 148.278 109.66 278.366 246.736 333.488l3.763 1.654 3.763-1.654c43.542-20.946 89.771-31.971 137.075-31.971s93.534 11.024 137.075 31.971l3.763 1.654 3.763-1.654c137.075-55.122 233.297-185.21 246.736-333.488zM473.6 320.943c-151.052 0-274.151 124.576-274.151 278.366 0 153.239 123.099 278.366 274.151 278.366s274.151-124.576 274.151-278.366c0-153.791-122.562-278.366-274.151-278.366z" />
<glyph unicode="&#xe903;" glyph-name="licensed" horiz-adv-x="779" d="M554.52 535.944c0-11.726-9.003-20.787-20.654-20.787h-351.654c-11.651 0-20.654 9.061-20.654 20.787s9.003 20.787 20.654 20.787h350.066c11.651 1.066 22.243-7.995 22.243-20.787zM154.672 665.994v93.807c0 18.655 14.829 34.644 34.424 34.644h333.118c18.536 0 34.424-14.924 34.424-34.644v-93.807c0-18.655-14.829-34.644-34.424-34.644h-333.118c-19.595 0-34.424 14.924-34.424 34.644zM197.040 673.988h317.23v77.817h-317.23v-77.817zM695.923 188.433l-1.059-176.42c0-36.243-24.362-38.375-28.598-38.375-6.885 0-14.829 2.665-21.714 7.995l-57.726 49.035-55.608-46.37c-5.826-4.797-14.829-11.726-25.421-11.726-12.71 0-25.421 9.061-27.539 27.716 0 1.066 0 1.066 0 2.665v34.644h-385.019c-31.246 0-56.667 25.584-56.667 57.030v771.772c0 31.447 25.421 57.030 56.667 57.030h535.955c31.246 0 56.667-25.584 56.667-57.030v-434.921c17.477-12.792 31.246-29.848 41.309-49.568 34.954-65.025 19.595-145.507-31.246-193.476zM689.568 361.122c-9.003 17.589-23.302 32.512-39.19 42.639-3.707 2.665-6.885 3.731-9.003 5.863-1.059 0-2.648 1.066-3.707 1.066-4.766 2.665-7.944 3.731-12.71 5.863 0 0 0 0-1.059 0-24.362 7.995-51.901 7.995-76.262-1.066h-1.059c-4.766-2.665-9.003-3.731-13.77-6.929-39.19-20.787-60.904-61.294-60.904-103.4v0 0c0-18.655 4.766-37.309 13.77-55.964 2.648-4.797 4.766-7.995 7.944-12.792 1.059-1.066 1.059-2.665 2.648-3.731 2.648-3.731 4.766-5.863 6.885-7.995 1.059-1.066 1.059-1.066 2.648-2.665 3.707-3.731 6.885-6.929 10.592-9.061l1.059-1.066c3.707-2.665 5.826-4.797 9.003-6.929l1.059-1.066c1.059 0 1.059-1.066 2.648-1.066 1.059 0 2.648-1.066 3.707-1.066 1.059-1.066 3.707-1.066 4.766-2.665 26.48-12.792 56.667-14.924 85.266-6.929 1.059 0 3.707 1.066 4.766 1.066s1.059 0 2.648 1.066c1.059 0 2.648 1.066 3.707 1.066 3.707 1.066 6.885 3.731 10.592 4.797 3.707 2.665 6.885 3.731 9.003 5.863 3.707 2.665 5.826 4.797 9.003 6.929 39.72 36.776 53.49 98.070 25.95 148.172zM478.258 83.434v82.614h-296.046c-11.651 0-20.654 9.061-20.654 20.787s9.003 20.787 20.654 20.787h277.51c-1.059 2.665-2.648 3.731-4.766 5.863-1.059 1.066-2.648 2.665-2.648 3.731-2.648 2.665-3.707 5.863-5.826 9.061l-1.059 1.066c-2.648 4.797-4.766 9.061-6.885 14.924v0c-4.766 12.792-7.944 25.584-10.592 38.375h-245.734c-11.651 0-20.654 9.061-20.654 20.787s9.003 20.787 20.654 20.787h246.794c1.059 7.995 2.648 15.99 4.766 24.518 5.826 17.589 13.77 33.578 24.362 47.436h-275.392c-11.651 0-20.654 9.061-20.654 20.787s9.003 20.787 20.654 20.787h321.467c2.648 1.066 4.766 2.665 6.885 4.797 4.766 2.665 9.003 4.797 14.829 6.929h1.059c18.536 7.995 39.19 11.726 59.845 11.726 19.595 0 38.131-3.731 55.608-10.66v0 417.865c0 7.995-5.826 13.858-13.77 13.858h-534.896c-7.944 0-13.77-5.863-13.77-13.858v-768.041c0-7.995 5.826-13.858 13.77-13.858h385.019l-0.53-1.066zM653.555 159.119c-1.059 0-1.059 0-2.648-1.066 0 0-1.059 0-1.059-1.066h-1.059c-2.648-1.066-4.766-1.066-6.885-2.665-1.059 0-1.059 0-2.648-1.066-1.059 0-2.648-1.066-3.707-1.066 0 0 0 0-1.059 0 0 0 0 0-1.059 0s-1.059 0-2.648-1.066h-0.53c-1.059 0-2.648 0-3.707-1.066-1.059 0-3.707-1.066-5.826-1.066-1.059 0-3.707-1.066-4.766-1.066v0 0c-2.648 0-4.766-1.066-7.944-1.066-1.059 0-3.707 0-4.766-1.066h-1.059c-1.059 0-1.059 0-2.648 0v0c-1.059 0-1.059 0-2.648 0-3.707 0-6.885 0-9.003 0v0 0c-1.059 0-1.059 0-2.648 0-1.059 0-1.059 0-2.648 0v0 0c-3.707 0-7.944 0-11.651 1.066v0 0 0h-2.118c-14.829 1.066-29.658 5.863-42.368 11.726v0 0c-1.059 1.066-3.707 1.066-4.766 2.665v0l-1.059-126.319 51.901 44.238c3.707 3.731 9.003 4.797 13.77 4.797s10.592-1.066 13.77-4.797l51.901-44.238 1.589 124.187z" />
<glyph unicode="&#xe904;" glyph-name="quotes" horiz-adv-x="1042" d="M98.090 85.047v571.104h231.798v211.13h438.902v-461.023c7.231 0.557 14.554 1.024 21.974 1.024 13.446 0 26.491-1.252 39.34-3.013v518.89h-539.154l-254.271-244.466v-649.472h557.208c-15.047 16.782-27.644 35.564-37.125 55.826h-458.672zM268.47 820.356v-108.321h-112.585l112.585 108.321zM691.32 499.139h-519.728v-62.965h519.728v62.965zM661.467 374.774h-489.874v-62.976h413.863c20.425 25.423 46.209 46.835 76.011 62.976zM171.593 181.869h365.198c0.648 21.837 4.367 43.032 11.237 62.923h-376.434v-62.923zM790.758 377.362c-122.312 0-221.508-90.324-221.508-201.699 0-111.397 99.196-201.721 221.508-201.721 122.318 0 221.462 90.324 221.462 201.721 0 111.376-99.139 201.699-221.462 201.699zM758.468 53.854l-96.816 99.239 38.041 39.031 58.775-60.346 127.935 131.174 38.002-38.964-165.937-170.134z" />
<glyph unicode="&#xe905;" glyph-name="schedule" horiz-adv-x="1130" d="M37.106-27.429h1052.722v887.289h-334.69v63.569h-48.653v-63.569h-286.037v63.569h-48.118v-63.569h-335.759l0.535-887.289zM85.224 811.783h287.106v-63.569h48.118v63.569h287.106v-51.282h48.118v51.282h286.037v-154.915h-956.486v154.915zM85.224 608.257h956.486v-587.074h-956.486v587.074zM713.143 374.439l-34.314 33.332-140.422-140.735-94.494 94.176-34.314-33.332 128.808-128.566z" />
<glyph unicode="&#xe906;" glyph-name="separate" horiz-adv-x="1170" d="M429.714 744.229c-216.767 0-393.143-173.094-393.143-385.829s176.376-385.829 393.143-385.829c216.767 0 393.143 173.094 393.143 385.829s-175.927 385.829-393.143 385.829zM430.082 19.344c-191.328 0-347.258 152.122-347.258 338.778s155.93 338.778 347.258 338.778c191.328 0 347.258-152.122 347.258-338.778 0.448-186.656-155.482-338.778-347.258-338.778zM936.229 923.429c-111.010 0-201.143-88.494-201.143-197.486s90.133-197.486 201.143-197.486c111.010 0 201.143 88.494 201.143 197.486s-89.802 197.486-201.143 197.486zM937.378 566.826c-88.55 0-160.914 71.048-160.914 157.989s72.364 157.989 160.914 157.989c88.55 0 160.914-71.048 160.914-157.989s-72.046-157.989-160.914-157.989z" />
<glyph unicode="&#xe907;" glyph-name="shared" horiz-adv-x="1404" d="M1046.507 923.429c-91.959 0-177.465-37.193-239.846-104.034-83.892 67.379-188.22 104.034-295.775 104.034-261.357 0-474.315-213.458-474.315-475.429s212.958-475.429 474.315-475.429c102.714 0 200.589 32.342 282.868 93.792 73.137 54.442 127.99 127.212 160.256 211.302 30.115-9.164 61.306-13.476 92.497-13.476 181.229 0 328.579 147.695 328.579 329.35s-147.35 329.889-328.579 329.889zM918.423 335.398c-40.72 21.54-76.351 52.717-102.932 91.263-33.368 48.749-51.466 105.435-51.466 164.955 0 54.985 15.27 107.135 43.548 152.484 78.613-82.194 122.727-192.164 122.727-306.101 0-34.578-3.959-69.156-11.877-102.601zM757.029 104.929c-72.938-54.804-159.924-84.398-251.232-84.398-232.322 0-421.421 191.813-421.421 427.469s189.099 427.469 421.421 427.469c96.17 0 188.559-32.882 263.118-93.714-36.199-54.256-55.649-117.828-55.649-184.688 0-68.505 20.531-134.817 58.891-191.265 32.417-47.679 76.18-84.946 126.967-110.155-28.635-75.629-78.881-142.49-142.095-190.717zM1048.039 310.376c-26.869 0-53.737 3.896-79.486 11.132 10.076 39.519 15.673 80.707 15.673 121.896 0 129.688-52.058 254.367-143.299 345.65 53.737 56.773 127.626 88.5 207.112 88.5 157.293 0 285.478-127.462 285.478-283.867 0-155.849-128.185-283.311-285.478-283.311z" />
<glyph unicode="&#xe908;" glyph-name="student" horiz-adv-x="808" d="M36.571-27.429h731.429v344.313c0 110.329-85.307 202.537-194.31 208.4l-11.058 0.533 5.792 9.594c18.957 30.914 28.436 66.624 28.436 102.867v240.912h109.003v44.238h-607.154v-44.238h33.175v-194.009h43.707v194.009h32.122v-241.445c0-36.243 10.005-71.954 28.436-102.867l5.792-9.594-11.058-0.533c-109.003-6.396-194.31-98.070-194.31-208.4v-343.78zM421.975 481.822c-1.111 0-2.778-0.552-3.89-0.552s-2.778 0-4.446-0.552h-0.556c-0.556 0-1.667 0-2.223 0-2.778 0-5.001 0-7.224 0s-4.446 0-7.224 0c-0.556 0-1.111 0-2.223 0h-1.111c-1.111 0-2.778 0-4.446 0.552-1.111 0-2.778 0-3.89 0.552-1.111 0-2.223 0-3.334 0.552-1.667 0-3.334 0.552-4.446 0.552-0.556 0-1.667 0-2.223 0.552-1.667 0.552-3.334 0.552-5.001 1.103l-1.111 0.552c-7.78 1.655-15.56 3.862-23.339 7.173l-0.556 0.552c-0.556 0-1.111 0.552-1.667 0.552-1.111 0.552-1.667 0.552-2.778 1.103l-0.556 0.552c-1.111 0.552-2.223 1.103-3.334 1.655-0.556 0-1.111 0.552-2.223 1.103h-0.556c-1.667 0.552-3.334 1.655-5.001 2.759l-1.111 0.552c-2.223 1.103-3.89 2.207-6.113 3.31v0c-48.346 29.242-76.687 79.45-76.687 135.176v94.347h318.972v-94.347c0-55.725-28.896-105.933-76.687-135.176l-0.556-0.552c-1.667-1.103-3.89-2.207-6.113-3.31l-1.111-0.552c-1.667-0.552-3.334-1.655-5.001-2.759-0.556-0.552-1.667-0.552-2.223-1.103-1.111-0.552-2.223-1.103-3.334-1.655l-1.111-0.552c-0.556-0.552-1.667-0.552-2.778-1.103-0.556 0-1.111-0.552-1.667-0.552l-0.556-0.552c-7.78-2.759-15.56-5.517-23.339-7.173l-1.111-0.552c-1.667-0.552-3.334-0.552-5.001-1.103h-0.556c-0.556 0-1.111 0-2.223-0.552-1.667 0-2.778-0.552-4.446-0.552-2.223 0.552-2.778 0-3.89 0zM622.548 474.676l4.361-1.655c67.048-24.276 111.747-88.83 111.747-160.555v-310.628h-81.221v310.628h-45.244v-310.076h-184.246v215.729l194.603 256.558zM582.419 484.984l-155.095-190.349v149.521l6.462 0.552c21.149 2.759 41.711 8.828 61.098 17.104l1.175 0.552c2.35 1.103 4.112 2.207 6.462 2.759 0.587 0.552 1.762 0.552 2.35 1.103h0.587c0.587 0.552 1.762 1.103 2.937 1.103 8.812 4.414 17.037 9.38 24.674 14.897l1.762 1.103 47.586 1.655zM242.735 878.294h318.972v-109.796h-318.972v109.796zM279.985 482.952l1.635-1.103c7.086-5.517 14.718-10.483 22.894-14.897 0.545-0.552 1.635-1.103 2.726-1.103h0.545c0.545-0.552 1.635-0.552 2.18-1.103 2.18-1.103 3.816-2.207 5.996-2.759l1.090-0.552c17.989-8.828 37.067-14.345 56.691-17.104l5.996-0.552v-149.521l-143.908 188.694h44.154zM71.055 314.497c0 71.726 44.699 136.279 111.747 160.555l4.361 1.655 194.603-257.661v-215.729h-184.791v310.076h-45.244v-310.076h-80.676v311.18z" />
<glyph unicode="&#xe909;" glyph-name="contract" d="M66.867-26.86l626.503 175.686c6.979 2.149 12.348 6.984 15.569 12.894l111.128 244.456 25.769-25.789c4.832-4.835 10.737-6.984 17.179-6.984s12.348 2.686 17.179 6.984l100.391 100.469c9.126 9.134 9.126 24.714 0 33.848l-57.98 58.025 49.927 49.966-33.821 33.848-49.927-49.966-216.887 217.055 49.927 49.966-33.821 33.848-49.927-49.966-59.59 59.099c-9.663 9.134-24.695 9.134-34.358 0l-99.854-100.469c-9.126-9.134-9.126-24.714 0-33.848l25.769-25.789-244.266-111.214c-6.442-3.224-11.274-8.596-13.421-15.043v0l-175.013-627.526c-2.684-9.134 2.147-17.73 6.979-22.565s13.421-9.134 22.548-6.984zM575.632 849.904l349.625-350.059-66.391-66.474-365.152 366.141 57.825 57.896 8.031 7.505 6.96-6.969 9.102-8.041zM256.512 604.521l249.664 114.108 276.452-277.733-113.581-250.821-526.116-148.017 272.166 273.427 6.429-1.615c20.895-5.382 42.325 0 57.326 15.071 23.038 23.144 23.038 61.36 0 84.504-11.251 11.303-26.252 17.762-41.789 17.762-16.073 0-30.538-5.921-41.789-17.762-15.001-15.071-20.359-36.601-15.001-57.592l1.607-6.459-272.166-273.427 146.798 528.555z" />
<glyph unicode="&#xe90a;" glyph-name="policies" horiz-adv-x="1046" d="M768.715 34.349h-663.28v827.35h501.938v-125.457c0-12.709 11.448-22.969 25.534-22.969h135.768v-142.024l68.811 95.835v80.353c0 4.936-2.177 9.628-6.047 13.145l-175.555 157.469c-3.858 3.422-9.105 5.377-14.616 5.377h-542.721c-34.218 0-61.976-24.925-61.976-55.518v-839.72c0-30.689 27.757-55.619 61.976-55.619h677.003c34.172 0 61.924 24.925 61.924 55.619v238.396l-68.765-94.475v-137.762h0.006zM913.38 481.124l-28.438 16.638c-4.663 2.739-10.805 1.558-13.874-2.548l-153.135-210.474-29.394 17.212 153.083 210.48c3.080 4.207 1.698 9.787-2.907 12.521l-28.438 16.686c-4.663 2.691-10.857 1.516-13.874-2.59l-229.274-315.18c-0.956-1.367-1.485-2.888-1.589-4.5l-5.987-109.397c-0.155-3.128 1.537-6.207 4.502-7.925 3.017-1.761 6.781-1.952 9.953-0.537l109.136 48.829c1.583 0.734 2.907 1.808 3.92 3.128l229.222 315.127c3.068 4.213 1.744 9.792-2.907 12.532zM1008.452 608.593l-103.705 60.998c-4.679 2.766-10.921 1.576-13.943-2.611l-69.999-96.36c-2.982-4.187-1.708-9.811 2.994-12.572l103.635-61.046c4.69-2.718 10.978-1.533 14.007 2.659l69.93 96.354c3.092 4.198 1.714 9.87-2.918 12.577zM204.563 725.943h197.96c14.016 0 25.363 9.8 25.363 21.917 0 12.122-11.346 21.969-25.363 21.969h-197.96c-14.068 0-25.363-9.847-25.363-21.969 0-12.117 11.294-21.917 25.363-21.917zM577.829 634.517c0 12.101-11.274 21.94-25.259 21.94h-348.157c-13.985 0-25.213-9.834-25.213-21.94s11.228-21.945 25.213-21.945h348.157c13.985 0.005 25.259 9.839 25.259 21.945zM204.563 499.2h197.96c14.016 0 25.363 9.844 25.363 21.963s-11.346 21.922-25.363 21.922h-197.96c-14.068 0-25.363-9.798-25.363-21.922 0-12.119 11.294-21.963 25.363-21.963zM204.563 385.829h197.96c14.016 0 25.363 9.847 25.363 21.969s-11.346 21.917-25.363 21.917h-197.96c-14.068 0-25.363-9.795-25.363-21.917s11.294-21.969 25.363-21.969zM224.343 87.91c15.587 18.043 28.438 37.44 39.177 57.95 6.737-3.733 15.53-3 22.743-0.432 10.424 3.68 19.279 10.761 27.694 17.167 4.952 3.78 10.739 10.081 17.585 10.666 5.266 0.49 12.382-3.301 17.591-4.171 13.744-2.035 29.801 1.497 43.018 4.461 12.588 2.715 27.276 7.181 34.695 17.362 4.425 6.063-6.423 11.689-10.842 5.626-5.896-8.141-20.373-10.661-30.115-12.849-11.477-2.526-24.855-5.046-36.647-3.253-8.901 1.36-16.108 6.216-25.278 2.52-12.267-4.84-21.638-15.122-32.485-22.108-4.843-3.106-10.372-6.106-16.48-6.501-2.473-0.19-4.528 0.638-6.205 1.993 1.362 2.763 2.679 5.578 3.938 8.389 12.273 27.164 17.751 54.803 23.435 83.412 2.891 14.552 7.688 37.535-15.587 38.901-20.642 1.255-38.381-25.319-44.964-39.381-5.902-12.517-6.531-27.059-6.108-40.451 0.309-8.336 3.629-16.972 6.108-25.598-19.743-2.863-37.174-20.763-34.122-38.41 3.057-17.468 27.379-8.441 36.441-2.040 9.21 6.596 12.216 14.742 12.319 23.468 1.792-2.663 3.314-5.916 4.946-8.916-10.63-21.343-23.899-41.563-39.698-59.849-4.952-5.636 3.893-13.682 8.844-7.956zM240.557 159.51c-1.888-7.232-12.615-14.33-21.085-15.034-6.63-0.524-2.585 9.596-1.295 11.862 4.156 7.098 14.344 11.724 22.973 13.718 0.381-3.546 0.328-7.098-0.592-10.547zM247.492 182.269c-2.069 8.86-5.002 17.709-5.782 25.789-1.436 15.544 1.649 31.846 10.111 45.418 5.316 8.467 16.145 21.553 27.653 22.604 10.212 1.015 3.97-21.6 3.096-26.166-2.731-14.001-4.688-27.908-8.563-41.757-3.505-12.897-8.048-25.685-13.409-38.101-2.894 6.443-6.612 10.58-13.106 12.212z" />
<glyph unicode="&#xe90b;" glyph-name="info" d="M580.556 264.342l-43.284-18.843 56.284 285.714c3.103 15.739-3.206 31.838-16.258 41.234-12.944 9.39-30.26 10.364-44.235 2.523l-104.283-58.721c-19.788-11.161-26.758-36.211-15.631-55.999 11.155-19.783 36.211-26.781 55.971-15.631l26.553 14.919-54.183-275.082c-2.973-14.999 2.631-30.42 14.549-39.986 7.42-6.013 16.554-9.054 25.762-9.054 5.552 0 11.133 1.156 16.389 3.417l115.148 50.157c20.842 9.054 30.312 33.261 21.314 54.046-9.1 20.836-33.301 30.363-54.097 21.309v0zM553.245 651.713c15.523 0 30.522 6.207 41.467 17.129 10.893 10.922 17.26 26.075 17.26 41.57 0 15.506-6.366 30.659-17.26 41.444-10.945 10.922-26.098 17.26-41.467 17.26-15.5 0-30.63-6.338-41.552-17.26-10.916-10.791-17.157-25.938-17.157-41.444 0-15.5 6.235-30.648 17.157-41.57s26.058-17.129 41.552-17.129zM511.989 960c-282.297 0-511.989-229.686-511.989-511.983 0-282.354 229.692-512.017 511.989-512.017 282.291 0 512.011 229.663 512.011 512.017-0.006 282.297-229.726 511.983-512.011 511.983zM511.989 29.941c-230.512 0-418.047 187.564-418.047 418.076 0 230.506 187.536 418.047 418.047 418.047 230.506 0 418.070-187.541 418.070-418.047-0.057-230.512-187.564-418.076-418.070-418.076z" />
<glyph unicode="&#xe90c;" glyph-name="agent" d="M668.746 416.624h-313.548c-17.334 0-31.365-14.025-31.365-31.308 0-17.328 14.031-31.354 31.365-31.354h313.548c17.334 0 31.365 14.025 31.365 31.354-0.006 17.283-14.037 31.308-31.365 31.308zM731.464 604.774h-438.991c-17.277 0-31.359-14.037-31.359-31.365 0-17.283 14.082-31.331 31.359-31.331h438.991c17.334 0 31.365 14.048 31.365 31.331 0 17.328-14.031 31.365-31.365 31.365zM512 949.682c-277.092 0-501.67-196.521-501.67-438.969 0-138.546 73.498-261.922 188.059-342.402v-221.993l219.829 133.341c30.38-5.005 61.688-7.898 93.776-7.898 277.081 0 501.665 196.527 501.665 438.952 0.006 242.447-224.578 438.969-501.659 438.969zM512 134.435c-36.627 0-72.012 4.282-106.002 11.503l-147.617-88.72 2.010 145.465c-113.166 68.020-187.387 180.52-187.387 308.036 0 207.791 196.578 376.273 439.003 376.273 242.419 0 438.94-168.482 438.94-376.273-0.006-207.831-196.527-376.284-438.946-376.284z" />
<glyph unicode="&#xe90d;" glyph-name="current" d="M753.274 4.675h-655.876v886.707h496.335v-134.458c0-13.621 11.321-24.617 25.249-24.617h134.253v-152.213l68.043 102.711v86.117c0 5.29-2.153 10.318-5.979 14.088l-173.596 168.767c-3.815 3.667-9.003 5.763-14.453 5.763h-536.663c-33.836 0-61.284-26.713-61.284-59.501v-899.963c0-32.891 27.447-59.61 61.284-59.61h669.446c33.791 0 61.232 26.713 61.232 59.61v255.499l-67.998-101.253v-147.646zM897.27 484.143l-28.131 17.812c-4.613 2.933-10.688 1.668-13.724-2.728l-151.478-225.33-29.076 18.427 151.427 225.335c3.047 4.504 1.68 10.478-2.876 13.405l-28.131 17.864c-4.613 2.881-10.74 1.623-13.724-2.773l-226.793-337.425c-0.945-1.463-1.469-3.092-1.572-4.818l-5.922-117.118c-0.154-3.348 1.52-6.645 4.453-8.485 2.984-1.885 6.708-2.090 9.846-0.575l107.956 52.275c1.566 0.786 2.876 1.936 3.878 3.348l226.742 337.368c3.035 4.51 1.725 10.483-2.876 13.416zM990.192 622.364l-101.988 64.792c-4.601 2.938-10.74 1.674-13.712-2.773l-68.84-102.352c-2.933-4.447-1.68-10.421 2.944-13.354l101.919-64.843c4.613-2.887 10.797-1.629 13.775 2.824l68.772 102.346c3.041 4.459 1.686 10.483-2.87 13.359zM196.499 745.353h194.631c13.781 0 24.936 10.842 24.936 24.247 0 13.41-11.155 24.304-24.936 24.304h-194.631c-13.832 0-24.936-10.893-24.936-24.304 0-13.405 11.104-24.247 24.936-24.247zM565.813 648.297c0 13.405-11.15 24.304-24.982 24.304h-344.332c-13.832 0-24.936-10.893-24.936-24.304s11.104-24.31 24.936-24.31h344.332c13.832 0.006 24.982 10.899 24.982 24.31zM196.499 502.684h194.631c13.781 0 24.936 10.893 24.936 24.304s-11.155 24.258-24.936 24.258h-194.631c-13.832 0-24.936-10.842-24.936-24.258 0-13.41 11.104-24.304 24.936-24.304zM196.499 381.375h194.631c13.781 0 24.936 10.893 24.936 24.304s-11.155 24.247-24.936 24.247h-194.631c-13.832 0-24.936-10.837-24.936-24.247s11.104-24.304 24.936-24.304zM215.877 59.251c15.506 19.486 28.29 40.436 38.973 62.588 6.702-4.032 15.449-3.24 22.624-0.467 10.37 3.975 19.179 11.622 27.55 18.541 4.926 4.083 10.683 10.888 17.493 11.52 5.239 0.53 12.317-3.565 17.499-4.504 13.672-2.198 29.645 1.617 42.794 4.818 12.522 2.933 27.134 7.756 34.514 18.752 4.402 6.549-6.389 12.625-10.785 6.076-5.865-8.792-20.267-11.514-29.959-13.877-11.417-2.728-24.725-5.45-36.456-3.513-8.855 1.469-16.024 6.714-25.147 2.722-12.203-5.228-21.525-16.332-32.316-23.877-4.818-3.354-10.318-6.594-16.394-7.021-2.46-0.205-4.504 0.689-6.173 2.153 1.355 2.984 2.665 6.025 3.918 9.060 12.209 29.338 17.659 59.188 23.313 90.086 2.876 15.717 7.648 40.539-15.506 42.014-20.534 1.355-38.181-27.345-44.73-42.532-5.871-13.519-6.497-29.224-6.076-43.688 0.308-9.003 3.61-18.33 6.076-27.647-19.64-3.092-36.98-22.425-33.945-41.484 3.041-18.866 27.237-9.117 36.251-2.204 9.162 7.124 12.152 15.922 12.254 25.346 1.782-2.876 3.297-6.389 4.92-9.629-10.575-23.051-23.774-44.889-39.491-64.638-4.926-6.087 3.872-14.777 8.798-8.593zM228.917 136.508c-1.834-8.012-12.254-15.876-20.483-16.656-6.44-0.581-2.511 10.632-1.258 13.143 4.037 7.864 13.934 12.989 22.317 15.199 0.37-3.929 0.319-7.864-0.575-11.685zM239.344 160.020c-2.101 9.646-5.079 19.281-5.871 28.079-1.458 16.924 1.674 34.674 10.267 49.451 5.398 9.219 16.394 23.467 28.079 24.611 10.37 1.105 4.032-23.518 3.143-28.489-2.773-15.244-4.761-30.386-8.695-45.465-3.559-14.043-8.172-27.965-13.615-41.484-2.938 7.016-6.714 11.52-13.308 13.297z" />
<glyph unicode="&#xe90e;" glyph-name="newpolicy" d="M88.936 57.747v613.134h230.005v226.668h435.506v-494.951c7.175 0.598 14.441 1.099 21.804 1.099 13.342 0 26.286-1.344 39.036-3.234v557.077h-534.983l-252.304-262.458v-697.269h552.898c-14.931 18.017-27.43 38.181-36.837 59.934h-455.124zM257.999 847.17v-116.292h-111.714l111.714 116.292zM677.578 502.314h-515.707v-67.599h515.707v67.599zM647.955 368.796h-486.085v-67.61h410.661c20.267 27.294 45.852 50.282 75.423 67.61zM161.871 161.694h362.372c0.643 23.444 4.333 46.199 11.15 67.553h-373.522v-67.553zM776.246 371.575c-121.366 0-219.795-96.971-219.795-216.543 0-119.595 98.429-216.566 219.795-216.566 121.372 0 219.749 96.971 219.749 216.566 0 119.572-98.372 216.543-219.749 216.543zM881.297 122.869h-72.439v-71.448h-65.167v71.448h-72.53v64.216h72.53v71.483h65.167v-71.483h72.439v-64.216z" />
<glyph unicode="&#xe90f;" glyph-name="notifications" d="M512-60.754c53.277 0 96.908 45.806 96.908 101.777h-193.817c0-55.971 43.625-101.777 96.908-101.777zM826.943 244.531v279.837c0 157.668-101.731 284.854-242.265 320.484v35.63c0 40.693-33.928 76.277-72.678 76.277s-72.684-35.585-72.684-76.277v-35.63c-140.533-35.63-242.265-162.822-242.265-320.484v-279.837l-96.908-101.731v-50.908h823.697v50.908l-96.897 101.731zM730.035 193.623h-436.076v330.745c0 127.191 96.908 228.923 218.041 228.923s218.041-101.731 218.041-228.923v-330.745z" />
<glyph unicode="&#xe910;" glyph-name="receipts" d="M1017.992 363.318l-444.606-181.294c0 0 2.517-179.21-136.73-159.519 0-0.108-0.057-0.211-0.159-0.262-68.083 11.577-103.952 68.55-166.215 234.714-71.431 190.462-145.949 395.127-177.268 493.106l501.431 129.196 208.474-536.463 73.424 27.026-220.005 564.212c-6.543 18.33-25.346 28.911-44.303 25.244l-577.099-140.505c-10.893-2.204-20.318-8.957-26.086-18.592-5.655-9.635-7.016-21.263-3.61-31.946 0.997-3.035 97.147-286.351 191.932-539.18 65.566-175.019 117.932-284.153 266.871-287.712 55.248-2.511 106.048 21.889 106.15 21.946l325.472 149.195c0-0.006 153.859 48.642 122.328 250.835zM468.756 673.865c-5.66 21.052-27.442 33.415-48.027 27.652l-169.359-52.788c-20.79-5.763-33.147-27.436-27.442-48.494 4.761-17.493 20.477-29.065 37.652-29.065 3.457 0 6.964 0.473 10.37 1.418l169.359 52.788c20.899 5.763 33.102 27.493 27.447 48.488zM331.235 403.071c4.089 0.057 8.063 0.678 12.146 2.044l168.522 60.748c20.42 6.913 31.473 29.218 24.714 49.952-6.907 20.637-28.951 31.735-49.536 24.879l-168.419-60.743c-20.529-6.913-31.525-29.281-24.714-49.906 5.45-16.548 20.842-27.026 37.287-26.975zM394.7 238.581c4.089 0 8.177 0.53 12.203 1.993l168.886 60.538c20.426 6.702 31.684 29.116 24.93 49.747-6.708 20.745-28.803 32.054-49.337 25.141l-168.829-60.538c-20.529-6.759-31.735-29.065-24.982-49.804 5.393-16.605 20.688-27.077 37.128-27.077zM557.681 662.459c23.928 0 43.358 19.059 43.358 42.521s-19.429 42.526-43.358 42.526c-23.939 0-43.363-19.065-43.363-42.526-0.006-23.467 19.424-42.521 43.363-42.521zM662.311 546.822c0 23.518-19.378 42.526-43.363 42.526-23.877 0-43.306-19.008-43.306-42.526 0-23.461 19.429-42.521 43.306-42.521 23.985 0 43.363 19.059 43.363 42.521zM684.405 341.115c23.883 0 43.363 19.019 43.363 42.532 0 23.455-19.481 42.521-43.363 42.521-23.985 0-43.363-19.065-43.363-42.521 0-23.512 19.378-42.532 43.363-42.532z" />
<glyph unicode="&#xe911;" glyph-name="account" d="M994.742-59.946c-11.013 165.731-110.33 315.866-259.588 392.895 84.227 67.331 132.447 166.893 132.447 273.846 0 194.198-159.519 352.185-355.596 352.185-196.083 0-355.607-157.993-355.607-352.185 0-106.959 48.215-206.509 132.459-273.846-149.2-77.006-248.535-227.152-259.593-392.895l-0.205-3.035h69.911l0.205 2.631c11.947 154.906 114.071 291.915 260.328 349.378 48.386-22.846 99.687-34.429 152.503-34.429s104.117 11.583 152.498 34.429c146.262-57.474 248.387-194.471 260.333-349.378l0.199-2.631h69.905l-0.199 3.035zM512 889.77c157.583 0 285.788-126.941 285.788-282.975s-128.205-282.975-285.788-282.975-285.782 126.941-285.782 282.975c0 156.034 128.199 282.975 285.782 282.975z" />
<glyph unicode="&#xe912;" glyph-name="settings-filled" d="M882.276 577.446l-17.351 42.036c59.479 137.208 55.532 141.268 43.978 153.175l-76.004 75.748-7.574 6.492h-8.775c-4.635 0-18.541 0-134.065-53.471l-42.515 17.488c-55.003 139.002-60.635 139.024-76.727 139.024h-107.249c-16.087 0-22.328 0.017-73.316-139.503l-42.361-17.522c-78.060 33.631-123.866 50.669-136.2 50.669l-10.153-0.325-81.778-81.778c-12.408-11.913-16.736-16.11 46.193-151.165l-17.317-41.883c-139.229-54.906-139.229-60.213-139.229-77.023v-107.249c0-16.839 0-22.732 139.691-73.794l17.311-41.809c-59.484-137.151-55.464-141.245-43.933-153.004l76.038-75.879 7.545-6.6h8.849c4.595 0 18.308 0 133.985 53.545l42.475-17.602c55.003-138.985 60.629-138.945 76.761-138.945h107.244c16.429 0 22.214 0 73.35 139.48l42.595 17.567c77.986-33.7 123.638-50.755 135.932-50.755l10.227 0.302 82.393 82.279c11.725 12.027 15.814 16.246-46.769 150.721l17.203 41.923c139.423 54.946 139.423 60.737 139.423 77.12v107.136c0.006 16.856 0.006 22.772-139.879 73.601zM511.994 313.861c-74.461 0-134.936 60.179-134.936 134.139 0 73.931 60.481 134.065 134.936 134.065 74.313 0 134.754-60.133 134.754-134.065 0-73.96-60.447-134.139-134.754-134.139z" />
<glyph unicode="&#xe913;" glyph-name="logout" d="M409.392 19.959h-260.886v856.076h260.886c22.766 0 40.596 17.824 40.596 40.579s-17.835 40.584-40.596 40.584h-301.487c-22.761 0-40.596-17.829-40.596-40.584v-937.222c0-22.761 17.835-40.59 40.596-40.59h301.487c22.766 0 40.596 17.829 40.596 40.59 0 22.374-18.211 40.567-40.596 40.567zM951.618 456.382c-0.103 0.467-0.199 0.894-0.313 1.304-0.695 3.531-1.993 6.178-2.836 7.631-0.382 0.763-0.769 1.424-1.133 2.010-0.74 1.566-1.6 3.007-2.369 3.992-0.541 0.774-1.059 1.429-1.743 2.283l-0.814 1.213-169.444 169.467c-7.733 7.739-17.943 11.998-28.757 11.998-10.78 0-20.995-4.259-28.751-11.998-7.733-7.733-11.998-17.943-11.998-28.751s4.265-21.018 11.998-28.751l98.281-98.195h-538.337c-22.766 0-40.601-17.824-40.601-40.579 0-22.761 17.835-40.584 40.601-40.584h538.337l-98.286-98.195c-16.098-16.121-16.098-41.393 0.028-57.542 7.636-7.596 18.057-11.964 28.58-11.964 10.939 0 21.77 4.63 28.734 12.163l167.349 167.229c1.919 1.925 3.405 3.941 4.356 5.381 0.558 0.746 1.036 1.469 1.446 2.158 1.002 1.327 1.885 2.762 2.699 4.379 0.518 1.031 0.9 1.942 1.184 2.722l1.982 3.935v2.711c0.678 3.223 0.678 5.928 0.678 7.613-0.011 1.612-0.011 4.92-0.871 8.371z" />
<glyph unicode="&#xe914;" glyph-name="tyc" d="M924.649 911.238c0 22.311-18.262 40.573-40.584 40.573h-744.14c-22.317 0-40.584-18.256-40.584-40.573v-933.116c0-22.311 18.268-40.562 40.584-40.562h744.152c22.328 0 40.59 18.251 40.59 40.562v933.116h-0.017zM843.48 18.701h-662.96v851.965h662.96v-851.965zM329.339 634.009h365.305c22.328 0 40.59 18.256 40.59 40.567 0 22.317-18.262 40.573-40.59 40.573h-365.305c-22.322 0-40.59-18.256-40.59-40.573 0.006-22.311 18.274-40.567 40.59-40.567zM329.339 417.631h365.305c22.328 0 40.59 18.256 40.59 40.573s-18.262 40.573-40.59 40.573h-365.305c-22.322 0-40.59-18.256-40.59-40.573s18.274-40.573 40.59-40.573zM329.339 187.741h365.305c22.328 0 40.59 18.256 40.59 40.573 0 22.311-18.262 40.567-40.59 40.567h-365.305c-22.322 0-40.59-18.256-40.59-40.567 0.006-22.317 18.274-40.573 40.59-40.573z" />
<glyph unicode="&#xe915;" glyph-name="tellfriends" d="M1021.819 305.183c-3.582 60.6-33.512 115.153-80.28 146.735 24.424 26.098 38.369 62.354 38.369 100.12 0 76.647-56.028 139.007-124.902 139.007-68.869 0-124.897-62.36-124.897-139.007 0-37.76 13.94-74.022 38.369-100.114-34.155-23.023-59.553-58.431-72.075-100.467-14.077 13.576-29.258 25.54-45.203 35.659 44.662 44.195 70.19 107.289 70.19 173.801 0 128.376-93.793 232.818-209.095 232.818-115.29 0-209.089-104.442-209.089-232.818 0-66.517 25.528-129.612 70.196-173.795-16.121-10.216-31.456-22.334-45.687-36.114-12.465 42.247-37.908 77.826-72.206 100.929 24.435 26.092 38.369 62.349 38.369 100.103 0 76.647-56.028 139.007-124.897 139.007-68.874 0-124.902-62.36-124.902-139.007 0-37.754 13.934-74.017 38.375-100.12-46.751-31.576-76.682-86.129-80.269-146.735l-0.592-9.988h38.267l0.592 8.678c3.616 52.862 34.207 100.245 78.071 121.127 31.969-15.819 68.954-15.819 100.929 0 40.584-19.287 69.86-61.039 76.767-109.504-38.745-51.347-61.307-113.735-65.258-180.526l-0.598-9.988h53.608l0.587 8.678c6.492 94.818 61.722 179.336 140.847 215.717 27.618-14.122 56.842-21.286 86.897-21.286s59.279 7.164 86.886 21.286c79.142-36.388 134.378-120.905 140.847-215.717l0.592-8.678h53.613l-0.592 9.988c-3.969 67.149-26.713 129.788-65.782 181.255 7.084 48.112 36.325 89.585 76.676 108.781 31.963-15.819 68.96-15.819 100.934 0 43.859-20.882 74.449-68.265 78.065-121.127l0.592-8.678h38.267l-0.581 9.982zM855.011 648.701c47.759 0 86.618-43.363 86.618-96.663s-38.859-96.663-86.618-96.663c-47.771 0-86.618 43.363-86.618 96.663s38.848 96.663 86.618 96.663zM512.302 734.329c85.747 0 155.504-77.798 155.504-173.419s-69.757-173.419-155.504-173.419-155.504 77.798-155.504 173.419c0 95.621 69.763 173.419 155.504 173.419zM168.994 648.701c47.754 0 86.618-43.363 86.618-96.663s-38.865-96.663-86.618-96.663c-47.765 0-86.624 43.363-86.624 96.663s38.865 96.663 86.624 96.663z" />
<glyph unicode="&#xe916;" glyph-name="feedback" d="M772.037 676.109h-520.103c-16.514 0-29.959-13.456-29.959-29.998 0-16.554 13.439-30.015 29.959-30.015h520.103c16.537 0 29.964 13.462 29.964 30.015-0.006 16.542-13.428 29.998-29.964 29.998zM772.037 417.979c16.537 0 29.964 13.45 29.964 30.004 0 16.542-13.422 30.015-29.964 30.015h-520.103c-16.514 0-29.959-13.467-29.959-30.015s13.439-30.004 29.959-30.004h520.103zM839.158 926.648h-654.327c-94.454 0-171.295-76.955-171.295-171.534v-404.124c0-94.574 76.841-171.506 171.295-171.506l418.992-0.011 1.577-1.56 199.5-199.773c5.666-5.655 13.188-8.781 21.195-8.781 3.958 0 7.818 0.763 11.457 2.289 11.224 4.664 18.507 15.534 18.507 27.709v180.884l4.692 0.604c85.337 10.785 149.713 83.936 149.713 170.145v404.124c-0.023 94.568-76.858 171.534-171.306 171.534zM950.536 350.989c0-61.489-49.957-111.497-111.384-111.497h-13.063c-16.537 0-29.97-13.473-29.97-30.015v-137.698l-9.162 9.185-149.548 149.736c-5.666 5.666-13.188 8.769-21.166 8.769h-431.412c-61.415 0-111.389 50.026-111.389 111.52v404.124c0 61.494 49.969 111.515 111.389 111.515h654.327c61.42 0 111.384-50.020 111.384-111.515v-404.124z" />
<glyph unicode="&#xe917;" glyph-name="about" d="M927.991 644.402l-94.682-288.316-94.67 288.316h-83.19l-94.67-288.316-94.67 288.316h-83.196l131.963-381.551h91.806l90.365 261.062 90.365-261.062h91.812l131.963 381.551zM219.732 324.641c-35.625 0-65.623 12.198-90.012 36.581s-36.575 54.149-36.575 89.295c0 35.14 12.306 63.829 36.934 86.060 24.623 22.231 53.665 33.347 87.142 33.347 33.461 0 66.699-14.344 99.693-43.033l47.338 58.095c-39.69 39.679-88.219 59.524-145.59 59.524-57.377 0-106.036-18.291-145.949-54.866-39.941-36.575-59.9-84.033-59.9-142.361 0-58.34 19.116-105.552 57.377-141.644 38.244-36.109 83.914-54.154 136.986-54.154 60.714 0 114.271 23.421 160.652 70.287l-47.338 51.637c-31.547-32.521-65.145-48.767-100.758-48.767z" />
<glyph unicode="&#xe918;" glyph-name="share" d="M512.023 953.844c-280.828 0-509.295-226.918-509.295-505.839s228.473-505.85 509.301-505.85c280.805 0 509.25 226.93 509.25 505.85-0.006 278.92-228.45 505.839-509.255 505.839zM512.023-4.299c-251.182 0-455.534 202.905-455.534 452.311 0 249.4 204.351 452.305 455.534 452.305 251.171 0 455.522-202.905 455.522-452.305 0-249.406-204.351-452.311-455.522-452.311zM767.089 505.81l-229.196 151.359c-14.128 9.248-32.965 10.17-47.885 2.295-15.278-8.12-24.771-23.803-24.771-40.932v-67.28c-127.14-4.464-229.179-108.309-229.179-235.318 0-22.635 2.335-52.287 20.546-80.89 1.572-2.477 4.299-3.952 7.203-3.952 0.239 0 0.478 0.011 0.723 0.028 3.166 0.273 5.922 2.272 7.152 5.205 37.327 88.799 109.254 143.016 193.549 146.513v-66.904c0-17.135 9.493-32.817 24.782-40.937 14.897-7.881 33.762-6.981 47.896 2.318l229.185 151.347c13.040 8.656 20.825 23.074 20.825 38.563 0.017 15.552-7.779 29.976-20.83 38.586zM512.034 437.602c-142.47 0-207.637-61.318-236.24-106.162 25.619 147.765 170.549 164.94 236.24 164.94 4.721 0 8.542 3.821 8.542 8.542v98.474c5.188-0.507 10.489-1.668 13.724-3.793l179.296-117.26c7.055-4.647 10.073-9.498 10.073-16.218 0-7.511-3.764-14.475-9.829-18.473l-179.586-109.704c-3.439-2.289-8.895-3.644-13.672-4.402v95.513c-0.006 4.715-3.827 8.542-8.547 8.542z" />
<glyph unicode="&#xe919;" glyph-name="policy-type" d="M645.302 448.211h-372.537c-14.686 0-26.61-11.896-26.61-26.605 0-14.658 11.924-26.616 26.61-26.616h372.537c14.652 0 26.616 11.958 26.616 26.616 0 14.709-11.958 26.605-26.616 26.605zM645.302 554.651h-372.537c-14.686 0-26.61-11.901-26.61-26.605 0-14.709 11.924-26.61 26.61-26.61h372.537c14.652 0 26.616 11.901 26.616 26.61 0 14.703-11.958 26.605-26.616 26.605zM645.302 341.776h-372.537c-14.686 0-26.61-11.953-26.61-26.616 0-14.64 11.924-26.61 26.61-26.61h372.537c14.652 0 26.616 11.97 26.616 26.61 0 14.663-11.958 26.616-26.616 26.616zM831.579 767.527h-53.226v53.22c0 29.366-23.854 53.226-53.226 53.226h-532.193c-29.361 0-53.22-23.86-53.22-53.226v-638.645c0-29.349 23.854-53.209 53.22-53.209h53.226v-53.232c0-29.355 23.854-53.215 53.215-53.215h532.204c29.355 0 53.215 23.854 53.215 53.215v638.65c0 29.366-23.86 53.215-53.215 53.215zM192.934 182.109v638.639h532.198v-638.645h-532.198zM831.579 75.668h-532.204v53.232h425.757c29.366 0 53.226 23.854 53.226 53.209v532.204h53.226v-638.645zM645.302 714.313h-266.102c-14.68 0-26.605-11.901-26.605-26.61 0-14.703 11.924-26.61 26.605-26.61h266.102c14.652 0 26.616 11.907 26.616 26.61 0 14.709-11.958 26.61-26.616 26.61z" />
<glyph unicode="&#xe91a;" glyph-name="past-claims" d="M1009.553 85.907l-462.151 770.221c-9.629 16.001-24.651 25.187-41.216 25.187-16.725 0-31.843-9.35-41.416-25.654l-450.124-769.873c-9.538-16.28-10.222-33.842-1.873-48.175 8.303-14.304 23.996-22.499 43.044-22.499h913.021c19.099 0 34.765 8.223 43.061 22.641 8.263 14.344 7.403 31.923-2.346 48.152zM930.879 74.854h-837.808c-8.331 0-11.696 5.797-7.522 12.944l413.258 706.739c4.18 7.152 11.007 7.198 15.255 0.103l424.174-706.955c4.288-7.090 1.002-12.83-7.357-12.83zM481.256 289.825c1.281-19.429 16.952-35.186 35.027-35.186 18.029 0 33.341 15.779 34.144 35.243l11.901 288.214c0.848 19.481-14.464 35.237-34.155 35.237h-32.726c-19.674 0-34.588-15.739-33.295-35.22l19.105-288.288zM528.537 219.311h-32.658c-19.691 0-35.653-15.757-35.653-35.283v-32.322c0-19.481 15.962-35.283 35.653-35.283h32.658c19.709 0 35.71 15.802 35.71 35.283v32.322c0 19.526-16.001 35.283-35.71 35.283z" />
<glyph unicode="&#xe91b;" glyph-name="yearly-revenues" d="M817.342 619.916c5.484 11.6 8.678 23.712 8.678 36.12v52.161c0 86.391-140.129 156.478-312.956 156.478-164.376 0-299.067-63.413-311.868-143.933-64.53-28.615-105.41-70.349-105.41-116.862v-52.167c0-48.386 44.012-91.63 113.041-120.307-5.507-11.622-8.713-23.746-8.713-36.165v-52.15c0-18.348 6.623-35.824 18.234-52.178-11.611-16.337-18.234-33.814-18.234-52.156v-52.156c0-78.777 116.531-143.967 268.123-154.849h89.659c151.586 10.882 268.129 76.072 268.129 154.849v52.156c0 18.644-6.879 36.427-18.786 52.987-0.114-0.108-0.199-0.273-0.313-0.359 8.758 12.431 15.637 25.369 17.818 39.064 57.315 25.426 95.94 61.119 103.975 101.327v83.316c-8.308 42.054-49.849 79.255-111.378 104.824zM513.071 838.6c169.063 0 286.875-68.715 286.875-130.403 0-61.637-117.807-130.397-286.875-130.397-169.057 0-286.881 68.761-286.881 130.397 0 61.688 117.824 130.403 286.881 130.403zM121.867 603.88c0 30.46 28.882 62.502 78.248 87.256v-35.095c0-86.385 140.118-156.478 312.956-156.478 25.83 0 50.783 1.725 74.785 4.687-47.833-18.387-108.599-30.767-179.102-30.767-169.068-0.006-286.887 68.766-286.887 130.397zM617.399 290.913c25.927 0 50.982 1.748 75.076 4.738-0.057 0-0.114-0.057-0.199-0.057-47.89-18.427-108.656-30.75-179.205-30.75-169.057 0-286.881 68.772-286.881 130.397 0 8.866 3.058 17.824 7.693 26.69 25.568-8.616 53.835-15.386 84.050-19.908 38.916-64.285 158.215-111.11 299.466-111.11zM513.071 108.348c-169.057 0-286.881 68.766-286.881 130.403 0 10.227 4.379 20.631 10.546 30.915-0.046 0.057-0.154 0.165-0.199 0.256 52.52-49.542 156.626-83.327 276.54-83.327 119.971 0 223.53 33.985 275.976 83.589 6.429-10.449 10.899-20.984 10.899-31.433-0.006-61.631-117.818-130.403-286.881-130.403zM617.399 369.155c-66.933 0-125.318 11.013-172.069 27.874 147.042 8.65 263.198 67.684 275.105 142.060 35.505 15.734 63.915 35.34 82.205 57.651 63.129-25.671 101.64-62.337 101.64-97.176-0.006-61.642-117.835-130.409-286.881-130.409zM555.648 656.554c-8.747-3.775-22.51-5.655-41.103-5.655-39.781 0-63.214 8.809-70.292 26.434l-76.408-8.149c15.426-28.017 55.418-43.449 120.062-46.148v-24.048h49.405v24.144c38.774 1.674 68.408 7.238 88.947 16.656 20.523 9.424 30.801 21.138 30.801 35.294 0 9.168-4.988 17.22-14.914 24.099-9.977 6.873-23.279 12.277-39.998 16.149-16.645 3.918-39.668 8.046-69.011 12.425-26.69 4.066-44.155 7.386-52.258 10.085-8.154 2.745-12.22 6.623-12.22 11.719 0 4.988 4.22 9.271 12.67 12.727 8.411 3.565 19.612 5.296 33.575 5.296 27.817 0 48.283-7.836 61.574-23.529l68.066 11.406c-16.252 22.926-52.013 35.664-107.232 38.415v18.644h-49.405v-18.644c-36.57-2.135-63.362-7.893-80.377-17.317-17.021-9.476-25.579-20.17-25.579-31.991 0-8.957 4.795-16.913 14.316-23.734 9.527-6.731 21.952-12.027 37.242-15.791 15.278-3.775 36.519-7.591 63.67-11.417 30.215-4.373 49.724-8.041 58.476-10.899 8.758-2.802 13.143-7.033 13.143-12.528-0.006-5.353-4.39-9.88-13.149-13.644z" />
<glyph unicode="&#xe91c;" glyph-name="business-size" d="M791.996 752.329c-5.182 5.159-11.309 7.744-18.382 7.744h-124.042v-70.833c0-18.564-6.953-35.311-20.107-48.448-13.143-13.149-29.907-20.096-48.448-20.096h-137.538c-18.547 0-35.3 6.953-48.454 20.090-13.154 13.149-20.107 29.896-20.107 48.454v70.839h-124.031c-7.084 0-13.217-2.585-18.387-7.744-5.171-5.193-7.762-11.309-7.762-18.37v-679.417c0-7.067 2.591-13.188 7.762-18.365s11.292-7.767 18.387-7.767h174.615c-0.638 3.007-1.025 6.104-1.025 9.35v118.974c0 11.873 4.322 22.157 13.018 30.864 8.684 8.656 18.968 13.006 30.858 13.006h87.774c11.879 0 22.157-4.373 30.858-13.006 8.684-8.707 13.029-18.991 13.029-30.864v-118.986c0-3.24-0.382-6.338-1.036-9.35h174.638c7.067 0 13.205 2.591 18.382 7.767 5.171 5.171 7.762 11.292 7.762 18.365v679.423c0 7.067-2.591 13.194-7.762 18.37zM353.677 150.863c0-4.299-1.577-8.029-4.704-11.144-3.155-3.16-6.868-4.704-11.161-4.704h-31.712c-4.294 0-8.023 1.543-11.15 4.704-3.149 3.126-4.709 6.845-4.709 11.144v31.701c0 4.282 1.56 8.006 4.709 11.144 3.126 3.138 6.856 4.704 11.15 4.704h31.712c4.294 0 8.006-1.566 11.161-4.704 3.126-3.155 4.704-6.862 4.704-11.144v-31.701zM353.677 277.69c0-4.294-1.577-8.018-4.704-11.133-3.155-3.155-6.868-4.721-11.161-4.721h-31.712c-4.294 0-8.023 1.566-11.15 4.721-3.149 3.138-4.709 6.839-4.709 11.133v31.707c0 4.288 1.56 7.995 4.709 11.155 3.126 3.126 6.856 4.698 11.15 4.698h31.712c4.294 0 8.006-1.572 11.161-4.698 3.126-3.16 4.704-6.868 4.704-11.155v-31.707zM353.677 404.523c0-4.305-1.577-8.018-4.704-11.144-3.155-3.143-6.868-4.709-11.161-4.709h-31.712c-4.294 0-8.023 1.566-11.15 4.709-3.149 3.126-4.709 6.839-4.709 11.144v31.707c0 4.288 1.56 8.006 4.709 11.138 3.126 3.138 6.856 4.715 11.15 4.715h31.712c4.294 0 8.006-1.577 11.161-4.715 3.126-3.138 4.704-6.85 4.704-11.138v-31.707zM353.677 531.361c0-4.299-1.577-8.029-4.704-11.138-3.155-3.155-6.868-4.715-11.161-4.715h-31.712c-4.294 0-8.023 1.56-11.15 4.715-3.149 3.121-4.709 6.839-4.709 11.138v31.707c0 4.288 1.56 8.001 4.709 11.15 3.126 3.126 6.856 4.704 11.15 4.704h31.712c4.294 0 8.006-1.577 11.161-4.704 3.126-3.149 4.704-6.862 4.704-11.15v-31.707zM353.677 658.188c0-4.299-1.577-8.029-4.704-11.144-3.155-3.149-6.868-4.709-11.161-4.709h-31.712c-4.294 0-8.023 1.555-11.15 4.709-3.149 3.126-4.709 6.845-4.709 11.144v31.707c0 4.282 1.56 8.006 4.709 11.144 3.126 3.132 6.856 4.704 11.15 4.704h31.712c4.294 0 8.006-1.566 11.161-4.704 3.126-3.149 4.704-6.862 4.704-11.144v-31.707zM480.532 277.69c0-4.294-1.572-8.018-4.704-11.133-3.149-3.155-6.862-4.721-11.155-4.721h-31.712c-4.299 0-8.012 1.566-11.15 4.721-3.132 3.138-4.704 6.839-4.704 11.133v31.707c0 4.288 1.566 7.995 4.704 11.155 3.143 3.126 6.856 4.698 11.15 4.698h31.712c4.288 0 8.012-1.572 11.155-4.698 3.126-3.16 4.704-6.868 4.704-11.155v-31.707zM480.532 404.523c0-4.305-1.572-8.018-4.704-11.144-3.149-3.143-6.862-4.709-11.155-4.709h-31.712c-4.299 0-8.012 1.566-11.15 4.709-3.132 3.126-4.704 6.839-4.704 11.144v31.707c0 4.288 1.566 8.006 4.704 11.138 3.143 3.138 6.856 4.715 11.15 4.715h31.712c4.288 0 8.012-1.577 11.155-4.715 3.126-3.138 4.704-6.85 4.704-11.138v-31.707zM480.532 531.361c0-4.299-1.572-8.029-4.704-11.138-3.149-3.155-6.862-4.715-11.155-4.715h-31.712c-4.299 0-8.012 1.56-11.15 4.715-3.132 3.121-4.704 6.839-4.704 11.138v31.707c0 4.288 1.566 8.001 4.704 11.15 3.143 3.126 6.856 4.704 11.15 4.704h31.712c4.288 0 8.012-1.577 11.155-4.704 3.126-3.149 4.704-6.862 4.704-11.15v-31.707zM607.376 277.69c0-4.294-1.543-8.018-4.704-11.133-3.143-3.155-6.85-4.721-11.127-4.721h-31.724c-4.294 0-8.001 1.566-11.144 4.721-3.143 3.138-4.709 6.839-4.709 11.133v31.707c0 4.288 1.566 7.995 4.709 11.155 3.143 3.126 6.85 4.698 11.144 4.698h31.724c4.277 0 7.984-1.572 11.127-4.698 3.16-3.16 4.704-6.868 4.704-11.155v-31.707zM607.376 404.523c0-4.305-1.566-8.018-4.704-11.144-3.149-3.143-6.856-4.709-11.15-4.709h-31.701c-4.299 0-8.018 1.566-11.155 4.709-3.132 3.126-4.698 6.839-4.698 11.144v31.707c0 4.288 1.566 8.006 4.698 11.138 3.138 3.138 6.856 4.715 11.155 4.715h31.701c4.294 0 8.001-1.577 11.15-4.715 3.138-3.138 4.704-6.85 4.704-11.138v-31.707zM607.376 531.361c0-4.299-1.566-8.029-4.704-11.138-3.149-3.155-6.856-4.715-11.15-4.715h-31.701c-4.299 0-8.018 1.56-11.155 4.715-3.132 3.121-4.698 6.839-4.698 11.138v31.707c0 4.288 1.566 8.001 4.698 11.15 3.138 3.126 6.856 4.704 11.155 4.704h31.701c4.294 0 8.001-1.577 11.15-4.704 3.138-3.149 4.704-6.862 4.704-11.15v-31.707zM734.249 150.863c0-4.299-1.577-8.029-4.721-11.144-3.132-3.16-6.845-4.704-11.138-4.704h-31.718c-4.294 0-8.012 1.543-11.155 4.704-3.132 3.126-4.698 6.845-4.698 11.144v31.701c0 4.282 1.566 8.006 4.698 11.144 3.143 3.138 6.856 4.704 11.155 4.704h31.718c4.294 0 8.006-1.566 11.138-4.704 3.143-3.155 4.721-6.862 4.721-11.144v-31.701zM734.249 277.69c0-4.294-1.577-8.018-4.721-11.133-3.132-3.155-6.845-4.721-11.138-4.721h-31.718c-4.294 0-8.018 1.566-11.155 4.721-3.132 3.138-4.698 6.839-4.698 11.133v31.707c0 4.288 1.566 7.995 4.698 11.155 3.138 3.126 6.856 4.698 11.155 4.698h31.718c4.294 0 8.006-1.572 11.138-4.698 3.143-3.16 4.721-6.868 4.721-11.155v-31.707zM734.249 404.523c0-4.305-1.577-8.018-4.721-11.144-3.132-3.143-6.845-4.709-11.138-4.709h-31.718c-4.294 0-8.018 1.566-11.155 4.709-3.132 3.126-4.698 6.839-4.698 11.144v31.707c0 4.288 1.566 8.006 4.698 11.138 3.138 3.138 6.856 4.715 11.155 4.715h31.718c4.294 0 8.006-1.577 11.138-4.715 3.143-3.138 4.721-6.85 4.721-11.138v-31.707zM734.249 531.361c0-4.299-1.577-8.029-4.721-11.138-3.132-3.155-6.845-4.715-11.138-4.715h-31.718c-4.294 0-8.018 1.56-11.155 4.715-3.132 3.121-4.698 6.839-4.698 11.138v31.707c0 4.288 1.566 8.001 4.698 11.15 3.138 3.126 6.856 4.704 11.155 4.704h31.718c4.294 0 8.006-1.577 11.138-4.704 3.143-3.149 4.721-6.862 4.721-11.15v-31.707zM734.249 658.188c0-4.299-1.577-8.029-4.721-11.144-3.132-3.149-6.845-4.709-11.138-4.709h-31.718c-4.294 0-8.018 1.555-11.155 4.709-3.132 3.126-4.698 6.845-4.698 11.144v31.707c0 4.282 1.566 8.006 4.698 11.144 3.138 3.132 6.856 4.704 11.155 4.704h31.718c4.294 0 8.006-1.566 11.138-4.704 3.143-3.149 4.721-6.862 4.721-11.144v-31.707zM417.142 657.738c7.5-6.378 16.224-9.749 26.337-9.749h137.538c10.113 0 18.832 3.371 26.343 9.749 0.934 0.792 1.919 1.458 2.813 2.352 8.080 8.069 12.118 17.789 12.118 29.15v137.51c0 11.372-4.032 21.081-12.118 29.15-8.058 8.069-17.784 12.112-29.156 12.112h-137.538c-11.366 0-21.087-4.043-29.156-12.112s-12.112-17.784-12.112-29.15v-137.51c0-11.366 4.032-21.081 12.112-29.15 0.9-0.894 1.891-1.543 2.819-2.352zM438.889 822.166c0 2.483 0.917 4.635 2.728 6.446 1.805 1.811 3.963 2.722 6.44 2.722h18.336c2.483 0 4.635-0.911 6.44-2.722 1.817-1.817 2.722-3.963 2.722-6.446v-45.829h73.362v45.829c0 2.483 0.9 4.635 2.722 6.446 1.799 1.811 3.969 2.722 6.446 2.722h18.33c2.488 0 4.63-0.911 6.452-2.722 1.799-1.817 2.716-3.963 2.716-6.446v-128.342c0-2.488-0.911-4.63-2.716-6.446-1.817-1.817-3.969-2.722-6.452-2.722h-18.33c-2.494 0-4.641 0.905-6.446 2.722-1.817 1.817-2.722 3.963-2.722 6.446v45.829h-73.339v-45.829c0-2.488-0.911-4.63-2.728-6.446-1.811-1.817-3.963-2.722-6.44-2.722h-18.342c-2.483 0-4.63 0.905-6.435 2.722-1.822 1.817-2.728 3.963-2.728 6.446v66.255h-0.011v62.087z" />
<glyph unicode="&#xe91d;" glyph-name="location" d="M473.779 499.535h-265.863c-10.671 0-20.056-7.073-23.023-17.357l-51.011-177.098 357.692-39.246 28.057 134.685c-17.454 31.274-33.54 64.757-45.852 99.015zM807.85 231.132l107.42-11.782-32.077 111.361c-4.311-6.355-8.599-12.556-12.824-18.507-21.702-30.642-43.38-58.14-62.519-81.072zM574.895 313.281l-11.531-55.322 58.072-6.366c-14.584 18.165-30.095 38.466-45.652 60.418-0.285 0.41-0.587 0.843-0.888 1.27zM65.082 66.221c-2.090-7.255-0.655-15.073 3.867-21.109 4.527-6.048 11.622-9.595 19.15-9.595h355.476l33.227 159.433-363.164 39.827-48.557-168.556zM936.841 144.48l-388.248 42.589-31.576-151.552h419.385c13.234 0 23.968 10.768 23.968 24.031 0 2.881-0.513 5.638-1.424 8.189l-22.106 76.744zM713.128 200.599c2.54-2.733 6.139-4.294 9.874-4.294 3.758 0 7.334 1.555 9.908 4.294 21.833 23.296 64.951 71.483 108.155 132.476 54.439 76.824 119.299 189.477 119.299 289.865 0 131.223-106.475 237.977-237.368 237.977-130.853 0-237.339-106.754-237.339-237.977 0-100.462 64.951-213.189 119.436-290.064 43.204-60.993 86.214-109.037 108.035-132.277zM723.008 771.371c79.927 0 144.935-65.202 144.935-145.323 0-80.093-65.008-145.328-144.935-145.328-79.899 0-144.907 65.236-144.907 145.328 0 80.115 65.008 145.323 144.907 145.323z" />
<glyph unicode="&#xe91e;" glyph-name="employees-number" d="M219.681 707.65c46.723 0 84.585 37.936 84.585 84.734 0 46.791-37.862 84.722-84.585 84.722-46.717 0-84.591-37.931-84.591-84.722 0-46.803 37.874-84.734 84.591-84.734zM314.066 676.137h-188.771c-23.068 0-41.94-18.906-41.94-42.014v-181.357c0-23.108 18.177-42.008 41.94-42.008h8.399v-168.055c0-23.125 18.871-42.019 41.945-42.019h88.093c23.063 0 41.945 18.894 41.945 42.019v9.794c-7.693 14.703-12.585 31.513-12.585 49.024v219.874c0 42.708 25.87 79.825 62.912 95.929v16.804c-0.006 23.102-18.883 42.008-41.94 42.008zM805.526 707.65c46.712 0 84.585 37.936 84.585 84.734 0 46.791-37.868 84.722-84.585 84.722-46.723 0-84.585-37.931-84.585-84.722 0-46.803 37.862-84.734 84.585-84.734zM899.189 676.837h-188.743c-23.080 0-41.934-18.906-41.934-42.014v-16.799c37.042-16.11 62.907-53.22 62.907-95.929v-219.168c0-17.516-4.197-34.32-12.573-49.018v-9.806c0-23.114 18.866-42.014 41.923-42.014h88.099c23.068 0 41.945 18.9 41.945 42.014v168.043h8.377c23.080 0 41.962 18.911 41.962 42.014v180.662c0 23.108-18.883 42.014-41.962 42.014zM627.25 563.398h-228.598c-23.774 0-41.951-18.9-41.951-42.002v-219.869c0-23.114 18.871-42.014 41.951-42.014h16.075v-198.161c0-23.125 18.877-42.019 41.951-42.019h112.557c23.068 0 41.94 18.894 41.94 42.019v198.856h16.075c23.080 0 41.94 18.9 41.94 42.019v219.168c0.006 23.102-18.86 42.002-41.94 42.002zM512.604 598.413c53.665 0 97.17 43.568 97.17 97.33 0 53.75-43.511 97.335-97.17 97.335s-97.17-43.58-97.17-97.335c-0.006-53.756 43.506-97.33 97.17-97.33z" />
<glyph unicode="&#xe91f;" glyph-name="industry" d="M958.696 86.265h-679.092v411.071h8.883c13.063 0 23.655 10.603 23.655 23.683v15.21l356.331 216.378v-236.069h-59.718c-9.157 0-16.559-7.42-16.559-16.577v-100.866c0-9.151 7.403-16.577 16.559-16.577h152.566c9.128 0 16.548 7.426 16.548 16.577v100.872c0 9.151-7.426 16.577-16.548 16.577h-59.729v260.47l46.148 34.007c4.231 3.121 6.737 8.080 6.737 13.342v40.248c0 5.786-3.007 11.144-7.927 14.151-4.937 3.007-11.059 3.223-16.218 0.575l-489.718-252.578h-74.335c-13.069 0-23.655-10.592-23.655-23.678v-82.063c0-13.080 10.586-23.683 23.655-23.683h15.66v-411.071h-116.121c-19.606 0-35.494-15.91-35.494-35.511 0-19.612 15.893-35.516 35.494-35.516h892.879c19.6 0 35.471 15.905 35.471 35.516 0.006 19.606-15.882 35.511-35.471 35.511zM424.801 294.113c-12.067 0-21.838-9.783-21.838-21.855v-133.034c0-12.072 9.777-21.855 21.838-21.855h201.231c12.049 0 21.833 9.783 21.833 21.855v133.034c0 12.067-9.783 21.855-21.833 21.855h-201.231zM691.535 272.263v-133.034c0-12.072 9.783-21.855 21.833-21.855h201.231c12.072 0 21.833 9.783 21.833 21.855v133.034c0 12.067-9.76 21.855-21.833 21.855h-201.231c-12.049-0.006-21.833-9.789-21.833-21.855z" />
<glyph unicode="&#xe920;" glyph-name="your-contracts" d="M705.486 82.604h-525.342v731.231h397.559v-110.888c0-11.207 9.066-20.278 20.255-20.278h107.517l0.006-125.563 54.502 84.722v71.021c0 4.345-1.737 8.508-4.795 11.588l-139.030 139.178c-3.069 3.069-7.232 4.789-11.571 4.789h-429.892c-27.054 0-49.069-22.026-49.069-49.103v-742.164c0-27.083 22.009-49.109 49.069-49.109h536.23c27.037 0 49.058 22.026 49.058 49.109v210.706l-54.496-83.481v-121.759zM820.845 477.987l-22.522 14.737c-3.679 2.403-8.599 1.372-11.007-2.312l-121.298-185.816-23.324 15.267 121.298 185.81c2.397 3.684 1.355 8.61-2.318 11.019l-22.516 14.737c-3.679 2.403-8.604 1.367-11.013-2.318l-181.619-278.225c-0.769-1.184-1.219-2.551-1.287-3.958l-4.749-96.555c-0.131-2.819 1.236-5.529 3.593-7.055 2.369-1.543 5.37-1.725 7.893-0.456l86.442 43.107c1.258 0.632 2.329 1.594 3.103 2.773l181.625 278.231c2.414 3.673 1.372 8.61-2.301 11.013zM895.271 591.996l-81.681 53.437c-3.679 2.397-8.61 1.372-11.019-2.306l-55.094-84.398c-2.392-3.684-1.367-8.61 2.312-11.019l81.687-53.437c3.679-2.409 8.616-1.378 11.007 2.306l55.094 84.398c2.409 3.673 1.372 8.616-2.306 11.019zM259.536 693.403h155.909c11.036 0 19.982 8.963 19.982 20.005 0 11.053-8.952 20.016-19.982 20.016h-155.909c-11.036 0-19.982-8.963-19.982-20.016 0-11.042 8.946-20.005 19.982-20.005zM555.352 613.361c0 11.053-8.946 20.016-19.999 20.016h-275.817c-11.036 0-19.982-8.963-19.982-20.016 0-11.042 8.946-19.999 19.982-19.999h275.822c11.047 0.006 19.993 8.957 19.993 19.999zM259.536 493.316h155.909c11.036 0 19.982 8.952 19.982 20.010 0 11.042-8.952 20.005-19.982 20.005h-155.909c-11.036 0-19.982-8.963-19.982-20.005 0-11.053 8.946-20.010 19.982-20.010zM259.536 393.276h155.909c11.036 0 19.982 8.952 19.982 20.010 0 11.042-8.952 20.010-19.982 20.010h-155.909c-11.036 0-19.982-8.963-19.982-20.010 0-11.059 8.946-20.010 19.982-20.010zM275.065 127.618c12.414 16.053 22.67 33.352 31.24 51.615 5.341-3.371 12.357-2.682 18.114-0.41 8.303 3.269 15.329 9.595 22.038 15.312 3.952 3.383 8.564 8.969 14.043 9.498 4.185 0.404 9.84-2.967 14.014-3.69 10.933-1.862 23.7 1.304 34.258 3.918 10.017 2.477 21.747 6.389 27.641 15.472 3.525 5.421-5.136 10.427-8.627 5.045-4.709-7.272-16.246-9.527-24.036-11.457-9.134-2.255-19.737-4.493-29.161-2.881-7.101 1.207-12.835 5.495-20.141 2.244-9.777-4.356-17.243-13.519-25.881-19.714-3.867-2.768-8.28-5.438-13.109-5.803-1.987-0.159-3.61 0.575-4.966 1.788 1.071 2.471 2.13 4.943 3.126 7.448 9.743 24.213 14.151 48.807 18.684 74.33 2.289 12.961 6.116 33.381-12.442 34.628-16.4 1.105-30.574-22.579-35.818-35.061-4.687-11.161-5.21-24.122-4.857-36.040 0.228-7.437 2.898-15.13 4.863-22.818-15.734-2.523-29.611-18.444-27.174-34.218 2.397-15.517 21.781-7.505 29.025-1.765 7.323 5.814 9.703 13.080 9.783 20.91 1.458-2.409 2.676-5.302 3.946-8.006-8.451-18.963-19.037-36.985-31.633-53.272-3.884-5.034 3.138-12.175 7.073-7.073zM285.514 191.328c-1.475-6.611-9.823-13.126-16.383-13.735-5.171-0.473-2.016 8.758-0.997 10.825 3.206 6.492 11.15 10.728 17.829 12.545 0.302-3.257 0.262-6.492-0.45-9.635zM293.862 210.695c-1.703 7.949-4.060 15.944-4.675 23.165-1.179 13.963 1.293 28.586 8.206 40.795 4.316 7.613 13.126 19.31 22.465 20.301 8.342 0.894 3.252-19.401 2.528-23.495-2.238-12.59-3.827-25.090-6.936-37.544-2.887-11.554-6.56-23.006-10.933-34.201-2.318 5.808-5.353 9.521-10.654 10.979z" />
<glyph unicode="&#xe921;" glyph-name="checklist" d="M362.891 215.683l-186.362 183.629 73.225 72.223 113.137-111.663 246.262 242.721 73.151-72.098zM279.393 959.533l-253.289-263.488v-700.002h790.271v963.491h-536.982zM257.002 848.73v-116.753h-112.147l112.147 116.753zM755.296 402.416v-346.206l-668.022 0.006v615.542h230.853v227.55h437.169v-496.893z" />
<glyph unicode="&#xe922;" glyph-name="rdparty" d="M477.383 703.943h-247.982c-36.023-39.685-57.747-89.409-62.4-143.187h214.561c18.154 0 32.863-14.925 32.863-33.079s-14.709-33.193-32.863-33.193h-211.879c4.134-23.023 11.355-45.316 21.554-66.301h190.332c18.154 0 32.863-14.919 32.863-33.096 0-18.165-14.709-33.096-32.863-33.096h-143.312c0.421-0.433 0.871-0.86 1.31-1.304 47.372-47.463 110.062-73.646 177.126-73.646 45.949 0 91.060 12.334 128.137 35.368v314.271c0.006 37.845-29.719 67.263-67.445 67.263zM986.616 104.636l-221.475 221.378c-2.728 2.728-3.286 6.942-1.372 10.284 34.218 59.741 52.304 128.279 52.304 198.201 0 107.027-41.592 207.5-117.107 282.906-75.605 75.6-176.067 117.232-282.906 117.232-106.976 0-207.455-41.632-282.929-117.226-75.594-75.486-117.22-175.959-117.22-282.918 0-106.862 41.626-207.335 117.215-282.929 75.469-75.588 175.947-117.22 282.935-117.22 79.284 0 155.76 23.028 221.156 66.591 1.446 0.962 3.098 1.435 4.738 1.435 2.204 0 4.39-0.848 6.042-2.5l216.947-216.942c16.246-16.246 37.834-25.187 60.8-25.187 22.954 0 44.542 8.94 60.783 25.187 33.529 33.546 33.575 88.144 0.091 121.708zM646.366 304.152c-61.586-61.58-143.381-95.502-230.307-95.502-86.954 0-168.755 33.916-230.335 95.502-61.586 61.477-95.507 143.278-95.507 230.335 0 87.006 33.876 168.801 95.382 230.312 61.557 61.608 143.409 95.536 230.46 95.536 87.034 0 168.824-33.928 230.312-95.53 61.449-61.381 95.291-143.181 95.291-230.312 0.006-87.142-33.842-168.943-95.297-230.341z" />
<glyph unicode="&#xe923;" glyph-name="general-liability" d="M1009.553 85.907l-462.151 770.221c-9.629 16.001-24.651 25.187-41.216 25.187-16.725 0-31.843-9.35-41.416-25.654l-450.124-769.873c-9.538-16.28-10.222-33.842-1.873-48.181 8.303-14.304 23.996-22.499 43.044-22.499h913.021c19.099 0 34.765 8.228 43.067 22.647 8.257 14.344 7.397 31.917-2.352 48.152zM930.879 74.859h-837.808c-8.331 0-11.696 5.797-7.522 12.938l413.258 706.739c4.18 7.152 11.007 7.198 15.255 0.103l424.18-706.955c4.282-7.090 0.997-12.824-7.363-12.824zM481.256 289.825c1.281-19.429 16.952-35.186 35.027-35.186 18.029 0 33.341 15.779 34.144 35.237l11.901 288.219c0.843 19.481-14.464 35.237-34.155 35.237h-32.726c-19.674 0-34.588-15.739-33.295-35.22l19.105-288.288zM528.537 219.311h-32.658c-19.691 0-35.653-15.757-35.653-35.277v-32.322c0-19.486 15.962-35.289 35.653-35.289h32.658c19.709 0 35.71 15.802 35.71 35.289v32.322c0 19.521-16.001 35.277-35.71 35.277z" />
<glyph unicode="&#xe924;" glyph-name="property" d="M826.926 456.804c-15.267 0-27.083-11.742-27.083-27.049v-369.53h-192.034v150.892c0 14.156-11.81 26.536-26.103 26.536h-138.848c-15.273 0-27.578-12.38-27.578-26.536v-150.892h-191.544v357.259c0 14.265-11.805 26.115-27.083 26.115-14.276 0-26.092-11.85-26.092-26.115v-384.302c0-14.265 11.816-26.115 26.092-26.115h246.206c14.27 0 26.092 11.85 26.092 26.115v150.886h85.673v-150.886c0-14.265 11.816-26.115 27.083-26.115h245.22c14.27 0 26.092 11.85 26.092 26.115v396.573c0 15.307-11.822 27.049-26.092 27.049zM974.139 435.734l-213.684 214.225v146.069c0 15.204-12.317 26.946-27.584 26.946-14.282 0-26.103-11.748-26.103-26.946v-92.484l-176.272 177.001c-5.393 5.455-11.81 8.394-18.222 8.394-7.38 0-13.786-3.041-19.202-8.394l-442.653-441.884c-10.614-10.586-11.321-27.578 0-37.327 9.846-11.326 26.798-10.592 37.418 0l424.436 422.694 423.463-426.674c4.413-4.402 10.831-6.924 19.196-6.924 7.391 0 13.786 2.517 19.207 6.924 9.857 9.857 10.592 27.686 0 38.381z" />
<glyph unicode="&#xe925;" glyph-name="epli" d="M382.035 25.995h258.58c14.071 0 25.517 11.531 25.517 25.716s-11.452 25.716-25.517 25.716h-258.58c-14.082 0-25.534-11.531-25.534-25.716s11.452-25.716 25.534-25.716zM983.809 353.518h-11.366c10.643 5.831 15.967 18.723 12.004 30.71l-115.626 349.81h11.748c14.071 0 25.517 11.543 25.517 25.733 0 14.179-11.452 25.716-25.517 25.716h-343.712v72.297h66.147c18.968 0 34.4-15.648 34.4-34.879 0-14.179 11.452-25.716 25.517-25.716h47.184c14.071 0 25.517 11.537 25.517 25.716s-11.452 25.716-25.517 25.716h-25.505c-11.007 35.568-44.115 60.617-81.596 60.617h-66.147v6.514c0 14.179-11.457 25.716-25.54 25.716s-25.534-11.537-25.534-25.716v-6.52h-66.164c-37.47 0-70.577-25.050-81.59-60.617h-25.494c-14.088 0-25.545-11.537-25.545-25.716s11.463-25.716 25.545-25.716h47.156c14.082 0 25.534 11.537 25.534 25.716 0 19.23 15.426 34.879 34.395 34.879h66.158v-72.297h-343.695c-14.088 0-25.545-11.537-25.545-25.716 0-14.191 11.457-25.733 25.545-25.733h11.736l-115.637-349.799c-3.963-11.981 1.361-24.879 12.010-30.716h-11.355c-14.082 0-25.54-11.531-25.54-25.716s11.457-25.722 25.54-25.722h7.147c27.709-53.608 83.247-87.911 143.25-87.911 60.014 0 115.558 34.298 143.261 87.911h7.141c14.088 0 25.545 11.537 25.545 25.722s-11.463 25.716-25.545 25.716h-11.372c10.66 5.848 15.99 18.752 12.032 30.71l-115.643 349.81h261.119v-576.085h-86.425c-48.858 0-90.513-33.387-102.056-80.531h-1.782c-48.847 0-90.496-33.381-102.033-80.525h-71.574c-14.082 0-25.54-11.537-25.54-25.722s11.457-25.716 25.54-25.716h778.842c14.082 0 25.534 11.531 25.534 25.716s-11.457 25.722-25.534 25.722h-71.574c-11.52 47.139-53.169 80.525-102.022 80.525h-1.788c-11.526 47.144-53.186 80.531-102.067 80.531h-86.436v576.085h261.114l-115.62-349.799c-3.969-11.975 1.338-24.873 11.993-30.722h-11.355c-14.071 0-25.517-11.531-25.517-25.716s11.452-25.722 25.517-25.722h7.152c27.726-53.608 83.27-87.911 143.238-87.911 60.008 0 115.563 34.298 143.278 87.911h7.147c14.082 0 25.534 11.537 25.534 25.722s-11.452 25.716-25.528 25.716zM189.232 265.612c-30.813 0-60.589 13.627-81.402 36.473h162.822c-20.825-22.852-50.601-36.473-81.419-36.473zM86.647 367.987l102.586 310.337 102.597-310.331c2.096-6.344 6.463-11.434 12.015-14.475h-229.196c5.546 3.047 9.908 8.132 11.998 14.47zM295.508 25.995h24.219c14.088 0 25.545 11.531 25.545 25.716 0 30.226 24.258 54.809 54.075 54.809h223.94c29.81 0 54.069-24.583 54.069-54.809 0-14.179 11.469-25.716 25.562-25.716h24.224c20.346 0 38.523-11.486 47.748-29.093h-527.153c9.214 17.613 27.396 29.093 47.771 29.093zM730.792 367.987l102.591 310.337 102.62-310.354c2.101-6.327 6.463-11.412 11.993-14.453h-229.196c5.541 3.041 9.903 8.132 11.993 14.47zM833.384 265.612c-30.79 0-60.572 13.633-81.402 36.473h162.827c-20.813-22.846-50.595-36.473-81.425-36.473z" />
<glyph unicode="&#xe926;" glyph-name="us-map" d="M991.445 638.855c-1.338 1.703-2.773 3.012-3.377 3.553-8.997 8.228-21.593 11.298-46.176 11.298-15.984 0-32.071-1.35-32.749-1.412-9.39-0.797-17.619-6.161-22.208-14.071-10.717-0.746-37.156-1.686-71.437-1.686-49.075 0-75.104 1.97-85.804 3.548-1.424 1.441-2.967 2.79-4.618 4.032-8.895 6.68-20.762 10.073-35.271 10.073-4.977 0-8.661-0.404-9.669-0.53-2.283-0.279-4.504-0.831-6.617-1.634-12.972 20.904-38.198 37.418-39.764 38.432-11.247 7.272-21.303 10.808-30.744 10.808-2.551 0-5.057-0.256-7.483-0.769-10.398 0.945-43.187 11.343-67.588 20.625-3.229 1.23-6.663 1.862-10.119 1.862h-430.763c-11.702 0-21.872-7.090-26.223-17.374-1.105 0.114-2.232 0.171-3.377 0.171-13.006 0-24.532-7.744-29.366-19.731-5.364-13.302-0.216-26.012 1.475-30.186 1.811-4.453 4.060-8.826 6.235-13.052 1.577-3.058 4.094-7.949 5.023-10.478v-143.688c0-20.261 14.196-31.866 18.866-35.681 1.515-1.241 3.121-2.477 4.749-3.713 0.86-0.655 1.942-1.481 2.904-2.249-1.048-30.329 26.542-53.237 43.192-67.069l1.014-0.837c2.819-2.34 6.013-4.994 7.272-6.247 2.078-2.061 5.74-6.401 9.282-10.592 1.93-2.283 3.929-4.652 5.945-6.993 13.672-15.842 26.434-28.962 44.121-28.962 1.777 0 3.553 0.148 5.29 0.433 1.725 0.285 3.622 0.678 5.666 1.11 2.147 0.456 4.516 0.962 6.378 1.179 22.766-21.212 83.116-28.603 83.743-28.672 1.014-0.114 2.039-0.165 3.064-0.165h11.372c1.258 0 2.506 0.085 3.753 0.251l0.615 0.080c6.554 0.871 18.758 2.5 30.118 2.5 5.193 0 8.758-0.342 11.104-0.712 2.369-5.746 5.535-11.588 9.458-17.442 10.427-15.557 23.222-26.804 24.646-28.040 5.21-4.499 11.827-6.93 18.621-6.93 1.395 0 2.802 0.103 4.203 0.313 6.093 0.905 11.674 3.758 15.95 8.046 1.646-5.507 3.918-10.968 6.748-16.241 7.676-14.282 19.395-26.997 34.822-37.8 14.475-10.142 27.453-15.176 28.888-15.717 3.257-1.23 6.663-1.834 10.051-1.834 5.706 0 11.372 1.72 16.195 5.057 7.688 5.319 12.277 14.071 12.277 23.416 0 0.085 0.006 5.068 0.097 12.027 0.097 7.414 0.313 18.080 0.786 26.792 0 0.046 0 0.091 0.006 0.131 7.551 4.669 23.444 10.592 32.527 13.018 4.732-1.315 13.097-4.168 19.019-6.184 20.688-7.050 33.905-11.372 44.559-11.372 16.446 0 26.861 9.886 30.425 21.326 0.997 0.757 2.209 1.606 3.434 2.443 0.911-0.923 1.822-1.868 2.699-2.768 7.312-7.551 15.603-16.11 29.304-16.11 3.457 0 6.788 0.598 9.891 1.72 0.359-1.782 0.666-3.457 0.905-5.011 0.786-5.062 0.609-7.021 0.604-7.107-1.367-9.601 1.315-19.578 8.462-31.308 5.632-9.293 25.938-39.719 49.707-39.719 8.035 0 15.563 3.098 21.206 8.713 3.827 3.781 11.093 10.968 13.393 43.819 0.649 9.225 0.94 22.863-1.412 35.254-2.198 11.457-6.327 20.181-12.59 26.599-0.951 2.244-2.779 7.875-3.963 16.964-0.951 7.329-1.156 14.709-0.558 19.936 7.801 6.013 20.978 16.429 34.48 27.76 13.53 11.372 24.606 21.309 32.914 29.549 14.618 14.464 28.552 30.203 24.338 49.382-1.526 6.936-5.319 12.989-10.671 17.368 0.233 1.543 0.513 3.223 0.809 5.023 0.319 1.913 0.643 3.923 0.979 6.042 11.343 3.707 23.854 13.524 29.178 37.805 0.034 0 0.342 0.421 1.156 1.099 6.378 5.319 20.625 8.564 29.139 10.506 10.962 2.494 29.304 6.674 32.914 26.456 1.367 7.517-0.199 14.931-4.185 21.075 1.31 0.934 2.79 1.982 4.39 3.109 4.39 3.098 9.857 6.953 15.341 11.002 22.858 16.878 35.625 29.013 37.652 44.747 1.093 8.587-1.253 16.981-6.617 23.632zM943.475 593.374c-9.236-6.828-18.461-13.092-23.040-16.503-8.935-6.657-11.964-20.022-9.094-28.7 0.934-2.819 2.488-5.148 4.652-6.594 7.038-4.664-31.456-4.721-51.427-21.377-5.228-4.356-9.202-9.84-10.74-16.85-3.468-15.87-9.219-17.51-14.652-17.51-1.418 0-2.813 0.114-4.14 0.114-4.282 0-7.864-1.162-9.197-10.956-0.051-0.359-0.108-0.689-0.142-1.065-1.219-10.905-3.178-19.788-3.923-26.906-1.088-10.153 0.279-16.69 9.846-20.147 5.843-2.118-1.845-12.374-14.658-25.050-8.866-8.787-20.198-18.735-31.189-27.965-17.357-14.578-33.871-27.345-38.529-30.801-3.018-2.249-4.88-7.574-5.791-14.401-1.065-8.046-0.803-18.194 0.473-27.965 1.879-14.458 5.973-28.057 11.235-32.624 2.728-2.369 4.499-6.924 5.581-12.573 1.543-8.115 1.651-18.479 0.979-27.96-0.883-12.647-3.126-23.7-5.085-25.636-0.279-0.279-0.649-0.41-1.105-0.41-4.732 0-18.205 14.208-25.392 26.046-3.081 5.062-4.994 9.698-4.584 12.59 0.604 4.22 0.211 9.686-0.666 15.369-1.264 8.172-3.519 16.799-5.262 22.869-1.856 6.463-13.65 10.609-22.527 10.609-5.256 0-9.487-1.452-10.039-4.732-0.154-0.923-0.535-1.327-1.11-1.327-2.973 0-11.121 10.916-19.748 17.784-3.952 3.16-8.006 5.472-11.708 5.472-1.549 0-3.041-0.41-4.436-1.333-2.13-1.412-4.259-2.785-6.338-4.14-10.899-7.078-20.301-13.462-20.301-20.87 0-1.264-1.219-1.799-3.326-1.799-12.215 0-54.371 18.051-63.937 18.051-0.319 0-0.592-0.023-0.831-0.063-8.878-1.475-57.736-16.189-59.211-32.356-0.222-2.42-0.404-5.199-0.564-8.166-0.484-8.992-0.712-19.8-0.82-27.96-0.097-7.238-0.097-12.403-0.097-12.403s-10.643 4.015-22.607 12.403c-9.379 6.566-19.555 15.831-26.075 27.96-1.862 3.462-3.439 7.152-4.607 11.098-5.763 19.6-14.714 30.124-22.299 34.098-2.454 1.281-4.755 1.879-6.765 1.879-2.107 0-3.884-0.661-5.159-1.879-0.518-0.49-0.962-1.071-1.304-1.743-4.436-8.826-11.85-20.591-11.85-20.591s-11.019 9.521-19.6 22.334c-3.593 5.364-6.765 11.292-8.519 17.374-1.503 5.228-6.173 8.553-12.488 10.586-6.532 2.107-14.828 2.83-23.216 2.83-13.638 0-27.521-1.902-34.486-2.83h-11.372c-19.737 2.135-59.302 11.947-67.946 21.753-4.909 5.575-11.144 7.192-17.288 7.192-6.833 0-13.559-2.004-18.234-2.773-0.216-0.034-0.438-0.057-0.666-0.057-5.284 0-14.099 9.282-22.567 19.099-6.304 7.3-12.414 14.908-16.73 19.196-2.34 2.318-5.968 5.302-10.142 8.769-14.031 11.651-34.258 28.82-32.868 45.203 0.023 0.33 0.028 0.643 0.080 0.962 1.908 13.889-9.726 20.050-18.228 27.009-4.681 3.827-8.416 7.904-8.416 13.644 0 4.402 0 16.32 0 31.559 0 8.525 0 18.086 0 27.971 0 15.216 0 31.171 0 45.203 0 10.905 0 20.637 0 27.965 0 6.429 0 11.007 0 12.881 0 8.542-9.345 22.499-13.342 32.327-1.498 3.701-2.272 6.839-1.458 8.855 0.547 1.35 1.589 1.908 2.961 1.908 5.017 0 14.384-7.471 19.549-10.763 1.099-0.7 2.022-1.23 2.659-1.441 0.103-0.034 0.205-0.051 0.308-0.051 0.581 0 1.139 0.547 1.663 1.492 0.951 1.708 1.794 4.738 2.523 8.172 0.154 0.729 0.308 1.475 0.45 2.232 1.549 8.183 2.454 17.567 2.454 17.567h430.746c0 0 59.285-22.55 78.88-22.55 1.634 0 2.99 0.154 4.015 0.495 0.695 0.233 1.469 0.342 2.301 0.342 3.975 0 9.447-2.466 15.295-6.247 16.571-10.711 36.291-32.031 34.218-38.204-0.666-1.999-1.167-4.447-1.452-7.004-0.871-7.893 0.507-16.85 6.68-16.85 0.672 0 1.395 0.108 2.181 0.33 7.181 2.039 15.768 11.133 20.363 16.52 2.044 2.392 3.314 4.060 3.314 4.060s2.58 0.319 6.201 0.319c5.484 0 13.336-0.723 18.194-4.379 1.646-1.236 2.973-2.773 3.724-4.755 2.46-6.509 55.157-8.513 103.781-8.513 39.303 0 75.953 1.31 81.249 2.625 8.063 2.004 11.998 7.403 13.695 10.649 0.809 1.532 1.116 2.591 1.116 2.591s15.381 1.304 30.334 1.304c12.021 0 23.769-0.843 27.026-3.895 0.125-0.12 0.268-0.233 0.359-0.353 3.656-4.538-11.11-16.799-25.79-27.641z" />
<glyph unicode="&#xe927;" glyph-name="restaurants" d="M519.967 771.656c-183.874 0-333.467-145.192-333.467-323.656 0-178.47 149.599-323.656 333.467-323.656 183.88 0 333.473 145.186 333.473 323.656-0.006 178.464-149.593 323.656-333.473 323.656zM519.967 152.879c-167.656 0-304.061 132.39-304.061 295.121 0 162.725 136.405 295.115 304.061 295.115 167.662 0 304.061-132.39 304.061-295.115 0-162.73-136.399-295.121-304.061-295.121zM342.214 376.153c-9.783 22.772-14.743 46.945-14.743 71.847 0 103.018 86.351 186.835 192.501 186.835 36.9 0 72.747-10.165 103.679-29.383 6.828-4.248 15.916-2.318 20.306 4.316 4.385 6.64 2.38 15.46-4.459 19.709-35.659 22.18-76.995 33.893-119.527 33.893-122.362 0-221.907-96.612-221.907-215.364 0-28.694 5.723-56.563 17.009-82.832 2.358-5.478 7.818-8.787 13.576-8.787 1.891 0 3.804 0.359 5.655 1.105 7.488 3.029 11.042 11.383 7.91 18.661zM397.006 304.243c-10.592 8.547-20.267 18.217-28.751 28.746-5 6.201-14.242 7.306-20.637 2.449s-7.522-13.82-2.523-20.033c9.772-12.123 20.916-23.262 33.119-33.108 2.745-2.215 6.076-3.291 9.384-3.291 4.22 0 8.411 1.76 11.315 5.148 5.193 6.053 4.333 15.050-1.908 20.090zM674.303 582.93c-6.395-4.852-7.528-13.815-2.534-20.033 26.627-33.085 40.693-72.815 40.693-114.903 0-103.024-86.362-186.835-192.49-186.835-25.636 0-50.521 4.806-73.971 14.287-7.488 3.029-16.098-0.41-19.219-7.693-3.126-7.266 0.427-15.626 7.921-18.649 27.043-10.939 55.737-16.485 85.269-16.485 122.351 0 221.896 96.618 221.896 215.37 0 48.517-16.229 94.317-46.922 132.47-5.005 6.218-14.248 7.329-20.642 2.471zM998.119 740.712c-8.12 0-14.703-6.389-14.703-14.265v-123.752c0-12.59-7.517-23.49-18.416-28.763v152.515c0 7.875-6.571 14.265-14.703 14.265-8.12 0-14.692-6.389-14.692-14.265v-152.515c-10.899 5.273-18.416 16.172-18.416 28.763v123.752c0 7.875-6.583 14.265-14.703 14.265-8.109 0-14.692-6.389-14.692-14.265v-123.752c0-28.541 20.409-52.531 47.811-58.966v-374.171c0-7.887 6.571-14.276 14.692-14.276 8.132 0 14.703 6.389 14.703 14.276v374.166c27.407 6.44 47.822 30.42 47.822 58.966v123.758c0 7.875-6.583 14.265-14.703 14.265zM89.631 740.712c-46.928 0-78.453-71.363-78.453-138.017 0-37.116 27.499-68.089 63.749-74.791v-358.352c0-7.887 6.583-14.276 14.703-14.276s14.697 6.389 14.697 14.276v358.352c36.257 6.702 63.755 37.675 63.755 74.791 0 66.654-31.525 138.017-78.453 138.017zM89.631 555.084c-27.049 0-49.052 21.354-49.052 47.611 0 58.96 26.969 109.487 49.052 109.487 22.077 0 49.052-50.521 49.052-109.487 0-26.257-22.003-47.611-49.052-47.611z" />
<glyph unicode="&#xe928;" glyph-name="popularity-high" d="M512.011 266.079c-50.527 0-91.516-40.772-91.516-90.992 0-50.225 40.989-90.997 91.516-90.997 50.504 0 91.487 40.772 91.487 90.997 0 50.214-40.983 90.992-91.487 90.992zM1002.281 584.137c-122.374 144.77-301.077 227.773-490.27 227.773-189.215 0-367.885-83.002-490.293-227.773-16.252-19.224-13.764-47.919 5.62-64.074 8.576-7.164 18.963-10.677 29.372-10.677 13.052 0 26.018 5.529 35.066 16.229 104.932 124.111 258.101 195.314 420.234 195.314 162.127 0 315.262-71.203 420.211-195.286 9.054-10.7 22.020-16.229 35.084-16.229 10.392 0 20.808 3.485 29.378 10.677 19.355 16.127 21.838 44.844 5.598 64.046zM512.011 629.949c-135.147 0-262.782-59.285-350.181-162.639-16.28-19.236-13.764-47.947 5.603-64.085 8.553-7.152 19.002-10.654 29.395-10.654 13.063 0 26.012 5.495 35.038 16.229 69.939 82.729 172.058 130.198 280.139 130.198 108.058 0 210.188-47.469 280.156-130.198 9.054-10.78 22.020-16.229 35.038-16.229 10.398 0 20.825 3.457 29.389 10.654 19.35 16.138 21.872 44.878 5.603 64.085-87.416 103.349-215.028 162.639-350.181 162.639zM512.011 448.006c-81.14 0-157.731-35.568-210.131-97.592-16.252-19.207-13.741-47.913 5.609-64.085 8.582-7.152 19.002-10.643 29.395-10.643 13.063 0 26.029 5.507 35.055 16.218 34.992 41.376 86.049 65.133 140.072 65.133 53.989 0 105.057-23.757 140.049-65.133 9.043-10.757 22.009-16.218 35.044-16.218 10.398 0 20.853 3.468 29.406 10.643 19.355 16.172 21.867 44.878 5.638 64.085-52.429 62.030-129.019 97.592-210.137 97.592z" />
<glyph unicode="&#xe929;" glyph-name="popularity-med" d="M512.011 266.079c-50.527 0-91.516-40.772-91.516-90.992 0-50.225 40.989-90.997 91.516-90.997 50.504 0 91.487 40.772 91.487 90.997 0 50.214-40.983 90.992-91.487 90.992zM512.011 629.949c-135.147 0-262.782-59.285-350.181-162.651-16.28-19.219-13.764-47.925 5.603-64.068 8.553-7.152 19.002-10.677 29.395-10.677 13.063 0 26.012 5.518 35.038 16.252 69.939 82.729 172.058 130.198 280.139 130.198 108.058 0 210.188-47.469 280.156-130.198 9.054-10.78 22.020-16.252 35.038-16.252 10.398 0 20.825 3.479 29.389 10.677 19.35 16.149 21.872 44.878 5.603 64.068-87.416 103.36-215.028 162.651-350.181 162.651zM512.011 448.006c-81.14 0-157.731-35.568-210.131-97.592-16.252-19.219-13.741-47.913 5.609-64.085 8.582-7.152 19.002-10.643 29.395-10.643 13.063 0 26.029 5.507 35.055 16.218 34.992 41.376 86.049 65.133 140.072 65.133 53.989 0 105.057-23.757 140.049-65.133 9.043-10.757 22.009-16.218 35.044-16.218 10.398 0 20.853 3.468 29.406 10.643 19.355 16.172 21.867 44.867 5.638 64.085-52.429 62.030-129.019 97.592-210.137 97.592z" />
<glyph unicode="&#xe92a;" glyph-name="popularity-low" d="M512.011 266.079c-50.527 0-91.516-40.772-91.516-90.992 0-50.225 40.989-90.997 91.516-90.997 50.504 0 91.487 40.772 91.487 90.997 0 50.214-40.983 90.992-91.487 90.992zM512.011 448.006c-81.14 0-157.731-35.568-210.131-97.592-16.252-19.207-13.741-47.913 5.609-64.085 8.582-7.152 19.002-10.643 29.395-10.643 13.063 0 26.029 5.507 35.055 16.218 34.992 41.376 86.049 65.133 140.072 65.133 53.989 0 105.057-23.757 140.049-65.133 9.043-10.757 22.009-16.218 35.044-16.218 10.398 0 20.853 3.468 29.406 10.643 19.355 16.172 21.867 44.878 5.638 64.085-52.429 62.030-129.019 97.592-210.137 97.592z" />
<glyph unicode="&#xe92b;" glyph-name="other-docs" d="M950.741 845.661h-236.143c-37.060 0-79.7-19.065-99.71-67.24 0 0-8.519-61.62-67.24-67.274h-469.975c-37.065 0-67.24-28.785-67.24-65.885v-605.771c0-37.054 30.169-66.904 67.24-66.904h873.068c37.065 0 67.24 29.85 67.24 66.904v738.935c0 37.099-30.175 67.234-67.24 67.234v0zM950.741 645.267v-605.771h-873.068v604.825l476.541 0.239c62.975 5.991 101.999 49.901 120.045 95.485 17.385 43.659 47.885 38.375 47.885 38.375h228.598v-133.153zM682.133 375.344h-134.48v134.469c0 18.735-15.085 33.415-33.455 33.415-18.689 0-33.455-14.68-33.455-33.415v-134.469h-134.458c-18.701 0-33.455-15.085-33.455-33.455s14.749-33.449 33.455-33.449h134.463v-134.475c0-18.365 14.766-33.449 33.455-33.449 18.365 0 33.455 15.085 33.455 33.449v134.475h134.48c18.365 0 33.449 15.079 33.449 33.449s-15.090 33.455-33.455 33.455v0z" />
<glyph unicode="&#xe92c;" glyph-name="checkin-mid-company" d="M1017.594 71.801c-4.083 61.437-40.886 117.084-96.214 145.624 31.223 24.964 49.092 61.853 49.092 101.498 0 65.987-49.696 120.654-113.957 129.304-11.634 33.267-35.801 61.671-68.054 78.316 24.509 19.583 38.54 48.551 38.54 79.665 0 56.495-46.416 102.455-103.457 102.455s-103.446-45.966-103.446-102.455c0-31.115 14.031-60.082 38.529-79.665-18.672-9.641-34.645-23.245-47.059-39.428-12.403 16.172-28.296 29.799-46.962 39.428 24.52 19.583 38.546 48.551 38.546 79.665 0 56.495-46.404 102.455-103.451 102.455-57.041 0-103.451-45.966-103.451-102.455 0-31.115 14.025-60.082 38.534-79.665-17.71-9.14-32.948-21.872-45.060-36.974-12.123 15.096-27.373 27.835-45.1 36.98 24.509 19.589 38.54 48.551 38.54 79.665 0 56.495-46.41 102.455-103.451 102.455-57.047 0-103.451-45.966-103.451-102.455 0-31.115 14.020-60.077 38.534-79.665-33.842-17.471-58.767-47.913-69.66-83.316-53.072-16.878-91.601-66.209-91.601-124.304 0-39.645 17.869-76.533 49.098-101.498-55.293-28.546-92.114-84.187-96.219-145.624l-0.080-1.122h25.915l0.074 0.974c4.43 57.417 42.287 108.195 96.493 129.498 17.938-8.468 36.951-12.761 56.523-12.761 19.578 0 38.597 4.294 56.529 12.761 45.738-17.972 79.717-56.962 91.909-103.184-37.971-39.981-61.825-92.262-65.555-148.147l-0.103-1.526h34.97l0.103 1.321c5.979 77.479 57.064 146.017 130.227 174.757 24.207-11.423 49.866-17.22 76.283-17.22 26.422 0 52.087 5.803 76.289 17.22 73.162-28.746 124.253-97.278 130.227-174.757l0.091-1.321h34.981l-0.114 1.526c-3.588 54.046-26.046 104.71-61.876 144.149 11.247 47.964 45.823 88.685 92.871 107.175 17.926-8.468 36.951-12.761 56.523-12.761 19.578 0 38.597 4.294 56.529 12.761 54.217-21.303 92.068-72.080 96.493-129.498l0.063-0.974h25.921l-0.103 1.122zM640.416 606.215c0 45.391 37.282 82.319 83.133 82.319 45.84 0 83.139-36.929 83.139-82.319s-37.299-82.319-83.139-82.319c-45.852 0-83.133 36.929-83.133 82.319zM416.561 606.215c0 45.391 37.287 82.319 83.139 82.319 45.84 0 83.139-36.929 83.139-82.319s-37.299-82.319-83.139-82.319c-45.852 0-83.139 36.929-83.139 82.319zM455.334 513.771c14.071-6.645 29.002-10.011 44.366-10.011 15.358 0 30.295 3.365 44.36 10.011 23.108-9.077 42.298-25.050 55.675-44.901-4.766-8.735-8.604-17.966-11.406-27.561-23.729 11.634-50.419 18.199-78.646 18.199-33.967 0-65.737-9.487-92.763-25.915-3.109 13.536-8.2 26.491-15.113 38.426 13.262 18.393 31.655 33.159 53.528 41.752zM196.567 606.22c0 45.391 37.293 82.319 83.139 82.319 45.84 0 83.139-36.923 83.139-82.319s-37.293-82.319-83.139-82.319c-45.846 0-83.139 36.923-83.139 82.319zM185.326 214.049c-58.408 0-105.923 47.048-105.923 104.881 0 57.827 47.515 104.881 105.923 104.881 58.414 0 105.928-47.053 105.928-104.881-0.006-57.833-47.515-104.881-105.928-104.881zM354.782 117.579c-14.817 42.412-45.624 78.635-86.744 99.847 31.223 24.964 49.092 61.853 49.092 101.498 0 71.984-59.12 130.54-131.804 130.54-5.694 0-11.292-0.399-16.799-1.099 12.311 29.326 36.188 53.38 66.807 65.412 14.077-6.645 29.002-10.017 44.366-10.017s30.295 3.371 44.366 10.017c39.759-15.626 68.294-51.455 74.711-92.848-40.778-32.31-66.973-81.96-66.973-137.584 0-53.505 24.116-103.309 66.261-136.992-15.597-8.052-30.038-17.784-43.284-28.774zM509.688 141.786c-78.828 0-142.954 63.493-142.954 141.553 0 78.048 64.125 141.541 142.954 141.541 78.834 0 142.959-63.493 142.959-141.541 0-78.054-64.125-141.553-142.959-141.553zM668.245 114.498c-14.213 12.272-29.885 23.057-46.934 31.855 42.139 33.683 66.261 83.486 66.261 136.992 0 61.779-32.299 116.195-81.026 147.652 9.157 37.071 36.148 68.442 72.644 82.78 14.071-6.645 29.002-10.011 44.36-10.011 15.364 0 30.289 3.365 44.366 10.011 30.283-11.901 54.018-35.539 66.46-64.416-70.691-2.261-127.499-59.883-127.499-130.426 0-39.645 17.864-76.533 49.092-101.498-42.093-21.736-73.333-59.205-87.723-102.939zM838.674 214.049c-58.408 0-105.928 47.048-105.928 104.881 0 57.827 47.52 104.881 105.928 104.881s105.928-47.053 105.928-104.881c0-57.833-47.52-104.881-105.928-104.881zM309.642 728.594h406.328c61.198 0 110.985 49.787 110.985 110.979s-49.781 110.974-110.985 110.974h-406.328c-61.193 0-110.974-49.781-110.974-110.974s49.781-110.979 110.974-110.979zM309.642 922.075h406.328c45.499 0 82.513-37.014 82.513-82.501 0-45.493-37.014-82.507-82.513-82.507h-406.328c-45.493 0-82.501 37.014-82.501 82.507 0 45.487 37.008 82.501 82.501 82.501zM400.161 787.874c5.581-3.303 12.852-4.954 21.81-4.954 8.006 0 15.073 1.754 21.212 5.256 6.127 3.502 10.819 8.234 14.077 14.191s4.88 12.562 4.88 19.817c0 5.005-0.9 9.686-2.705 14.037s-4.277 8.12-7.431 11.298-6.822 5.672-11.002 7.471-8.667 2.705-13.473 2.705c-6.008 0-12.562-1.902-19.669-5.706l4.277 24.321h35.659c3.701 0 6.509 0.803 8.411 2.403s2.853 3.701 2.853 6.304c0 5.956-3.906 8.935-11.713 8.935h-39.639c-4.305 0-7.408-0.974-9.31-2.927s-3.206-5.079-3.906-9.384l-6.304-35.96c-0.552-3.155-0.826-4.857-0.826-5.102 0-2.255 0.951-4.271 2.853-6.042 1.902-1.782 4.077-2.665 6.532-2.665 2.255 0 5.114 1.315 8.599 3.941 3.474 2.631 6.144 4.47 7.995 5.518s4.931 1.577 9.236 1.577c3.502 0 6.68-0.837 9.533-2.511 2.853-1.68 5.131-4.22 6.833-7.619s2.551-7.505 2.551-12.311c0-4.453-0.792-8.433-2.363-11.936-1.577-3.502-3.815-6.258-6.719-8.257s-6.281-3.001-10.136-3.001c-4.203 0-8.006 1.241-11.412 3.713-3.405 2.483-6.104 5.945-8.109 10.398-2.050 4.857-5.182 7.283-9.384 7.283-2.454 0-4.493-0.877-6.122-2.625s-2.437-3.605-2.437-5.558c0-3.206 1.167-6.947 3.491-11.224 2.335-4.288 6.281-8.075 11.862-11.383zM479.707 807.394c3.052-7.608 7.591-13.564 13.627-17.869s12.852-6.458 20.46-6.458c6.611 0 12.613 1.6 18.023 4.806s9.812 7.756 13.211 13.661c2.705 4.806 4.55 10.159 5.552 16.064s1.503 12.961 1.503 21.172c0 15.113-1.902 26.804-5.706 35.061-2.204 4.755-4.892 8.747-8.063 11.975-3.183 3.229-6.873 5.683-11.076 7.357s-8.889 2.517-14.037 2.517c-7.807 0-14.527-1.891-20.158-5.672-5.626-3.781-9.92-9.271-12.875-16.48-1.703-4.356-2.955-9.561-3.753-15.614s-1.202-12.864-1.202-20.42c0-5.854 0.359-11.298 1.088-16.326 0.712-5.028 1.851-9.618 3.405-13.775zM499.711 870.455c2.574 6.657 7.169 9.982 13.775 9.982 4.607 0 8.211-1.492 10.814-4.464 2.602-2.978 4.447-7.386 5.552-13.211 1.099-5.831 1.657-13.325 1.657-22.487 0-9.658-0.53-17.465-1.577-23.421s-2.881-10.535-5.484-13.741-6.207-4.806-10.808-4.806c-4.453 0-7.984 1.543-10.586 4.618-2.602 3.081-4.453 7.619-5.558 13.627s-1.651 13.712-1.651 23.125c0 13.866 1.287 24.122 3.867 30.779zM594.416 800.641h19.373v28.603h28.894v19.669h-28.894v28.751h-19.373v-28.751h-28.751v-19.669h28.751z" />
<glyph unicode="&#xe92d;" glyph-name="employees" d="M1017.594 191.317c-4.083 61.437-40.886 117.084-96.214 145.624 31.223 24.964 49.092 61.853 49.092 101.498 0 65.987-49.696 120.654-113.957 129.304-11.634 33.267-35.801 61.671-68.054 78.316 24.509 19.583 38.54 48.551 38.54 79.665 0 56.495-46.416 102.455-103.457 102.455s-103.446-45.966-103.446-102.455c0-31.115 14.031-60.082 38.529-79.665-18.672-9.635-34.645-23.239-47.059-39.428-12.403 16.172-28.296 29.793-46.962 39.428 24.52 19.583 38.546 48.551 38.546 79.665 0 56.495-46.404 102.455-103.451 102.455-57.041 0-103.451-45.966-103.451-102.455 0-31.115 14.025-60.082 38.534-79.665-17.71-9.14-32.948-21.872-45.060-36.974-12.123 15.096-27.373 27.835-45.1 36.98 24.509 19.583 38.54 48.545 38.54 79.665 0 56.495-46.41 102.455-103.451 102.455-57.047 0-103.451-45.966-103.451-102.455 0-31.12 14.020-60.082 38.534-79.665-33.842-17.471-58.767-47.913-69.66-83.321-53.072-16.878-91.601-66.209-91.601-124.304 0-39.645 17.869-76.533 49.098-101.498-55.293-28.546-92.114-84.187-96.219-145.624l-0.080-1.122h25.915l0.074 0.974c4.43 57.417 42.287 108.195 96.493 129.498 17.938-8.468 36.951-12.761 56.523-12.761 19.578 0 38.597 4.294 56.529 12.761 45.738-17.972 79.717-56.962 91.909-103.184-37.971-39.981-61.825-92.262-65.555-148.147l-0.103-1.526h34.97l0.103 1.321c5.979 77.479 57.064 146.017 130.227 174.757 24.207-11.423 49.866-17.22 76.283-17.22 26.422 0 52.087 5.803 76.289 17.22 73.162-28.746 124.253-97.278 130.227-174.757l0.091-1.321h34.981l-0.114 1.526c-3.588 54.046-26.046 104.71-61.876 144.149 11.247 47.964 45.823 88.685 92.871 107.175 17.926-8.468 36.951-12.761 56.523-12.761 19.578 0 38.597 4.294 56.529 12.761 54.217-21.303 92.068-72.080 96.493-129.498l0.063-0.974h25.921l-0.103 1.128zM640.416 725.724c0 45.391 37.282 82.319 83.133 82.319 45.84 0 83.139-36.929 83.139-82.319s-37.299-82.319-83.139-82.319c-45.852 0-83.133 36.934-83.133 82.319zM416.561 725.724c0 45.391 37.287 82.319 83.139 82.319 45.84 0 83.139-36.929 83.139-82.319s-37.299-82.319-83.139-82.319c-45.852 0-83.139 36.934-83.139 82.319zM455.334 633.286c14.071-6.645 29.002-10.017 44.366-10.017 15.358 0 30.295 3.371 44.36 10.017 23.108-9.077 42.298-25.050 55.675-44.906-4.766-8.735-8.604-17.966-11.406-27.561-23.729 11.634-50.419 18.199-78.646 18.199-33.967 0-65.737-9.487-92.763-25.915-3.109 13.536-8.2 26.491-15.113 38.426 13.262 18.393 31.655 33.159 53.528 41.757zM196.567 725.73c0 45.391 37.293 82.313 83.139 82.313 45.84 0 83.139-36.923 83.139-82.313 0-45.396-37.293-82.319-83.139-82.319s-83.139 36.929-83.139 82.319zM185.326 333.559c-58.408 0-105.923 47.048-105.923 104.881 0 57.827 47.515 104.881 105.923 104.881 58.414 0 105.928-47.053 105.928-104.881-0.006-57.833-47.515-104.881-105.928-104.881zM354.782 237.094c-14.817 42.412-45.624 78.635-86.744 99.847 31.223 24.964 49.092 61.853 49.092 101.498 0 71.984-59.12 130.54-131.804 130.54-5.694 0-11.292-0.399-16.799-1.099 12.311 29.326 36.188 53.38 66.807 65.412 14.077-6.651 29.002-10.022 44.366-10.022s30.295 3.371 44.366 10.022c39.759-15.626 68.294-51.455 74.711-92.854-40.778-32.31-66.973-81.96-66.973-137.584 0-53.505 24.116-103.309 66.261-136.992-15.597-8.052-30.038-17.784-43.284-28.768zM509.688 261.302c-78.828 0-142.954 63.493-142.954 141.553 0 78.048 64.125 141.541 142.954 141.541 78.834 0 142.959-63.493 142.959-141.541 0-78.060-64.125-141.553-142.959-141.553zM668.245 234.014c-14.213 12.272-29.885 23.057-46.934 31.855 42.139 33.683 66.261 83.486 66.261 136.992 0 61.779-32.299 116.195-81.026 147.652 9.157 37.071 36.148 68.447 72.644 82.78 14.071-6.645 29.002-10.017 44.36-10.017 15.364 0 30.289 3.371 44.366 10.017 30.283-11.901 54.018-35.539 66.46-64.421-70.691-2.261-127.499-59.883-127.499-130.426 0-39.645 17.864-76.533 49.092-101.498-42.093-21.73-73.333-59.205-87.723-102.933zM838.674 333.559c-58.408 0-105.928 47.048-105.928 104.881 0 57.827 47.52 104.881 105.928 104.881s105.928-47.053 105.928-104.881c0-57.833-47.52-104.881-105.928-104.881z" />
<glyph unicode="&#xe92e;" glyph-name="employee" d="M760.347 186.676c-5.666 85.263-56.762 162.503-133.552 202.13 43.341 34.639 68.151 85.861 68.151 140.887 0 99.909-82.063 181.186-182.946 181.186-100.877 0-182.946-81.283-182.946-181.186 0-55.026 24.805-106.247 68.151-140.887-76.761-39.622-127.863-116.862-133.558-202.13l-0.108-1.56h35.966l0.103 1.355c6.15 79.688 58.693 150.174 133.934 179.74 24.896-11.753 51.29-17.715 78.458-17.715s53.568 5.962 78.458 17.715c75.247-29.566 127.789-100.052 133.939-179.74l0.097-1.355h35.966l-0.114 1.56zM512 675.271c81.072 0 147.025-65.304 147.025-145.573 0-80.28-65.953-145.579-147.025-145.579s-147.025 65.298-147.025 145.579c0 80.269 65.953 145.573 147.025 145.573z" />
<glyph unicode="&#xe92f;" glyph-name="checkin-big-company" d="M1017.594 71.796c-4.083 61.437-40.886 117.089-96.214 145.63 31.223 24.959 49.092 61.847 49.092 101.492 0 65.987-49.696 120.654-113.957 129.304-11.634 33.267-35.801 61.671-68.054 78.316 24.515 19.583 38.54 48.551 38.54 79.665 0 56.495-46.41 102.455-103.457 102.455-57.041 0-103.446-45.966-103.446-102.455 0-31.115 14.037-60.082 38.534-79.665-18.672-9.641-34.645-23.245-47.065-39.428-12.403 16.172-28.296 29.799-46.956 39.428 24.52 19.583 38.546 48.551 38.546 79.665 0 56.495-46.404 102.455-103.451 102.455-57.041 0-103.451-45.966-103.451-102.455 0-31.115 14.025-60.082 38.534-79.665-17.71-9.14-32.948-21.872-45.060-36.974-12.123 15.096-27.373 27.835-45.1 36.98 24.509 19.589 38.54 48.551 38.54 79.665 0 56.495-46.41 102.455-103.451 102.455-57.047 0-103.451-45.966-103.451-102.455 0-31.115 14.020-60.077 38.534-79.665-33.842-17.471-58.767-47.913-69.66-83.316-53.072-16.878-91.601-66.209-91.601-124.304 0-39.645 17.869-76.528 49.098-101.498-55.293-28.546-92.114-84.181-96.219-145.619l-0.080-1.122h25.915l0.074 0.974c4.43 57.417 42.287 108.195 96.493 129.498 17.938-8.468 36.951-12.761 56.523-12.761 19.578 0 38.597 4.294 56.529 12.761 45.738-17.972 79.717-56.967 91.909-103.184-37.971-39.981-61.825-92.262-65.555-148.153l-0.103-1.526h34.97l0.103 1.321c5.979 77.473 57.064 146.017 130.227 174.751 24.207-11.423 49.866-17.22 76.283-17.22 26.428 0 52.082 5.808 76.283 17.22 73.168-28.746 124.253-97.278 130.227-174.751l0.097-1.321h34.987l-0.12 1.526c-3.588 54.046-26.046 104.715-61.876 144.149 11.247 47.964 45.823 88.685 92.871 107.175 17.926-8.468 36.957-12.761 56.529-12.761 19.578 0 38.597 4.294 56.529 12.761 54.217-21.303 92.068-72.080 96.493-129.498l0.063-0.974h25.921l-0.114 1.122zM640.416 606.215c0 45.391 37.282 82.319 83.139 82.319 45.835 0 83.139-36.929 83.139-82.319s-37.304-82.319-83.139-82.319c-45.857 0-83.139 36.929-83.139 82.319zM416.561 606.215c0 45.391 37.287 82.319 83.139 82.319 45.84 0 83.139-36.929 83.139-82.319s-37.299-82.319-83.139-82.319c-45.852 0-83.139 36.929-83.139 82.319zM455.334 513.771c14.071-6.645 29.002-10.011 44.366-10.011 15.358 0 30.295 3.365 44.36 10.011 23.108-9.077 42.304-25.050 55.669-44.901-4.761-8.735-8.599-17.966-11.4-27.561-23.734 11.634-50.419 18.199-78.652 18.199-33.967 0-65.737-9.487-92.763-25.91-3.109 13.53-8.2 26.485-15.113 38.426 13.268 18.387 31.661 33.153 53.534 41.746zM196.567 606.22c0 45.391 37.293 82.319 83.139 82.319 45.84 0 83.139-36.923 83.139-82.319s-37.293-82.319-83.139-82.319c-45.846 0-83.139 36.923-83.139 82.319zM185.326 214.049c-58.408 0-105.923 47.048-105.923 104.881 0 57.827 47.515 104.881 105.923 104.881 58.414 0 105.928-47.053 105.928-104.881-0.006-57.833-47.515-104.881-105.928-104.881zM354.782 117.573c-14.817 42.412-45.624 78.64-86.744 99.852 31.223 24.959 49.092 61.847 49.092 101.492 0 71.989-59.12 130.54-131.804 130.54-5.694 0-11.292-0.399-16.799-1.099 12.311 29.326 36.188 53.38 66.807 65.412 14.077-6.645 29.002-10.017 44.366-10.017s30.295 3.371 44.366 10.017c39.759-15.626 68.294-51.455 74.711-92.848-40.778-32.31-66.973-81.96-66.973-137.584 0-53.505 24.116-103.309 66.261-136.992-15.597-8.046-30.038-17.778-43.284-28.774zM509.688 141.786c-78.828 0-142.954 63.487-142.954 141.547 0 78.048 64.125 141.536 142.954 141.536 78.834 0 142.959-63.487 142.959-141.536s-64.125-141.547-142.959-141.547zM668.245 114.493c-14.213 12.272-29.885 23.057-46.934 31.86 42.139 33.683 66.266 83.486 66.266 136.992 0 61.779-32.299 116.195-81.026 147.652 9.151 37.071 36.148 68.447 72.638 82.786 14.077-6.645 29.008-10.011 44.366-10.011s30.283 3.365 44.366 10.011c30.277-11.901 54.012-35.539 66.454-64.416-70.691-2.261-127.499-59.889-127.499-130.426 0-39.645 17.869-76.533 49.092-101.492-42.093-21.747-73.333-59.217-87.723-102.956zM838.674 214.049c-58.414 0-105.934 47.048-105.934 104.881 0 57.827 47.52 104.881 105.934 104.881 58.408 0 105.928-47.053 105.928-104.881 0-57.833-47.52-104.881-105.928-104.881zM615.656 875.973c-2.602 2.973-6.207 4.464-10.808 4.464-6.606 0-11.201-3.326-13.769-9.982-2.58-6.657-3.872-16.913-3.867-30.779 0-9.413 0.547-17.118 1.657-23.125 1.093-6.008 2.955-10.546 5.558-13.627 2.597-3.075 6.122-4.618 10.58-4.618 4.601 0 8.2 1.6 10.802 4.806s4.425 7.784 5.484 13.741c1.048 5.956 1.566 13.764 1.566 23.421 0 9.162-0.547 16.656-1.646 22.487-1.099 5.825-2.955 10.233-5.558 13.211zM715.964 950.547h-406.322c-61.193 0-110.974-49.781-110.974-110.974s49.781-110.979 110.974-110.979h406.322c61.204 0 110.985 49.787 110.985 110.979s-49.775 110.974-110.985 110.974zM349.082 798.010c0-10.062-3.428-15.090-10.284-15.090-3.052 0-5.507 1.031-7.357 3.081s-2.779 5.079-2.779 9.083v68.316c-12.716-9.76-21.274-14.64-25.676-14.64-2.107 0-3.975 0.843-5.598 2.517s-2.437 3.616-2.437 5.82c0 2.551 0.797 4.43 2.403 5.632s4.43 2.75 8.485 4.652c6.059 2.853 10.899 5.854 14.527 9.009s6.845 6.68 9.646 10.586c2.802 3.906 4.624 6.309 5.478 7.209s2.454 1.35 4.806 1.35c2.654 0 4.783-1.025 6.383-3.081s2.403-4.88 2.403-8.485v-85.958zM459.212 817.599c-1.002-5.905-2.853-11.258-5.558-16.064-3.4-5.905-7.807-10.455-13.211-13.661s-11.412-4.806-18.017-4.806c-7.608 0-14.424 2.153-20.46 6.458s-10.575 10.261-13.627 17.869c-1.549 4.157-2.688 8.747-3.411 13.775-0.729 5.028-1.088 10.472-1.088 16.326 0 7.557 0.404 14.367 1.202 20.42s2.050 11.258 3.753 15.614c2.955 7.209 7.249 12.699 12.875 16.48 5.632 3.781 12.351 5.672 20.158 5.672 5.153 0 9.834-0.843 14.037-2.517s7.893-4.128 11.076-7.357c3.178-3.229 5.865-7.221 8.069-11.975 3.804-8.257 5.706-19.948 5.706-35.061 0-8.211-0.501-15.267-1.503-21.172zM550.586 817.599c-1.002-5.905-2.847-11.258-5.558-16.064-3.4-5.905-7.801-10.455-13.205-13.661-5.415-3.206-11.412-4.806-18.029-4.806-7.608 0-14.424 2.153-20.46 6.458s-10.575 10.261-13.627 17.869c-1.555 4.157-2.693 8.747-3.405 13.775-0.729 5.028-1.088 10.472-1.088 16.326 0 7.557 0.404 14.367 1.202 20.42s2.050 11.258 3.753 15.614c2.955 7.209 7.249 12.699 12.875 16.48 5.632 3.781 12.351 5.672 20.158 5.672 5.148 0 9.834-0.843 14.037-2.517s7.898-4.128 11.076-7.357c3.172-3.229 5.86-7.221 8.063-11.975 3.804-8.257 5.706-19.948 5.706-35.061 0-8.211-0.501-15.267-1.498-21.172zM641.936 817.599c-1.002-5.905-2.859-11.258-5.563-16.064-3.4-5.905-7.807-10.455-13.211-13.661s-11.412-4.806-18.017-4.806c-7.608 0-14.424 2.153-20.454 6.458s-10.575 10.261-13.627 17.869c-1.555 4.157-2.693 8.747-3.417 13.775s-1.082 10.472-1.082 16.326c0 7.557 0.404 14.367 1.202 20.42s2.039 11.258 3.741 15.614c2.967 7.209 7.26 12.699 12.887 16.48s12.346 5.672 20.153 5.672c5.153 0 9.846-0.843 14.048-2.517s7.881-4.128 11.064-7.357c3.183-3.229 5.865-7.221 8.075-11.975 3.804-8.257 5.706-19.948 5.706-35.061 0.006-8.211-0.495-15.267-1.503-21.172zM734.050 829.244h-28.894v-28.603h-19.373v28.603h-28.751v19.669h28.751v28.751h19.373v-28.751h28.894v-19.669zM524.3 875.973c-2.602 2.973-6.207 4.464-10.814 4.464-6.606 0-11.201-3.326-13.775-9.982-2.58-6.657-3.867-16.913-3.867-30.779 0-9.413 0.547-17.118 1.651-23.125s2.955-10.546 5.558-13.627c2.602-3.075 6.133-4.618 10.586-4.618 4.601 0 8.2 1.6 10.802 4.806s4.436 7.784 5.484 13.741c1.053 5.956 1.577 13.764 1.577 23.421 0 9.162-0.558 16.656-1.657 22.487-1.093 5.825-2.944 10.233-5.546 13.211zM432.932 875.973c-2.602 2.973-6.201 4.464-10.808 4.464-6.606 0-11.201-3.326-13.775-9.982-2.58-6.657-3.867-16.913-3.867-30.779 0-9.413 0.547-17.118 1.651-23.125s2.955-10.546 5.558-13.627c2.602-3.075 6.133-4.618 10.586-4.618 4.601 0 8.206 1.6 10.808 4.806s4.425 7.784 5.478 13.741c1.053 5.956 1.577 13.764 1.577 23.421 0 9.162-0.552 16.656-1.651 22.487-1.105 5.825-2.955 10.233-5.558 13.211z" />
<glyph unicode="&#xe930;" glyph-name="inprogress" d="M612.348 39.884c-8.189-2.044-16.542-3.855-24.834-5.387-21.673-4.026-35.995-24.862-31.986-46.558 1.982-10.671 8.041-19.56 16.263-25.363 8.479-5.968 19.276-8.661 30.266-6.606 9.868 1.828 19.822 3.98 29.588 6.418 21.394 5.33 34.434 27.003 29.093 48.391-5.319 21.405-26.98 34.434-48.391 29.104zM907.674 575.169c2.79-8.428 8.137-15.312 14.88-20.067 10.005-7.044 23.097-9.413 35.579-5.284 20.944 6.953 32.288 29.537 25.363 50.464-3.166 9.538-6.663 19.111-10.392 28.432-8.189 20.483-31.422 30.448-51.905 22.26-20.472-8.189-30.448-31.428-22.248-51.911 3.132-7.836 6.070-15.876 8.724-23.894zM742.113 96.908c-7.044-4.658-14.316-9.151-21.645-13.376-19.105-11.024-25.654-35.454-14.635-54.553 2.99-5.193 6.981-9.447 11.565-12.693 12.323-8.667 29.053-9.965 42.982-1.936 8.707 5.017 17.374 10.364 25.756 15.91 18.393 12.158 23.461 36.929 11.298 55.333-12.152 18.416-36.917 23.461-55.322 11.315zM1008.323 463.631c-0.871 22.043-19.435 39.195-41.484 38.335-22.020-0.866-39.189-19.441-38.324-41.478 0.336-8.422 0.416-16.975 0.222-25.386-0.308-13.826 6.458-26.149 16.958-33.552 6.27-4.408 13.86-7.073 22.094-7.266 22.043-0.484 40.311 16.998 40.795 39.047 0.216 10.062 0.137 20.249-0.262 30.3zM901.153 201.96c-17.676 13.257-42.68 9.658-55.92-7.984-5.074-6.754-10.409-13.422-15.87-19.851-14.287-16.782-12.266-41.997 4.51-56.29 0.957-0.814 1.925-1.56 2.933-2.261 16.69-11.765 39.878-9.060 53.368 6.771 6.526 7.676 12.898 15.637 18.945 23.706 13.245 17.647 9.658 42.663-7.967 55.908zM959.852 346.314c-21.035 6.6-43.449-5.114-50.049-26.155-2.523-8.041-5.319-16.121-8.337-24.036-6.634-17.414-0.279-36.581 14.287-46.854 2.676-1.873 5.615-3.462 8.809-4.675 20.608-7.858 43.682 2.477 51.535 23.097 3.588 9.402 6.919 19.014 9.92 28.575 6.588 21.052-5.125 43.46-26.166 50.049zM438.114 34.144c-35.71 6.406-69.956 17.328-102.438 32.55-0.382 0.199-0.723 0.433-1.128 0.609-7.653 3.605-15.295 7.465-22.698 11.497-0.028 0.028-0.074 0.051-0.114 0.074-13.587 7.477-26.849 15.757-39.73 24.828-187.86 132.333-233.029 392.832-100.695 580.692 28.78 40.835 63.601 74.899 102.426 101.902 0.478 0.336 0.957 0.661 1.429 0.997 136.815 94.272 322.58 100.621 467.857 3.758l-31.2-45.083c-8.673-12.545-3.337-21.69 11.85-20.324l135.528 12.135c15.204 1.367 24.304 14.515 20.21 29.201l-36.399 131.132c-4.072 14.697-14.504 16.457-23.188 3.912l-31.268-45.186c-106.612 71.551-234.481 98.844-361.393 76.835-12.784-2.215-25.386-4.92-37.817-8.075-0.097-0.011-0.177-0.023-0.251-0.040-0.484-0.12-0.968-0.273-1.435-0.404-109.442-28.108-204.926-91.937-273.066-183.008-0.575-0.683-1.167-1.35-1.708-2.090-2.266-3.052-4.516-6.173-6.719-9.293-3.599-5.119-7.147-10.364-10.546-15.609-0.427-0.632-0.752-1.276-1.122-1.913-56.221-87.131-83.344-187.854-78.692-290.412 0.006-0.336-0.011-0.666 0-1.019 0.45-10.017 1.247-20.17 2.323-30.175 0.057-0.643 0.199-1.258 0.308-1.896 1.116-10.056 2.517-20.136 4.271-30.209 17.818-102.802 66.312-195.297 138.973-267.275 0.171-0.165 0.347-0.353 0.518-0.53 0.057-0.068 0.125-0.103 0.182-0.159 19.521-19.259 40.755-37.065 63.618-53.169 59.832-42.162 126.462-70.036 198.013-82.871 21.713-3.906 42.452 10.552 46.347 32.248 3.895 21.724-10.54 42.486-32.248 46.37zM487.497 767.038c-17.858 0-32.327-14.481-32.327-32.31v-321.919l294.415-152.196c4.738-2.454 9.812-3.61 14.806-3.61 11.696 0 22.989 6.372 28.734 17.476 8.189 15.853 1.993 35.34-13.866 43.534l-259.479 134.15v282.565c0 17.829-14.447 32.31-32.282 32.31z" />
<glyph unicode="&#xe931;" glyph-name="restore" d="M512.023 953.844c-280.828 0-509.295-226.918-509.295-505.839s228.473-505.85 509.301-505.85c280.805 0 509.25 226.93 509.25 505.85s-228.445 505.839-509.255 505.839zM512.023-4.299c-251.182 0-455.534 202.905-455.534 452.311 0 249.4 204.351 452.305 455.534 452.305 251.165 0 455.522-202.905 455.522-452.305 0-249.406-204.357-452.311-455.522-452.311zM664.606 480.265v-244.862h-0.006c0-11.098-9.026-20.13-20.124-20.13h-208.001c-11.098 0-20.13 9.031-20.13 20.13v244.862h-42.942v-244.862c0-34.782 28.296-63.077 63.072-63.077h208.001c34.77 0 63.066 28.296 63.066 63.077v244.862h-42.936zM471.148 231.252c11.839 0 21.474 9.629 21.474 21.474v145.59c0 11.844-9.629 21.485-21.474 21.485s-21.474-9.641-21.474-21.485v-145.579c-0.006-11.844 9.629-21.485 21.474-21.485zM540.472 231.252c11.844 0 21.474 9.629 21.474 21.474v128.501c0 11.844-9.629 21.485-21.474 21.485-11.839 0-21.474-9.641-21.474-21.485v-128.495c0-11.839 9.635-21.479 21.474-21.479zM609.797 231.252c11.839 0 21.474 9.629 21.474 21.474v145.59c0 11.844-9.629 21.485-21.474 21.485s-21.474-9.641-21.474-21.485v-145.579c0.006-11.844 9.635-21.485 21.474-21.485zM413.070 661.889c0 0 4.556-12.3 13.576-19.504s216.139-172.656 225.472-180.121c9.333-7.465 22.009-8.935 22.009-8.935 23.194-4.8 47.013 3.633 61.984 22.368l1.748 2.198c21.713 27.168 17.26 66.933-9.908 88.64l-52.406 41.866c14.902 30.448 6.942 67.65-20.079 89.232-27.009 21.576-65.053 21.121-91.453-0.131l-52.423 41.877c-27.168 21.702-66.933 17.254-88.64-9.914l-1.743-2.187c-14.982-18.74-17.949-43.83-8.137-65.389zM628.657 664.082c8.32-6.645 12.317-17.009 11.15-27.134l-40.066 32.009c9.607 3.383 20.603 1.777 28.916-4.874zM456.502 702.667c6.924 8.667 19.606 10.091 28.279 3.172l216.367-172.85c8.667-6.924 10.091-19.617 3.166-28.29l-1.748-2.175c-6.93-8.678-19.623-10.091-28.29-3.172l-216.367 172.85c-8.673 6.924-10.085 19.606-3.155 28.279l1.748 2.187zM328.468 668.928l-138.592-137.077 136.331-139.303 0.666 81.482 6.008 1.401c1.384 0.325 133.956 29.275 228.9-111.799 1.475 37.447-5.267 117.625-80.11 180.941-0.774 0.729-47.31 43.295-145.812 41.142l-8.069-0.177 0.678 83.39z" />
</font>
</defs>
</svg>
